<svg xmlns="http://www.w3.org/2000/svg" viewBox="0 0 800 600">
  <defs>
    <linearGradient id="bg" x1="0%" y1="0%" x2="100%" y2="100%">
      <stop offset="0%" stop-color="#0f172a"/>
      <stop offset="100%" stop-color="#1e3a8a"/>
    </linearGradient>
    <linearGradient id="store" x1="0%" y1="0%" x2="100%" y2="100%">
      <stop offset="0%" stop-color="#eff6ff"/>
      <stop offset="100%" stop-color="#e2e8f0"/>
    </linearGradient>
    <linearGradient id="cart" x1="0%" y1="0%" x2="100%" y2="100%">
      <stop offset="0%" stop-color="#38bdf8"/>
      <stop offset="100%" stop-color="#0ea5e9"/>
    </linearGradient>
  </defs>
  <rect width="800" height="600" rx="40" fill="url(#bg)"/>
  <rect x="80" y="100" width="640" height="420" rx="32" fill="#0f172a" opacity="0.14"/>
  <rect x="120" y="140" width="560" height="360" rx="28" fill="url(#store)"/>
  <rect x="140" y="170" width="520" height="80" rx="24" fill="#fff"/>
  <rect x="170" y="200" width="120" height="20" rx="10" fill="#0f172a" opacity="0.08"/>
  <rect x="320" y="200" width="160" height="20" rx="10" fill="#0f172a" opacity="0.08"/>
  <rect x="170" y="240" width="80" height="12" rx="6" fill="#cbd5e1"/>
  <rect x="260" y="240" width="220" height="12" rx="6" fill="#cbd5e1"/>
  <rect x="140" y="290" width="200" height="220" rx="24" fill="#ffffff"/>
  <rect x="170" y="330" width="140" height="22" rx="11" fill="#38bdf8"/>
  <rect x="170" y="370" width="140" height="22" rx="11" fill="#f8fafc"/>
  <rect x="170" y="410" width="180" height="16" rx="8" fill="#cbd5e1"/>
  <rect x="170" y="440" width="180" height="16" rx="8" fill="#cbd5e1"/>
  <path d="M430 280h220a24 24 0 0 1 24 24v180a24 24 0 0 1-24 24H430a24 24 0 0 1-24-24V304a24 24 0 0 1 24-24z" fill="#ffffff"/>
  <rect x="450" y="320" width="160" height="22" rx="11" fill="#1d4ed8"/>
  <rect x="450" y="360" width="220" height="14" rx="7" fill="#cbd5e1"/>
  <rect x="450" y="385" width="180" height="14" rx="7" fill="#cbd5e1"/>
  <rect x="450" y="410" width="120" height="14" rx="7" fill="#cbd5e1"/>
  <rect x="450" y="440" width="200" height="16" rx="8" fill="#dbeafe"/>
  <rect x="140" y="120" width="120" height="24" rx="12" fill="#fff" opacity="0.22"/>
  <rect x="570" y="120" width="190" height="24" rx="12" fill="#fff" opacity="0.16"/>
  <path d="M200 260h140l-12 34H206z" fill="#e2e8f0"/>
  <path d="M205 295h130v6H205z" fill="#cbd5e1"/>
  <circle cx="520" cy="516" r="32" fill="#38bdf8"/>
  <circle cx="520" cy="516" r="16" fill="#fff"/>
  <path d="M400 180h240a24 24 0 0 1 24 24v20H376v-20a24 24 0 0 1 24-24z" fill="#38bdf8" opacity="0.9"/>
  <text x="150" y="150" font-family="Inter, Arial, sans-serif" font-size="28" fill="#0f172a" font-weight="700">Ecommerce Store</text>
  <text x="150" y="182" font-family="Inter, Arial, sans-serif" font-size="16" fill="#475569">Storefront, cart, and checkout visuals</text>
  <g transform="translate(550 320)">
    <rect x="0" y="0" width="140" height="140" rx="20" fill="url(#cart)"/>
    <path d="M22 52h96l-12 40H36z" fill="#fff" opacity="0.95"/>
    <path d="M26 38h20c6.6 0 12 5.4 12 12v6H26v-18z" fill="#fff"/>
    <path d="M50 30a12 12 0 1 1-24 0 12 12 0 0 1 24 0z" fill="#fff"/>
    <circle cx="40" cy="96" r="12" fill="#0f172a"/>
    <circle cx="94" cy="96" r="12" fill="#0f172a"/>
    <rect x="18" y="16" width="104" height="16" rx="8" fill="#fff" opacity="0.7"/>
  </g>
</svg>
