<svg xmlns="http://www.w3.org/2000/svg" width="258.001" height="235.612" viewBox="0 0 258.001 235.612">
  <g id="bird-light" transform="translate(-1231.983 -338.208)">
    <path id="Tracé_8213" data-name="Tracé 8213" d="M48.557,11.007c-2.012-.277-4.469-.077-5.635-1.6a2.772,2.772,0,0,1,.186-3.356,5.941,5.941,0,0,1,3.359-1.97,14.055,14.055,0,0,0-11.4-1.88c-1.313.357-2.562.907-3.9,1.186a5.424,5.424,0,0,1-3.959-.458A2.422,2.422,0,0,1,26.159,0C20.269.443,14.329,1.718,9.41,4.706,4.406,7.748.6,12.782.43,18.271L0,17.884c6.357,8.8,18.72,12.152,29.3,7.94a8.88,8.88,0,0,1-1.711-.688,2.6,2.6,0,0,1-1.258-1.214c-.262-.791.385-1.589,1.08-2.118a9.172,9.172,0,0,1,6.238-1.775c1.786.15,3.472.81,5.231,1.123a13.72,13.72,0,0,0,6.777-.521,5.368,5.368,0,0,1-1.373-1.851,2.481,2.481,0,0,1-.119-2.02c.54-1.161,2.164-1.447,3.537-1.575a25.5,25.5,0,0,1,5.383-.113,10.48,10.48,0,0,1,2.117.478,8.975,8.975,0,0,0-6.646-4.543" transform="matrix(0.999, -0.035, 0.035, 0.999, 1419.479, 546.205)" fill="#85dcff"/>
    <path id="Tracé_8211" data-name="Tracé 8211" d="M26.228.869c-4.8-1.216-10.123-1.307-14.591.706C6.81,3.748,3.658,7.974,0,11.639A48.835,48.835,0,0,0,7.728,14.92a22.862,22.862,0,0,0,12.665.615c6.191-1.7,10.425-6.554,13.961-11.648A46.033,46.033,0,0,0,26.228.869" transform="matrix(0.999, -0.035, 0.035, 0.999, 1418.744, 552.261)" fill="#fff"/>
    <path id="Tracé_8201" data-name="Tracé 8201" d="M4.361,0l.82.714c.539.482,1.308,1.1,2.339,2.109.5.489,1.094,1.024,1.664,1.613l1.843,1.907,2.006,2.211,2.14,2.482c1.457,1.738,3.008,3.632,4.615,5.62s3.3,4.062,5.087,6.159,3.7,4.169,5.733,6.181c1.043.973,2.081,1.974,3.2,2.879l.826.7c.278.23.574.434.86.657l.866.652.433.326.108.082.054.041.027.021c.024.017-.119-.078-.045-.028l.238.158c1.274.815,2.583,1.754,3.8,2.368l.923.515a9.131,9.131,0,0,0,.946.492l1.962.91c.648.311,1.338.518,2,.782l1,.376c.336.116.681.2,1.02.3.682.189,1.352.407,2.032.573l2.045.424.506.109.512.068,1.018.132a19.384,19.384,0,0,0,2.016.209l1.988.114c.657,0,1.308-.015,1.95-.019l.957-.011.943-.073,1.843-.143c.6-.071,1.2-.163,1.779-.242s1.157-.14,1.711-.266q3.056-.561,6.035-1.412l2.483-.752,2.081-.725c.632-.211,1.189-.421,1.669-.615l1.226-.479,1.021-.4,1.5,2.933-1.049.443-1.26.532c-.493.215-1.07.449-1.724.688l-2.161.815-2.6.863q-3.152.993-6.406,1.678c-.591.149-1.217.224-1.843.337s-1.271.217-1.928.312l-2.021.212-1.036.1-1.059.042c-.713.025-1.433.062-2.164.075l-2.226-.067q-1.139-.032-2.271-.175l-1.151-.12-.58-.063-.575-.1-2.325-.42c-.773-.167-1.539-.389-2.318-.585-.386-.105-.781-.194-1.164-.316l-1.141-.392c-.756-.275-1.546-.5-2.284-.825l-2.234-.965a11.691,11.691,0,0,1-1.109-.539l-1.1-.577c-1.546-.76-2.743-1.588-4.075-2.39l-.245-.151-.134-.09-.059-.043-.122-.087-.49-.348-.979-.7c-.323-.235-.659-.459-.971-.7l-.927-.74c-1.26-.967-2.408-2.01-3.567-3.036-2.245-2.095-4.331-4.237-6.247-6.355s-3.7-4.182-5.371-6.13-3.249-3.764-4.718-5.418L8.366,12.091,6.4,10.049,4.631,8.317c-.548-.532-1.057-.962-1.512-1.382C2.252,6.116,1.373,5.443.842,4.994L0,4.3Z" transform="matrix(0.999, -0.035, 0.035, 0.999, 1353.182, 522.435)" fill="#35acdf"/>
    <path id="Tracé_8214" data-name="Tracé 8214" d="M1.259,5.017C-.61,3.232,4.25,1.7,5.191,1.506A45.566,45.566,0,0,1,10.345.991c.457-.04.647-.7.119-.794C7.789-.265,3.894.04,1.653,1.6c-1.024.715-2.785,3.33-.628,3.782a.247.247,0,0,0,.3-.161.21.21,0,0,0-.059-.209Z" transform="matrix(0.999, -0.035, 0.035, 0.999, 1446.019, 565.222)" fill="#35acdf"/>
    <path id="Tracé_8204" data-name="Tracé 8204" d="M.02.145a51.42,51.42,0,0,0,7.955,9.3c2.992,2.747,6.088,5.85,9.664,7.956.222.131.542-.138.377-.344C15.673,14.141,12.4,11.83,9.567,9.326A71.473,71.473,0,0,1,.2.045c-.078-.1-.262-.011-.187.1Z" transform="matrix(0.999, -0.035, 0.035, 0.999, 1371.629, 542.408)" fill="#35acdf"/>
    <path id="Tracé_8205" data-name="Tracé 8205" d="M.187.773a37.455,37.455,0,0,0,4.532,2.68c1.206.6,2.69,1.462,4.089,1.426a.274.274,0,0,0,.279-.269.25.25,0,0,0-.078-.174C7.957,3.5,6.275,3.125,4.976,2.509A37.841,37.841,0,0,1,.637.075a.414.414,0,0,0-.447.7Z" transform="matrix(0.999, -0.035, 0.035, 0.999, 1390.484, 559.008)" fill="#35acdf"/>
    <path id="Tracé_8218" data-name="Tracé 8218" d="M32.053,3.955a6.881,6.881,0,0,1-2.536,1.02A2.03,2.03,0,0,1,27.3,3.814c-.238-.891.562-1.707,1.293-2.336A2.5,2.5,0,0,1,29.871.8c-.647-.815-2.029-.885-3.162-.733A19.149,19.149,0,0,0,15.533,5.626a10.2,10.2,0,0,1-2.74,2.4c-1.126.545-2.752.466-3.42-.526a1.921,1.921,0,0,1-.156-1.73C.488,11.513-2.47,22.152,2.2,31l-.191-.247c.872,1.387,2.712,1.971,4.424,2.306a32.8,32.8,0,0,0,12.214.061c3.626-.671,7.282-2.082,9.495-4.789a5.429,5.429,0,0,1-3.393.5c-1.115-.331-1.8-1.816-.9-2.5,2.5-1.779,6.338-5.023,6.348-7.333a3.251,3.251,0,0,0-.6-2.064c-.3-.377-.713-.666-1.02-1.037-.962-1.163-.654-2.834,0-4.166,2.213-4.534,7.41-7.1,12.256-9.346.526-.243,1.056-.48,1.593-.706-3.52-.728-7.249.55-10.367,2.272" transform="matrix(0.999, -0.035, 0.035, 0.999, 1446.415, 490.008)" fill="#85dcff"/>
    <path id="Tracé_8216" data-name="Tracé 8216" d="M13.137,2.531C8.233,4.6,3.906,8.218,2.221,12.906c-1.006,2.8-1.033,5.8-1.567,8.711A25.365,25.365,0,0,1,0,24.314q4.194-.122,8.368-.568A19.277,19.277,0,0,0,15,22.146c3.662-1.847,5.666-5.641,6.485-9.389s.684-7.616,1.28-11.4A13.7,13.7,0,0,1,23.046,0a38.382,38.382,0,0,0-9.909,2.531" transform="matrix(0.999, -0.035, 0.035, 0.999, 1447.741, 498.028)" fill="#fff"/>
    <path id="Tracé_8203" data-name="Tracé 8203" d="M5.727,18.723l.506.954.131.247a2.252,2.252,0,0,0,.131.2l.284.427.154.243.218.275.476.611A16.81,16.81,0,0,0,10.7,24.4a24.824,24.824,0,0,0,5.09,2.647A51.164,51.164,0,0,0,30.954,30.07a79.671,79.671,0,0,0,9,.059c1.533-.075,3.074-.2,4.611-.367.769-.082,1.533-.185,2.3-.292L48,29.292l1.056-.228,1.179-.255.589-.127.3-.064.255-.082,2.04-.641c.171-.054.341-.1.512-.163l.514-.21,1.028-.418,1.027-.416c.341-.14.662-.326.993-.483.654-.333,1.317-.652,1.962-.991L61.323,24.1c.634-.35,1.214-.778,1.808-1.175.583-.413,1.195-.778,1.745-1.221,1.12-.856,2.234-1.684,3.257-2.585,1.055-.86,2.032-1.77,2.991-2.647s1.847-1.783,2.734-2.63L76.335,11.3c3.139-3.313,5.67-6.182,7.49-8.171L86.7,0l2.722,2.069L86.674,5.232c-1.745,2.019-4.192,4.959-7.293,8.419l-2.462,2.678c-.892.9-1.772,1.861-2.751,2.8S72.2,21.05,71.11,21.992c-1.051.974-2.216,1.9-3.388,2.845-.574.486-1.229.908-1.848,1.37s-1.248.923-1.935,1.333l-2.032,1.277c-.705.4-1.435.775-2.158,1.165-.367.188-.719.4-1.1.569l-1.149.5-1.154.5-.579.252c-.2.078-.416.144-.62.217l-2.512.845-.315.1-.292.071-.585.142-1.171.285-.585.142-.293.071-.146.035-.073.018-.2.042-1.242.227c-.827.138-1.654.272-2.481.38q-2.478.333-4.939.52a85.692,85.692,0,0,1-9.662.182,57.367,57.367,0,0,1-17.12-3,31.239,31.239,0,0,1-6.463-3.16,23.043,23.043,0,0,1-4.33-3.639l-.719-.858-.325-.4c-.1-.145-.2-.286-.3-.42l-.517-.756c-.073-.112-.162-.237-.211-.326l-.138-.243L0,21.352Z" transform="matrix(0.999, -0.035, 0.035, 0.999, 1372.622, 509.614)" fill="#35acdf"/>
    <path id="Tracé_8217" data-name="Tracé 8217" d="M.587,10.477C3.221,7.3,6.227,4.068,8.246.525a.367.367,0,0,0-.59-.416C4.7,3.1,2.416,6.8.053,10.192c-.219.314.3.567.535.285Z" transform="matrix(0.999, -0.035, 0.035, 0.999, 1453.72, 505.587)" fill="#35acdf"/>
    <path id="Tracé_8219" data-name="Tracé 8219" d="M2.155.085A6.273,6.273,0,0,0,.381,2.324c-.31.688-.7,1.615.055,2.184,1.383,1.044,4.052-.054,4.978-1.155a.375.375,0,0,0-.165-.534.465.465,0,0,0-.316-.038c-.707.272-2.94,1.455-3.571.79C.827,3.01,2.313,1.018,2.733.492,2.988.172,2.449-.16,2.155.085Z" transform="matrix(0.999, -0.035, 0.035, 0.999, 1472.228, 490.404)" fill="#35acdf"/>
    <path id="Tracé_8220" data-name="Tracé 8220" d="M2.37,8.833c-3.165-.655.522-4.109,1.707-4.966C5.368,2.933,6.73,2.053,7.158.533A.451.451,0,0,0,6.4.132C4.816,1.91,2.492,3.051,1.023,4.876-.032,6.188-.463,7.983.67,9.365a.629.629,0,0,0,.641.238q.527-.095,1.058-.167a.308.308,0,0,0,0-.6Z" transform="matrix(0.999, -0.035, 0.035, 0.999, 1469.947, 508.836)" fill="#35acdf"/>
    <path id="Tracé_8229" data-name="Tracé 8229" d="M27.539,22.9a2.568,2.568,0,0,1-2.085,1.116,2.424,2.424,0,0,1-1.44-.992,5.71,5.71,0,0,1-.471-.646,6.6,6.6,0,0,0,.009,1.585,6.6,6.6,0,0,1-.009-1.585c-.043-.069-.092-.135-.128-.206a2.552,2.552,0,0,1,.093-2.468,2.552,2.552,0,0,0-.093,2.468c.037.072.086.137.128.206.427-4,4.122-7.622,4.171-11.763a1.794,1.794,0,0,0-.178-.932c-.4-.7-1.415-.794-2.223-1.064a4.606,4.606,0,0,1-2.963-4.55A8.053,8.053,0,0,1,23.844,0C19.672,1.82,16.7,5.533,14.669,9.386a7.175,7.175,0,0,1-1.2,1.833,2.253,2.253,0,0,1-2.961.439,1.883,1.883,0,0,1-.878-1.673,3.438,3.438,0,0,1,.036-.914A13.683,13.683,0,0,0,5.279,16.9c-.187,1.141-.218,2.3-.4,3.446A13.109,13.109,0,0,1,3.312,24.73a1.982,1.982,0,0,1-.594.716A1.68,1.68,0,0,1,.71,25.072a2.592,2.592,0,0,1-.48-.754A26.538,26.538,0,0,0,6.115,44.652a8.191,8.191,0,0,0,3.626,2.821l.33.38a8.232,8.232,0,0,0,5.2-.741A21.643,21.643,0,0,0,28.481,30.465a52.449,52.449,0,0,0,.147-8.878c-.349.448-.71.89-1.089,1.317" transform="matrix(0.999, -0.035, 0.035, 0.999, 1421.982, 437.931)" fill="#85dcff"/>
    <path id="Tracé_8231" data-name="Tracé 8231" d="M12.22,0C-2.965,9.362-2.361,21.052,5.161,34.581,9.937,30,15.747,24.051,17.239,17.6c1.5-6.478-3.481-11.474-5.019-17.6-3.138,1.933.789,3.138,0,0" transform="matrix(0.999, -0.035, 0.035, 0.999, 1427.864, 452.832)" fill="#fff"/>
    <path id="Tracé_8221" data-name="Tracé 8221" d="M4.964,43.335l.8.923.438.5c.08.09.166.195.251.283s.168.163.257.25c.364.347.741.753,1.232,1.2a31.257,31.257,0,0,0,3.93,3.027c.792.556,1.715,1.041,2.663,1.589.99.483,2.021,1.014,3.159,1.452A35.833,35.833,0,0,0,25.3,54.7a34.036,34.036,0,0,0,8.848.3l1.151-.116,1.153-.2c.408-.075.864-.136,1.238-.223l1.095-.266c.726-.147,1.494-.415,2.259-.644l.573-.178.561-.215,1.129-.428a33.416,33.416,0,0,0,8.336-4.877,31.855,31.855,0,0,0,6.459-6.9c.409-.652.824-1.295,1.207-1.951.336-.675.732-1.325,1.022-2.01l.441-1.021.2-.446.193-.559c.243-.734.549-1.509.7-2.169a36.417,36.417,0,0,0,.919-4.182c.238-1.4.392-2.8.518-4.171.246-2.741.337-5.377.44-7.84s.2-4.735.394-6.768c.072-1.012.21-1.969.3-2.848.134-.882.257-1.691.369-2.423.15-.73.283-1.382.4-1.949s.267-1.044.361-1.434L65.881,0,69.3.823s-.091.383-.262,1.1c-.077.362-.21.8-.3,1.328s-.2,1.137-.322,1.819c-.086.69-.178,1.454-.284,2.286-.059.843-.169,1.742-.212,2.722-.128,1.949-.162,4.178-.2,6.627s-.053,5.136-.232,8.01c-.092,1.437-.216,2.922-.43,4.444-.081.76-.238,1.531-.376,2.308-.119.769-.34,1.586-.535,2.395-.185.846-.443,1.536-.673,2.3l-.178.563-.048.137-.029.074-.059.148-.119.3q-.238.592-.476,1.187c-.316.8-.741,1.553-1.112,2.336-.416.764-.871,1.515-1.325,2.271a36.184,36.184,0,0,1-7.178,8.073A38.386,38.386,0,0,1,45.5,57.085a38.832,38.832,0,0,1-5.307,1.854l-1.4.363c-.456.112-.849.172-1.274.26l-1.348.257-1.36.172a40.193,40.193,0,0,1-10.451-.112,42.228,42.228,0,0,1-9.012-2.308c-1.354-.489-2.591-1.081-3.774-1.629-1.144-.616-2.249-1.175-3.214-1.81a37.575,37.575,0,0,1-4.805-3.519c-.632-.55-1.184-1.1-1.664-1.557l-.347-.334c-.1-.1-.178-.194-.266-.286l-.452-.492L0,47.043Z" transform="matrix(0.999, -0.035, 0.035, 0.999, 1368.032, 472.341)" fill="#35acdf"/>
    <path id="Tracé_8232" data-name="Tracé 8232" d="M.24,5.943C-.841,8.1,1.963,9.61,4.017,8.819c3.109-1.195,3.89-5.8,4.256-8.465C8.321,0,7.7-.14,7.542.173A33.1,33.1,0,0,0,5.9,4.615,6.063,6.063,0,0,1,4.539,7.171C3.322,8.337.849,8.063,1.08,6.151a.438.438,0,0,0-.463-.406A.465.465,0,0,0,.24,5.943Z" transform="matrix(0.999, -0.035, 0.035, 0.999, 1431.451, 441.611)" fill="#35acdf"/>
    <path id="Tracé_8233" data-name="Tracé 8233" d="M1.535.122C.212,2.153-1.008,6,1.279,7.85c1.492,1.2,4.8.63,4.248-1.594-.105-.426-.707-.339-.854,0a1.692,1.692,0,0,1-3.087.3,3.519,3.519,0,0,1-.3-2.834c.257-1.153.929-2.281.79-3.47A.289.289,0,0,0,1.766,0,.3.3,0,0,0,1.535.122Z" transform="matrix(0.999, -0.035, 0.035, 0.999, 1445.383, 454.052)" fill="#35acdf"/>
    <path id="Tracé_8230" data-name="Tracé 8230" d="M1.073,21.708a44.172,44.172,0,0,1,.852-11.081C2.639,7.068,4.374,3.837,5.349.361A.291.291,0,0,0,5.116.009a.332.332,0,0,0-.348.129C1.072,6.163-1.037,14.929.516,21.777a.291.291,0,0,0,.357.171A.266.266,0,0,0,1.073,21.708Z" transform="matrix(0.999, -0.035, 0.035, 0.999, 1432.942, 462.81)" fill="#35acdf"/>
    <path id="Tracé_8206" data-name="Tracé 8206" d="M10.923,7.6,3.825,0,0,8.194a16.072,16.072,0,0,1,8.832,7.694c1.922,3.38,2.966,7.107,4.285,10.72a42.13,42.13,0,0,0,7.014,12.83,27.38,27.38,0,0,0,5.7,5.141A49.043,49.043,0,0,0,10.923,7.6" transform="matrix(0.999, -0.035, 0.035, 0.999, 1340.941, 510.971)" fill="#fff"/>
    <path id="Tracé_8240" data-name="Tracé 8240" d="M26.445,8.066A37.994,37.994,0,0,1,7.121,1.107L0,0,4.065,4.657,6.17,7.846c1.682,3.389,5.087,5.883,8.842,7.323a39.935,39.935,0,0,0,11.926,2.17,39.347,39.347,0,0,0,12.393-.815c3.469-.92,6.63-2.6,9.979-3.839.615-.227,1.244-.439,1.881-.628A24.971,24.971,0,0,0,42.5,8.71c-5.263-.952-10.71-.248-16.058-.644" transform="matrix(0.999, -0.035, 0.035, 0.999, 1344.574, 505.415)" fill="#fff"/>
    <path id="Tracé_8202" data-name="Tracé 8202" d="M18.73,10.429,1.871,0,0,9.954,10.322,20.529A53.931,53.931,0,0,0,38.452,34.1,47.861,47.861,0,0,0,18.73,10.429" transform="matrix(0.999, -0.035, 0.035, 0.999, 1345.299, 505.846)" fill="#fff"/>
    <g id="bird-light-2" data-name="bird-light" transform="translate(1231 338.206)">
      <g id="Groupe_6282" data-name="Groupe 6282">
        <path id="Tracé_7516" data-name="Tracé 7516" d="M60.905,94.088c-.832.079-1.263.536-.565-.417,1.332-1.738,3.576-5.07,3.694-7.838.415-3.254.494-9-3.586-9.53-.7-.32-3.457.536-3.094-.138.9-2.145,2.2-4.175,2.888-6.632.806-3.026,1.536-8.227.221-10.706-1.093-1.915-3.582-.969-5.205-.237-1.38.623-2.186,1.04-2.212.735a16.753,16.753,0,0,1,1.065-2.718,13.542,13.542,0,0,0,.923-7.515c-.387-4.22-2.985-7.262-7.053-6.337-.856.055-.593-.882-.579-1.552.723-4.823-.3-15.723-7.6-11.929-2.431,1.338-2.483,1.356-2.647-1.318-.3-3.465-3.03-11.546-6.266-13.086-2.155-.971-4.708,2.894-5.517,3.493-.111.077-.2.1-.308,0-.826-1.192-1.135-2.882-1.805-4.272C21.6,10.245,15.852,4.212,12.3,2.84c-1.33-.174-1.245,1.014-1.067,2.609a159.073,159.073,0,0,1,3.829,35.8c-.611,13.635,2.305,19.735,11.53,29.609a63.827,63.827,0,0,1,8.178,10.648c3.483,6.017,4.392,12.953,5.191,19.814a73.559,73.559,0,0,1-.267,21.036c-.729,6.944,6.932,12.75,12.675,7.359,7.545-6.112,9.959-16.345,12.119-25.549.82-4.886,5.468-12.2-3.586-10.079" transform="translate(11.404 2.89)" fill="#fff"/>
        <path id="Tracé_7517" data-name="Tracé 7517" d="M14.783,7.739c.86,1.178,2.3,2.044,3.331,3.184,1.063.978,1.941,2.267,3.05,3.141.708.383.1-.761-.059-1.054-1.372-2.234-3.538-4.59-6.064-5.477-.215-.04-.314.006-.283.136Z" transform="translate(15.105 7.697)" fill="#35acdf"/>
        <path id="Tracé_7518" data-name="Tracé 7518" d="M21.64,11.882c-.31,1.058,7.092,15.414,5.2,8.13-1.135-2.864-2.522-5.995-4.75-8.15-.223-.158-.37-.174-.427-.045" transform="translate(22.147 12.01)" fill="#35acdf"/>
        <path id="Tracé_7519" data-name="Tracé 7519" d="M26.839,18.811c1.279,3.592,2.961,7.3,3.505,11.147a13.465,13.465,0,0,0,.455,1.732c.13.334.247.459.336.352a5.412,5.412,0,0,0,.162-2.153c-.368-3.9-1.556-8.14-4.112-11.178-.241-.227-.366-.221-.354.02Z" transform="translate(27.47 18.989)" fill="#35acdf"/>
        <path id="Tracé_7520" data-name="Tracé 7520" d="M31.4,26c.516.967.888,7.948,1.886,7.221.747-.88-.221-8.2-1.894-7.225" transform="translate(32.144 26.522)" fill="#35acdf"/>
        <path id="Tracé_7521" data-name="Tracé 7521" d="M33.846,32.714c.569,3.356.132,6.659.1,9.98.186,2.083,1.152.3,1.3-.7.4-2.182.82-8.158-1.4-9.281" transform="translate(34.654 33.495)" fill="#35acdf"/>
        <path id="Tracé_7522" data-name="Tracé 7522" d="M24.827,41.1c.765,3.94,1.736,7.9,2.125,11.951.168.731.162,2.123.739,2.459.4-.338.374-1.536.415-2.151-.055-4.206-.718-8.895-3.277-12.259" transform="translate(25.42 42.082)" fill="#35acdf"/>
        <path id="Tracé_7523" data-name="Tracé 7523" d="M52.878,77.381a3.747,3.747,0,0,1-.644.273c-.1.014-.21-.069-.4-.2-.16-.154-.486-.235-.348-.265a4.759,4.759,0,0,0,3.137-3.461c.8-2.376-.178-4.829-.03-7.306.164-1.471-.162-2.716-2.012-2.487a7.136,7.136,0,0,0-2.508.919c-.166.051-.617-.277-.884-.237,3.307-2.4,3.327-8.931,2.835-12.8-.119-.668-.338-1.666-1.188-1.477-1.874.638-3.345,2.653-5.353,2.52,3.592-1.8,2.556-7.314,1.427-10.437-.907-2.835-2.161-2.663-4.475-1.384-.52.2-1.247.032-.925-.3,1.878-2.617.085-7.086-1.1-9.747-.818-1.724-2.186-1.166-3.479-.174-.761.378-3.374,3.044-2.576,1.1,1.453-3.809-2.544-6.851-3.621-10.346-.241-.546-.5-1.2-1.03-1.352-1.109-.1-2.722,1.579-3.068,2.576a3.653,3.653,0,0,0-.144.9c-.01.154-.057.089-.281.063-.393-.087-.937.35-1.115.72,1.807-3.7-6.126-10-8.948-11.894-.826-.522-1.684-.832-1.148.708a105.308,105.308,0,0,1,4.2,29.822c-.664,10.336,6.533,15.369,12.651,22.356,4.946,5.466,5.788,12.991,6.713,20.014a45.756,45.756,0,0,1,.35,8.664c0,2.095-.846,4.177-.814,6.165a2.825,2.825,0,0,0,.874,1.429c1.334,1.061,2.742,2.878,4.343,3.382a2.693,2.693,0,0,0,1.828-.5,17.081,17.081,0,0,0,6.986-7.883c2.821-6.219,2.894-13.167,5.056-19.462.287-1.38-.678-1.044-1.981-.7A12.774,12.774,0,0,0,53,77.308" transform="translate(15.187 12.442)" fill="#85dcff"/>
        <path id="Tracé_7524" data-name="Tracé 7524" d="M26.076,22.358a9.933,9.933,0,0,0,.447,2.212c.816,2.518.453,5.3,1.129,7.8.617,1.044,1.04-.943,1.079-1.445a13.272,13.272,0,0,0-2.309-8.561c-.176-.184-.291-.21-.332-.073Z" transform="translate(26.698 22.732)" fill="#35acdf"/>
        <path id="Tracé_7525" data-name="Tracé 7525" d="M17.132,15.283a4.912,4.912,0,0,0,.893,1.568c1.445,1.755,2.56,3.957,4.177,5.535.474.32.54-.063.463-.512a13.629,13.629,0,0,0-3.758-6.009c-.326-.271-1.639-1.419-1.785-.68Z" transform="translate(17.531 15.298)" fill="#35acdf"/>
        <path id="Tracé_7526" data-name="Tracé 7526" d="M32.363,34.788c-.429,2.682-.3,5.6-.828,8.3-.1.64-.107,2.54.72,1.253a14.211,14.211,0,0,0,.9-9.1c-.134-.389-.431-1.069-.745-.555Z" transform="translate(32.241 35.331)" fill="#35acdf"/>
        <path id="Tracé_7527" data-name="Tracé 7527" d="M35.872,45.47c-1.983,3.012-.9,7.1-1.941,10.569-.3,1.411-1,2.973-1.222,4.343-.144,2.3,2.431-1.773,2.55-2.406,1.518-3.526.919-7.462,1.119-11.152-.038-.472.014-1.463-.449-1.386Z" transform="translate(33.484 46.517)" fill="#35acdf"/>
        <path id="Tracé_7528" data-name="Tracé 7528" d="M33.678,54.218c-.716.682-1.573,2.271-2.546,2.993-.4.4-2.3,1.775-1.087,2.04,1.991-.083,4.005-2.384,4.23-4.315.038-.358-.067-1-.5-.777Z" transform="translate(30.355 55.403)" fill="#35acdf"/>
        <path id="Tracé_7529" data-name="Tracé 7529" d="M35.437,50.589a13.7,13.7,0,0,0-1.172,1.856c-1.125,2.17-3.094,3.91-4.274,6.017-.322,1.245,1.481-.053,1.84-.4a12.584,12.584,0,0,0,3.938-7.434c-.024-.2-.115-.235-.265-.1Z" transform="translate(30.667 51.653)" fill="#35acdf"/>
        <path id="Tracé_7530" data-name="Tracé 7530" d="M29.583,54.765c-.3.178-1.056.621-1.172.929-.055.154.2.117.433-.049.194-.15,1.077-.767.824-.917Z" transform="translate(29.081 56.035)" fill="#35acdf"/>
        <path id="Tracé_7531" data-name="Tracé 7531" d="M32.782,50.674a2.7,2.7,0,0,0,.619-1.9c-.111-.816-.7-.389-.911.16-.283.553-.463,1.9.2,1.809Z" transform="translate(33.005 49.477)" fill="#35acdf"/>
        <path id="Tracé_7532" data-name="Tracé 7532" d="M20.233,35.414C21.6,36.792,22.6,38.7,24.208,39.78c1.22.119-.553-2.216-.947-2.587-.838-.737-1.8-2.41-3.026-1.781" transform="translate(20.716 36.115)" fill="#35acdf"/>
        <path id="Tracé_7533" data-name="Tracé 7533" d="M205.437,42.255c-3.05.6-6.231.348-9.435.362-1.672.051-2.643-.034-.891-1.417a43.646,43.646,0,0,0,7.656-7.812,21.037,21.037,0,0,0,3.973-9.721c.107-1.04.275-2.319-.346-3.094-.716-.834-2.661.132-4.341.435-2.03.455-3.979.72-2.2-1.676,3.637-5.183,6.106-11.633,5.031-17.889-.316-1.413-.757-2.242-2.008-.3a48.029,48.029,0,0,1-4.7,5.96c-6.078,6.6-13.987,12.028-21.746,17.075C143.11,43.314,103.394,55.8,70.221,74.418,56.962,82.137,55.2,94.5,48.881,107.078c-5.339,10.024-11.959,22.845-24.266,24.5-.5.075-.779.119-.789.174-.006.02.022.04.081.065.5.158,2,.506,3.892.986,9.253,2.18,20.933,5.408,29.951,7.345,16.5,2.888,19.389-7.14,33.586,7.9,8.154,8.44,17.672,15.825,28.567,20.267,3.388,1.5,3.993-3.244,3.785-5.916-.13-1.933-1.048-3.866,1.024-3.309,8.2,2.886,6.319-1.973,4.78-7.577-.119-.9.759-.86,1.421-.767,4.973.729,11.417,1.86,6.912-5.406-.747-1.271-2.226-2.435-2.133-3.125.089-.593.915-.777,1.479-.961a34.756,34.756,0,0,0,12.414-5.568c.565-.433,1.2-1.184.342-1.633-.856-.609-5.58-1.164-3.376-2.686,5.73-2.815,11.609-6.381,14.758-12.012,1.111-1.953-.542-1.83-1.967-1.7-2.542.119-5.351-.168-2.433-1.722,8.16-4.77,14.384-12.234,21.267-18.531.413-.872-1.73-.668-3.273-1.143-.7-.164-1.4-.352-2.1-.522-1.3-.366-2.88-.478-1.933-1.123,8.415-3.378,16.839-7.745,22.447-14.339.36-.5,1.117-1.131.8-1.684-.352-.407-2.619.115-3.659.15-1.267.057-4.6.372-4.817-.395-.045-.658.7-1.1,1.162-1.566,4.633-4.163,9.5-8.407,12.91-13.734.9-1.524,1.963-3.651-1.042-2.506-3.493,1.115-7.268,2.269-10.814,1.6-.838-.557.852-1.37,1.348-1.785,7.071-4.738,13.094-10.765,16.223-18.081" transform="translate(24.393 0.001)" fill="#35acdf"/>
        <path id="Tracé_7534" data-name="Tracé 7534" d="M120.187,11.88c-1.33,1.026-2.368,3.3-3.354,4.8-2.791,4.967-7.419,8.709-11.54,12.481-1.1,1.208-.289,1.089.8.569,6.274-3.362,11.864-9.342,14.228-15.92.16-.607.64-2.087-.081-1.957Z" transform="translate(107.271 12.127)" fill="#35acdf"/>
        <path id="Tracé_7535" data-name="Tracé 7535" d="M120.6,22.766a50.177,50.177,0,0,1-15.143,12.975c-1.532.854-3.453,1.783-4.807,2.73-.544.391-.755.66-.587.763,6.926-.672,18.832-9.84,20.538-16.466" transform="translate(102.39 23.309)" fill="#35acdf"/>
        <path id="Tracé_7536" data-name="Tracé 7536" d="M118.711,31.288A156.223,156.223,0,0,1,102.085,43.4a36.327,36.327,0,0,0-3.439,2.366c-.474.4-.65.652-.5.725.919.069,2.617-.834,3.641-1.293,6.3-3.485,13.445-7.5,16.922-13.908" transform="translate(100.436 32.035)" fill="#35acdf"/>
        <path id="Tracé_7537" data-name="Tracé 7537" d="M117.241,39.766A59.325,59.325,0,0,1,99.476,49.879c-1.741.617-3.857,1.245-5.436,2.006-.66.324-.941.581-.785.723,6.545.567,21.2-6.93,23.981-12.841" transform="translate(95.437 40.715)" fill="#35acdf"/>
        <path id="Tracé_7538" data-name="Tracé 7538" d="M103.91,49a14.54,14.54,0,0,0-2.977,2.052c-3.186,2.674-6.559,5.248-9.982,7.685a16.3,16.3,0,0,0-2.641,2.3c-.316.389-.4.65-.219.739.893.144,2.3-.759,3.212-1.249a57.7,57.7,0,0,0,11.923-10.008c.3-.4,1.3-1.481.741-1.522Z" transform="translate(90.098 50.158)" fill="#35acdf"/>
        <path id="Tracé_7539" data-name="Tracé 7539" d="M98.947,58.558c-5.143,4.461-11.224,7.086-17.525,9.409-1.139.6-.21.565.638.441,5.205-.969,15.428-4.57,16.891-9.85" transform="translate(82.823 59.956)" fill="#35acdf"/>
        <path id="Tracé_7540" data-name="Tracé 7540" d="M87.731,66.5c-2.629.6-5.124,1.947-7.9,2.4-.488.172-1.977.419-1.773,1a3.14,3.14,0,0,0,1.824.314,13.677,13.677,0,0,0,7.757-2.781c.3-.285.791-.836.2-.925Z" transform="translate(79.9 68.09)" fill="#35acdf"/>
        <path id="Tracé_7541" data-name="Tracé 7541" d="M81.94,74.156c-1.959-.971-4.331-1.469-6.416-2.289a4.547,4.547,0,0,0-1.079-.2c-.518,0-.453.3-.168.585a12.775,12.775,0,0,0,6.444,2.5c.4.01,1.7.057,1.3-.53Z" transform="translate(75.827 73.38)" fill="#35acdf"/>
        <path id="Tracé_7542" data-name="Tracé 7542" d="M77.686,78.385a16.374,16.374,0,0,0-2.526-1.354c-.7-.2-3.451-2.323-3.706-1.307.275,1.1,1.662,1.9,2.686,2.4.6.342,3.92,1.362,3.619.344Z" transform="translate(73.16 77.251)" fill="#35acdf"/>
        <path id="Tracé_7543" data-name="Tracé 7543" d="M78.876,86.985a17.227,17.227,0,0,0-2.52-1.647A99.784,99.784,0,0,1,65.689,77.8c-.676-.409-2.022-1.6-2.595-1.409.247.718,1.4,1.6,2.06,2.218,4.062,3.18,8.773,7.035,13.738,8.4" transform="translate(64.6 78.195)" fill="#35acdf"/>
        <path id="Tracé_7544" data-name="Tracé 7544" d="M98.485,44.122c.514-.071,2.894-.921,2.457-1.516-.283-.281-4.236,1.046-2.609,1.522Z" transform="translate(100.279 43.584)" fill="#35acdf"/>
        <path id="Tracé_7545" data-name="Tracé 7545" d="M101.167,44.286a3.942,3.942,0,0,0,1.121-.443c1.668-1.048,3.906-2.083,4.989-3.862.18-.5-.215-.476-.631-.312a14.079,14.079,0,0,0-2.595,1.761c-.385.415-3.967,2.566-2.993,2.864Z" transform="translate(103.298 40.508)" fill="#35acdf"/>
        <path id="Tracé_7546" data-name="Tracé 7546" d="M98.233,48.821c-.812.559-12.833,8.63-6.424,5.9a26.205,26.205,0,0,0,5.475-3.942,2.852,2.852,0,0,0,.949-1.959" transform="translate(92.082 49.984)" fill="#35acdf"/>
        <path id="Tracé_7547" data-name="Tracé 7547" d="M73.091,75.6a7.339,7.339,0,0,0,2.546,1.05c.548.061.828-.247.474-.518a5.971,5.971,0,0,0-1.3-.538c-.526-.144-1.5-.949-1.9-.443a.386.386,0,0,0,.083.364Z" transform="translate(74.642 76.771)" fill="#35acdf"/>
        <path id="Tracé_7548" data-name="Tracé 7548" d="M81.409,63.252a22.689,22.689,0,0,0,6.017-1.158c2.24-1.682-4.517.148-5.009.334a1.4,1.4,0,0,0-1.008.824" transform="translate(83.352 62.855)" fill="#35acdf"/>
        <path id="Tracé_7549" data-name="Tracé 7549" d="M86.2,60.925c.569.105,2.02-.089,1.977-.854-.034-.344-.585-.243-.86-.194a8.491,8.491,0,0,0-1.2.182.435.435,0,0,0-.045.844Z" transform="translate(87.815 61.252)" fill="#35acdf"/>
        <path id="Tracé_7550" data-name="Tracé 7550" d="M101.927,32.453c3.194-1,6.294-3.544,8.583-5.837.546-.548,1.684-2.2.045-1.334-2.461,1.589-4.734,3.663-7.185,5.228-.368.281-2.447,1.759-1.54,1.947Z" transform="translate(104.028 25.632)" fill="#35acdf"/>
        <path id="Tracé_7551" data-name="Tracé 7551" d="M107.967,24.835a7.007,7.007,0,0,0,.986-1.224c.257-.366.3-.82-.012-.814-.522-.022-2.319,2.115-.975,2.038" transform="translate(110.042 23.341)" fill="#35acdf"/>
        <path id="Tracé_7552" data-name="Tracé 7552" d="M28.311,86.962c2.283-1.72,4.776-5.218,6.669-7.63C42.843,68.345,50.1,56.359,54.5,43.5c.623-2.155.233-2.024-.761-.1-2.8,5.774-5.351,12.01-8.484,17.672A164.568,164.568,0,0,1,31.566,81.852c-.858,1.326-3.246,4.058-3.277,5.11Z" transform="translate(28.964 42.925)" fill="#35acdf"/>
        <path id="Tracé_7553" data-name="Tracé 7553" d="M42.319,45.743c3.611-2.613,7-6.049,10.99-8.2.751-.55,2.674-1.449,2.846-2.18a6.381,6.381,0,0,0-2.483.84,36.909,36.909,0,0,0-9.97,7.474A14.44,14.44,0,0,0,42.374,45.3c-.2.312-.237.47-.1.449Z" transform="translate(43.199 36.205)" fill="#35acdf"/>
        <path id="Tracé_7554" data-name="Tracé 7554" d="M45.269,71.549a36.379,36.379,0,0,1,11.1-2.959c.346-.091,1.154-.142,1.117-.4a5.4,5.4,0,0,0-1.939-.148c-3.552.332-7.6,1.148-10.279,3.5" transform="translate(46.349 69.638)" fill="#35acdf"/>
        <path id="Tracé_7555" data-name="Tracé 7555" d="M155.731,37.375c-.506-.01-1.012-.018-1.518-.014-.86.034-1.483.032-.708-.587a27.245,27.245,0,0,0,10.336-19.18c-.036-.342-.249-.415-.605-.255-3.683,2.079-7.529,4.145-11.362,6-11.5,5.622-23.44,10.214-35.43,14.819-16,6.151-32.066,12.277-46.794,20.639a33.857,33.857,0,0,0-5.341,4.1c-3.364,3.349-5.147,7.77-7.44,11.8A145.57,145.57,0,0,1,34.7,104.808a3,3,0,0,0-.413.494c-.049.091-.038.148.016.2,1.265.773,12.267,7.369,15.525,9.332.828.48.838.7,1.645.146,4.778-2.795,9.99-2.848,15.869-1.148,4.568,1.226,8.1,4.712,11.585,7.685,5.713,4.418,10.805,9.656,16.582,14.021a86.612,86.612,0,0,0,8.2,5.489c.459.253.828.249,1-.312.542-2.5,1.168-5.151.49-7.61a28.255,28.255,0,0,0-2.595-5.321c.144-.15.842.427,1.16.587.911.787,8.334,3.647,8.391,1.915a33.291,33.291,0,0,0-5.278-9.887c3.5,1.8,7.541,3.807,11.635,4.41.775.146.805-.342.524-.927a50.432,50.432,0,0,0-5.214-9.368c-.235-.352-.409-.682.164-.561,4.151,1.113,8.784.1,12.961-.589.449-.087.591-.176.188-.437a26.36,26.36,0,0,1-4.428-3.23c-1.259-1.307-3.214-2.918-3.72-4.6.053-.107.2-.162.413-.186a15.392,15.392,0,0,0,3.414-.419c4.774-1.3,9.735-3.424,13.345-6.843.02-.306-.429-.352-.7-.439a60.157,60.157,0,0,1-6.673-2.742c-.613-.255-.437-.409.045-.712,6.909-4.127,11.961-10.878,15.993-17.79.779-1.253-1.174-1.313-1.955-1.856a37.729,37.729,0,0,0-5.383-2.534c-.593-.2-.733-.4-.034-.569,7.053-1.935,19.395-8.729,21.083-15.867.049-.383-.176-.569-.644-.565-3.8.227-8.124.559-11.6-1.089a16.519,16.519,0,0,0,11.206-6.357c1.979-2.651,3.928-6.4,4.023-9.672a.505.505,0,0,0-.33-.15,38.3,38.3,0,0,1-5.452.061" transform="translate(35.077 17.67)" fill="#fff"/>
        <path id="Tracé_7556" data-name="Tracé 7556" d="M101.48,20.546a13.3,13.3,0,0,0-1.971,3,25.093,25.093,0,0,1-6.549,8.344,38.233,38.233,0,0,0-3.26,2.676c-.376.415-.468.708-.247.826,5.794-.4,9.988-7.413,11.858-12.222.164-.506,1.018-2.945.227-2.661Z" transform="translate(91.466 20.974)" fill="#35acdf"/>
        <path id="Tracé_7557" data-name="Tracé 7557" d="M104.318,28.057c-1.3.9-2.615,2.937-3.744,4.234-3.475,4.651-8.8,7.442-13.536,10.524-1.2.976-.561,1.184.6.9,7.009-2.277,13.989-8.209,16.867-14.971.172-.548.125-.8-.128-.71Z" transform="translate(88.457 28.684)" fill="#35acdf"/>
        <path id="Tracé_7558" data-name="Tracé 7558" d="M104,36.456c-1.643.848-3.372,3.005-4.823,4.37-3.973,4.331-9.6,6.863-14.92,9.113-1.443.8-.789,1.081.472.939,7.438-1.309,14.171-6.521,18.6-12.384.334-.544,1.3-1.923.723-2.046Z" transform="translate(85.433 37.318)" fill="#35acdf"/>
        <path id="Tracé_7559" data-name="Tracé 7559" d="M95.222,46.454a21.41,21.41,0,0,0-2.894,3.7c-3.424,5.616-8.638,8.9-13.783,12.69-.534.488-.71.81-.474.9,6.841-1.34,14.325-9.29,17.019-15.319.229-.579.965-2.327.19-2.006Z" transform="translate(79.83 47.484)" fill="#35acdf"/>
        <path id="Tracé_7560" data-name="Tracé 7560" d="M88.2,56.552c-4.129,3.542-9.241,5.428-14.325,7.237-.419.213-.587.38-.463.482,4.4.478,13.117-3.6,14.784-7.719" transform="translate(75.12 57.902)" fill="#35acdf"/>
        <path id="Tracé_7561" data-name="Tracé 7561" d="M84.467,63.108a23.578,23.578,0,0,1-12.1.036,11.191,11.191,0,0,0-2.2-.324c-.423.006-.631.117-.585.316,2.271,3,13.119,3.841,14.888-.032" transform="translate(71.235 64.32)" fill="#35acdf"/>
        <path id="Tracé_7562" data-name="Tracé 7562" d="M78.552,70.807a9.634,9.634,0,0,0-2.07-1.125c-2.574-1.014-4.79-2.918-7.337-3.9-1.382-.188.33,1.506.741,1.819a16.078,16.078,0,0,0,8.5,3.568c.279-.03.358-.136.225-.3Z" transform="translate(70.253 67.337)" fill="#35acdf"/>
        <path id="Tracé_7563" data-name="Tracé 7563" d="M74.986,75.333A6.822,6.822,0,0,0,73.4,73.753c-2.374-1.684-4.27-4.161-6.744-5.614-.573-.188-.482.285-.3.686,1.526,2.647,4.234,4.608,6.8,6.268.378.2,1.967,1.067,1.856.328" transform="translate(67.802 69.721)" fill="#35acdf"/>
        <path id="Tracé_7564" data-name="Tracé 7564" d="M67.376,68.331c-.611-.7-1.666-2.376-2.611-2.556-.84.417.605,1.783,1.036,2.228.293.366,1.666,1.35,1.625.453Z" transform="translate(66.047 67.345)" fill="#35acdf"/>
        <path id="Tracé_7565" data-name="Tracé 7565" d="M68.788,69.4c-.882-.755-1.39-2-2.331-2.637a.229.229,0,0,0-.289.049c-.5.6,2.246,4.181,2.619,2.589" transform="translate(67.684 68.32)" fill="#35acdf"/>
        <path id="Tracé_7566" data-name="Tracé 7566" d="M69.322,65.086c-.478-.285-1.617-.973-1.89-.2-.018.874,2.36,1.88,1.955.348" transform="translate(69.041 66.069)" fill="#35acdf"/>
        <path id="Tracé_7567" data-name="Tracé 7567" d="M94.336,21.544A14.119,14.119,0,0,0,91.8,24.885c-.362,1.647,1.437.37,1.767-.346.461-.8,1.992-2.368.769-2.993" transform="translate(93.942 22.058)" fill="#35acdf"/>
        <path id="Tracé_7568" data-name="Tracé 7568" d="M95.557,37.09c-2.467,2.595-5.59,4.6-8.484,6.707-.666.771.826.273,1.208.138,2.5-1.016,7.527-3.9,7.274-6.841" transform="translate(88.978 37.975)" fill="#35acdf"/>
        <path id="Tracé_7569" data-name="Tracé 7569" d="M86.967,40.99c-.336.219-1.963.939-1.483,1.417.532.156,1.585-.522,1.987-.9.314-.344-.008-.68-.364-.567Z" transform="translate(87.434 41.896)" fill="#35acdf"/>
        <path id="Tracé_7570" data-name="Tracé 7570" d="M86.485,46.351a11.02,11.02,0,0,0-2.951,3.667c.026,1.184,1.9-.455,2.285-.9.646-.731,1.546-1.684,1.231-2.676a.338.338,0,0,0-.443-.138Z" transform="translate(85.528 47.376)" fill="#35acdf"/>
        <path id="Tracé_7571" data-name="Tracé 7571" d="M82.416,49.885c-.619.5-.075.727.551.378.686-.279,1.265-1.16.984-1.36-.144-.125-.49.043-.818.31-.486.33-.907.878-.779.888.085-.008.334-.257.138-.253Z" transform="translate(84.104 50.027)" fill="#35acdf"/>
        <path id="Tracé_7572" data-name="Tracé 7572" d="M73.515,59.948a12.028,12.028,0,0,0,6.2-.878c.391-.17.9-.613.206-.682a28.957,28.957,0,0,0-4.232.585c-1.283.168-2.882.506-2.273.929Z" transform="translate(75.027 59.782)" fill="#35acdf"/>
        <path id="Tracé_7573" data-name="Tracé 7573" d="M125.433,41.637c-2.591.664-5.473.654-8.158.961a1.9,1.9,0,0,0-1.117.625,36.811,36.811,0,0,1-5.495,5.91c-.128.113-.227.2-.261.227a35.949,35.949,0,0,0,3.1-2.953,28.051,28.051,0,0,0,2.6-3.173c.069-.13.091-.229.051-.287-2.844.176-5.734,2.056-7.905,3.9a18.5,18.5,0,0,1,7.83-4.084,2.222,2.222,0,0,0,.984-.868,34.066,34.066,0,0,0,5.6-16.157c.018-.532-.235-.633-.648-.429-8.294,4.3-16.782,8.306-25.408,11.912-13.117,5.606-27.942,9.229-37.557,20.312a51.169,51.169,0,0,0-10.03,15.976,95.893,95.893,0,0,1-6.922,13.6c-2.431,4.655-5.96,7.585-9.035,12.018-.555.763-.241.623.571,1.237,4.276,2.914,10.344,7.181,14.007,9.63,3.26-.233,6.3-2.022,9.257-3.339A41.2,41.2,0,0,1,84.322,104.1a18.215,18.215,0,0,1,5.189,2.3.7.7,0,0,0,.546.119.663.663,0,0,0,.342-.441,17.04,17.04,0,0,0,.028-10.218c-.461-1.247-1.73-1.925-2.548-2.943-.923-1.022.13.168.68.714.514.5,1.927,1.977,1.1.389a14.342,14.342,0,0,0-1.712-2.589c.9.882,1.649,2.688,2.419,3.756a26.581,26.581,0,0,0,13.343,5.936c.5.049.678-.156.534-.644A27.247,27.247,0,0,0,97.3,89.607c-1.285-1.042-3.109-.988-4.586-1.7-.482-.18-1.1-.435-1.073-.425a22.1,22.1,0,0,0,4.578,1.439c.107,0,.158-.032.136-.1a19.6,19.6,0,0,0-3.43-2.7c1.36.731,2.771,2.344,4.212,2.993,5.491,1.089,13.823.526,18.065-3.408.026-.121-.071-.2-.267-.259a29.073,29.073,0,0,1-3.242-.672c-3.5-.832-6.375-2.983-9.227-5.021-1.273-.111-2.965.3-4.248.067,1,.049,2.918.2,3.888-.285.215-.19-.16-.567-.516-.955-.4-.445-.824-1-1.069-1.318.259.3,1.39,1.965,2.062,2.1,1.394.067,2.777-.761,4.078-1.237,6.319-3.074,12.943-8.466,14.938-14.971.091-.352.15-.818-.378-.791a33.289,33.289,0,0,1-7.47.1,31.045,31.045,0,0,1-7.306-1.7,3.028,3.028,0,0,0-1.977.1c-.162.03,1.2-.269.753-.54-.716-.4-2.06-.971-2.742-1.386,1.156.526,2.609,1.706,3.967,1.3,8.573-2.809,17.751-9.081,19.051-18.526" transform="translate(33.56 25.816)" fill="#85dcff"/>
        <path id="Tracé_7574" data-name="Tracé 7574" d="M87.5,34.622c-1.587.967-3.3,3.052-4.758,4.428-4.491,4.76-10.656,7.529-16.179,10.769-1.34.967-.465.978.7.666,7.766-2.578,16.294-8.148,20.449-15.258.231-.536.172-.759-.156-.629Z" transform="translate(67.459 35.387)" fill="#35acdf"/>
        <path id="Tracé_7575" data-name="Tracé 7575" d="M85.3,44.738c-1.66.773-3.437,2.795-4.928,4.08-4.357,4.323-10.279,6.816-15.768,9.3-1.38.8-.65.943.506.759A36.275,36.275,0,0,0,84.738,46.62c.35-.518,1.376-1.909.625-1.9Z" transform="translate(65.377 45.791)" fill="#35acdf"/>
        <path id="Tracé_7576" data-name="Tracé 7576" d="M61.3,54.2c2.546,4.491,9.1,5.165,13.979,4.6.854-.168,2.352-.312,2.771-.951.02-.146-.192-.267-.6-.35-3.967-.4-8.2.253-11.949-1.69-1.05-.482-2.358-1.267-3.331-1.651-.522-.2-.826-.213-.864-.012" transform="translate(62.764 55.286)" fill="#35acdf"/>
        <path id="Tracé_7577" data-name="Tracé 7577" d="M59.718,56.474c1.131,3.285,3.744,5.665,6.715,7.525.538.528,4.977,2.433,3.226.417-1.524-1.338-3.623-2.261-5.246-3.524-2.016-1.477-3-3.137-4.691-4.42" transform="translate(61.143 57.82)" fill="#35acdf"/>
        <path id="Tracé_7578" data-name="Tracé 7578" d="M50.675,63.028c1.3.427,3.386.107,4.863.069a26.943,26.943,0,0,1,10.134,1.071,29.773,29.773,0,0,0,4.05,1.1c.615.077.957,0,.965-.215-3.113-3.8-11.5-3.914-16.209-3.3a15.7,15.7,0,0,0-3.374.779c-.439.186-.605.354-.47.476" transform="translate(51.796 62.937)" fill="#35acdf"/>
        <path id="Tracé_7579" data-name="Tracé 7579" d="M52.722,62.613a9.593,9.593,0,0,0-6.786,1.734c-.4.287-.729.808.03.676,1.965-.54,4.07-1.305,6.088-1.789.3-.121.978-.293.741-.579Z" transform="translate(46.595 64.033)" fill="#35acdf"/>
        <path id="Tracé_7580" data-name="Tracé 7580" d="M51.1,61.562a14.67,14.67,0,0,0-1.72.336c-1.245.348-.52.735.346.522.413-.107,2.238-.176,1.37-.856" transform="translate(49.872 63.031)" fill="#35acdf"/>
        <path id="Tracé_7581" data-name="Tracé 7581" d="M60.933,56.654a3.959,3.959,0,0,0,1.959,2.085c.694.132.413-.378-.036-.769-.587-.368-1.176-2.079-1.921-1.316" transform="translate(62.387 57.808)" fill="#35acdf"/>
        <path id="Tracé_7582" data-name="Tracé 7582" d="M60.076,56.6c-.589-.579-1.109-1.929-1.751-2.265-.678.3,1.212,3.384,1.745,2.265" transform="translate(59.569 55.637)" fill="#35acdf"/>
        <path id="Tracé_7583" data-name="Tracé 7583" d="M39.082,68.574c1.39-1.117,2.408-3.645,3.265-5.365C44.421,58.56,46.1,53.82,48.883,49.57A49.072,49.072,0,0,0,51.523,45.2c1.382-3.449-3.633,2.271-3.938,3.05C44.6,52.774,42.662,57.8,40.533,62.784a30.4,30.4,0,0,0-1.66,4.892c-.115.642-.059.965.166.913Z" transform="translate(39.742 45.159)" fill="#35acdf"/>
        <path id="Tracé_7584" data-name="Tracé 7584" d="M46.055,48.188a8.414,8.414,0,0,0,2.034-2.01c1.834-2.558,4.479-4.406,6.5-6.742.85-1.473-1.524-.172-1.983.188-2.69,2.1-5.74,4.853-6.916,8.185-.049.322.057.468.285.4Z" transform="translate(46.767 39.675)" fill="#35acdf"/>
        <path id="Tracé_7585" data-name="Tracé 7585" d="M44.691,53.871c.967-.581,1.676-2.074,2.344-3.06,1.666-3.169,4.477-5.614,6.616-8.383.779-1.455-1.04-.455-1.6.01a28.8,28.8,0,0,0-7.332,10.04c-.14.447-.506,1.279-.091,1.4Z" transform="translate(45.499 42.663)" fill="#35acdf"/>
        <path id="Tracé_7586" data-name="Tracé 7586" d="M50.7,42.207c.478-.352,1.267-.874,1.443-1.492.006-.917-1.273-.257-1.6.184-.524.409-.967,1.615.04,1.368Z" transform="translate(51.173 41.215)" fill="#35acdf"/>
        <path id="Tracé_7587" data-name="Tracé 7587" d="M44.527,48.552c-.411.785-1.4,2.139-1.247,3.086.65.893,1.3-1.04,1.5-1.562.225-.508.7-1.834-.152-1.611Z" transform="translate(44.296 49.596)" fill="#35acdf"/>
        <path id="Tracé_7588" data-name="Tracé 7588" d="M49.885,45.414a17.455,17.455,0,0,1,1.971-1.585c.354-.245,1.441-.882.836-1.259-1.2-.115-2.894,1.611-3.248,2.665-.04.257.085.362.32.247Z" transform="translate(50.616 43.581)" fill="#35acdf"/>
        <path id="Tracé_7589" data-name="Tracé 7589" d="M80.561,27.429c-1.769,6.187-4.515,11.5-9.617,15.483a32.209,32.209,0,0,0-3.022,2.757c-.973,1.135-.235,1.143.862.684,6.687-3.169,13.382-11.587,11.777-18.921" transform="translate(69.079 28.084)" fill="#35acdf"/>
        <path id="Tracé_7590" data-name="Tracé 7590" d="M75.317,45.066c-2.052,1.658-4.483,2.914-6.652,4.392-.38.366-.02.4.334.348,2.145-.522,5.962-2.386,6.319-4.738" transform="translate(70.137 46.142)" fill="#35acdf"/>
        <path id="Tracé_7591" data-name="Tracé 7591" d="M68.878,47.456c-.431.362-3.143,1.575-1.649,2,.779.178,3.532-1.743,1.647-2" transform="translate(68.378 48.589)" fill="#35acdf"/>
        <path id="Tracé_7592" data-name="Tracé 7592" d="M76.474,34.964c-1.585.753-2.823,2.277-4.374,3.246a3.936,3.936,0,0,0-.822.8c-.257.409.051.5.439.435a10.044,10.044,0,0,0,4.467-2.993c.231-.3,1.056-1.38.4-1.5Z" transform="translate(72.883 35.786)" fill="#35acdf"/>
        <path id="Tracé_7593" data-name="Tracé 7593" d="M71.336,37.5c-.512.415-1.672.822-1.876,1.506-.02.654,1.3.33,1.775-.113.927-.573,1.32-1.7.241-1.457Z" transform="translate(71.118 38.291)" fill="#35acdf"/>
        <path id="Tracé_7594" data-name="Tracé 7594" d="M74.424,28.891A51.932,51.932,0,0,0,69.4,32.342c-.3.6.65.4.99.3,1.111-.4,5.167-2.325,4.036-3.746" transform="translate(70.999 29.581)" fill="#35acdf"/>
        <path id="Tracé_7595" data-name="Tracé 7595" d="M69.967,30.939c-.593.067-3.544.945-3.194,1.767.271.478,4.392-1.332,3.321-1.765Z" transform="translate(68.338 31.677)" fill="#35acdf"/>
        <path id="Tracé_7624" data-name="Tracé 7624" d="M7.456,72.637a21.3,21.3,0,0,1-1.858-9.5c.063-3.43,1.953-6.495,4.143-8.943,2.813-2.9,5.545-6.46,5.618-10.672.34-3.576-2.512-8.045-6.58-7.363-3.969,1.174-5.43,6.088-6.77,9.5-.283.84-.85.9-1.1-.018-2.172-8.535,4.179-18.132,13.481-13.9,7.741,3.694,6.82,14.671,1.933,20.334a40.5,40.5,0,0,1-4.119,4.048c-5.1,3.892-5.5,9.951-4.41,15.756.026.291.032.836-.265.805Z" transform="translate(0.497 31.439)" fill="#35acdf"/>
        <path id="Tracé_7625" data-name="Tracé 7625" d="M1.921,36.428c1.152-.389,3.6-2.39,5.381-2.3,3.732-.2,6.444,3.639,6.569,7.124.318,4.544-2.787,8.144-5.288,11.84a17.972,17.972,0,0,0-1.975,3.793c-.152.512-.111.769.111.737,1.445-.69,3.566-3.971,4.847-5.728,2.647-3.594,4.9-8.055,3.813-12.619-1.214-5.525-6.713-9.134-10.708-6.181-1,.745-2.746,2.346-2.775,3.327Z" transform="translate(1.942 32.8)" fill="#35acdf"/>
        <path id="Tracé_7626" data-name="Tracé 7626" d="M9.8,36.443a23.133,23.133,0,0,1-.969,4.714,2.14,2.14,0,0,0-.065.84c.091.33.362.2.567.006.925-.761,2.265-5.232.463-5.56" transform="translate(8.961 37.313)" fill="#35acdf"/>
        <path id="Tracé_7627" data-name="Tracé 7627" d="M9.074,35.517c.787-.261.332-1.1-.285-.729-.31.293-.109.621.285.723" transform="translate(8.843 35.525)" fill="#35acdf"/>
        <path id="Tracé_7628" data-name="Tracé 7628" d="M8.741,69.422c5.222-3.273,9.449-7.842,13.173-12.744,4.127-5.351,8.939-10.917,10.65-17.644,1.471-6.165.739-14.535-7.46-14.321-4.125.176-6.974,4.068-6.733,8.057-.014.508.263,1.063.1,1.534-.316.561-.85-.326-1.058-.6-2.19-3.179-1.38-7.885,1.17-10.53,3.752-4.218,11.376-4.392,15.829-.842,3.681,2.789,4.349,7.417,3.91,11.684-.868,9.82-7.757,17.5-14.309,24.189-4.293,4.5-8.858,8.873-14.616,11.433-.342.123-.688.059-.68-.121Z" transform="translate(8.923 20.302)" fill="#35acdf"/>
        <path id="Tracé_7629" data-name="Tracé 7629" d="M14.153,23.981c1.346-.107,4.392-1.222,6.262-1.117,11.34.741,7.063,15.122,3.086,21.52-.627,1.176-1.407,2.6-1.862,3.732-.31.773-.348,1.188-.093,1.146.949-.407,2.382-2.552,3.094-3.681,3.868-6.656,8.292-17.79.741-22.908-2.848-1.811-7.138-1.324-9.864.235-1.184.611-1.73,1.042-1.4,1.073Z" transform="translate(14.355 22.024)" fill="#35acdf"/>
        <path id="Tracé_7630" data-name="Tracé 7630" d="M17.822,39.721A37.555,37.555,0,0,0,23.1,33.55c.15-.3.514-.848.31-1.022-1.89,1.216-3.109,3.655-4.653,5.349a5.012,5.012,0,0,0-.931,1.848" transform="translate(18.247 33.304)" fill="#35acdf"/>
        <path id="Tracé_7631" data-name="Tracé 7631" d="M15.678,22.5a18.661,18.661,0,0,1,7.112-.575c.328,0,.99.067,1-.257-1.741-1.5-6.77-1.1-8.11.822" transform="translate(16.052 21.25)" fill="#35acdf"/>
        <path id="Tracé_7632" data-name="Tracé 7632" d="M20.674,23.028c.31.132,1.054.591,1.255.241.3-.733-1.056-1.643-1.556-1a.5.5,0,0,0,.158.676" transform="translate(20.787 22.578)" fill="#35acdf"/>
        <path id="Tracé_7633" data-name="Tracé 7633" d="M16.92,74.375c4.23-3.076,8.494-6.824,12.558-10.289C39.26,55.114,52,45.324,56.882,32.568c1.463-4.479,2.635-12.42-3.012-14.345-4.531-1.133-8.666,2.649-8.5,7.419,0,.338,0,1-.249,1.152-.1.057-.225.02-.36-.1-1.263-1.674-1.328-4.127-.85-6.13,1.656-6.537,10.348-8.816,15.468-5,4.62,3.368,5.44,9.587,3.987,14.851C58.875,45.338,42.567,56.587,30.7,65.656c-4.068,2.793-8.051,6.108-12.388,8.468-.629.391-1.431.587-1.413.318Z" transform="translate(17.305 14.036)" fill="#35acdf"/>
        <path id="Tracé_7634" data-name="Tracé 7634" d="M32.264,20.343c1.042-3.115,5.278-4.7,7.984-2.708,1.631,1.176,2.21,3.214,2.479,5.106,1.483,10.415-5.523,18.7-12.352,25.837-.239.389.271.662.577.344,8.423-6.231,14.612-16.62,13.056-26.664-.427-2.805-1.8-5.515-4.835-6.254a5.574,5.574,0,0,0-6.954,3.72c-.042.142-.081.285-.111.431l.008.271c-.1.008.184-.012.13-.028Z" transform="translate(31.038 16.139)" fill="#35acdf"/>
        <path id="Tracé_7635" data-name="Tracé 7635" d="M38.036,17.894a10.481,10.481,0,0,0,.087,2.046c.387,2.736-.48,5.549-.528,8.261.308,1.176,1.267-.973,1.4-1.413a11.857,11.857,0,0,0-.644-8.921c-.136-.18-.235-.2-.287-.047Z" transform="translate(38.492 18.141)" fill="#35acdf"/>
        <path id="Tracé_7636" data-name="Tracé 7636" d="M37.713,25.361c.787-.261.332-1.1-.285-.729-.31.3-.109.621.285.723" transform="translate(38.166 25.126)" fill="#35acdf"/>
        <path id="Tracé_7637" data-name="Tracé 7637" d="M38.826,40.81c-.168-.308-.33-.433-.468-.115a15.848,15.848,0,0,1-7.934,8.648A1.307,1.307,0,0,0,29.8,50a17.114,17.114,0,0,1-2.7,5.4,13.123,13.123,0,0,0,2.641-5.588c-.178-.146-1.647.662-1.817.66.623-.314,1.977-.526,2.107-1.435a15.3,15.3,0,0,0-2.38-12.323c-.326-.423-.409-.18-.449.31-.986,7.347-7.632,12.016-13.691,15.333C5.96,55.619-.377,61.887,4.3,70.422c4.025,8.423,15.669,10.227,23.513,5.938,3.813-1.973,6.3-5.169,8.336-8.869.259-.455.194-.5.115-.976-.178-1.071-.579-3.491-.8-4.817-.13-.868-.291-.878.277-1.407a17,17,0,0,0,3.08-19.48" transform="translate(2.765 37.361)" fill="#35acdf"/>
        <path id="Tracé_7638" data-name="Tracé 7638" d="M11.5,53.357c-5.887-6.333-10.619.2-9.909,6.9.184,2.325.969,4.958,1.919,5.169a.936.936,0,0,0,.864-.233,13.7,13.7,0,0,0,2.269-3.548C8.17,58.825,9.83,56.087,11.5,53.357" transform="translate(1.556 51.995)" fill="#fff"/>
        <path id="Tracé_7639" data-name="Tracé 7639" d="M11.923,58.947A10.407,10.407,0,0,1,4.8,60.759c-1.716-.134-2.327-1.265-1.785-2.839.66-2.01,1.514-4.932,3.113-5.746,3.133-.753,5.258,4.293,5.79,6.772" transform="translate(2.887 53.341)" fill="#fff"/>
        <path id="Tracé_7640" data-name="Tracé 7640" d="M13.512,46.146c-2.068.805-4.145,1.662-5.3,3.6-1.044,1.684-2.356,4.505,1.275,3.621a6.06,6.06,0,0,0,4.892-5.09c.2-.969.065-1.911-.874-2.129" transform="translate(7.265 47.247)" fill="#eae547"/>
        <path id="Tracé_7641" data-name="Tracé 7641" d="M3.183,64.041c.992-.654,1.473-2.214,2.014-3.293,1.148-3.04,3.493-5.44,5.315-8.039.648-1.6-1.8.136-2.228.53-2.663,2.459-5.1,5.689-5.841,9.316-.077.64-.091,1.7.654,1.524Z" transform="translate(2.465 53.287)" fill="#35acdf"/>
        <path id="Tracé_7642" data-name="Tracé 7642" d="M6.986,54.671c1.237-1.036,2.263-2.993,3.6-4.078,2.03-1.923,4.969-2.754,7-4.685,4.092-4.884-8.711,3.131-8.895,4.6A11.628,11.628,0,0,0,6.878,54.06c-.109.427-.085.65.061.625Z" transform="translate(6.973 45.407)" fill="#35acdf"/>
        <path id="Tracé_7643" data-name="Tracé 7643" d="M17.249,46.1c1.741.077,5.39-2.372,5.135-4.392-.164-.283-.668-.049-1.182.484a13.729,13.729,0,0,1-2.056,1.9c-.4.374-2.789,1.457-2,1.985Z" transform="translate(17.395 42.579)" fill="#35acdf"/>
        <path id="Tracé_7644" data-name="Tracé 7644" d="M17.651,45.306c.5,0,1.749-.888.945-1.318-.524-.1-1.425.563-1.307,1.046.038.138.1.289.273.277Z" transform="translate(17.69 45.028)" fill="#35acdf"/>
        <path id="Tracé_7645" data-name="Tracé 7645" d="M8.58,56.975c2.01,2.595,7.832,1.158,10.34-.273.47-.231,2.453-1.625.951-1.5-2.856.731-5.916,2.087-8.858,1.641-.714-.012-1.927-.378-2.419.079Z" transform="translate(8.785 56.513)" fill="#35acdf"/>
        <path id="Tracé_7646" data-name="Tracé 7646" d="M11.424,56.155A5.984,5.984,0,0,0,15.959,55.1c1.125-1.253-.814-.775-1.443-.447a19.01,19.01,0,0,1-2.046.64c-.757.223-1.113.372-1.05.868" transform="translate(11.685 55.58)" fill="#35acdf"/>
        <path id="Tracé_7647" data-name="Tracé 7647" d="M13.912,53.855c.109.008.277-.31.223-.227-.077-.267-.3-.322-.439-.184-.184.117.055.273.115.4" transform="translate(13.952 54.645)" fill="#35acdf"/>
        <path id="Tracé_7648" data-name="Tracé 7648" d="M26.557,45.012c8.875,17.565,18.951,27.759,37.407,35.049,11.72,4.2,22.5,9.411,27.98,21.184,1.874,4.618,1.269,10.036.836,15.422-.4,8.735-8.126,13.084-15.869,14.831-22.679,5.031-47.567-9.356-51.86-31.72a118.426,118.426,0,0,1-1.957-15.147c-.68-8.782-2.471-16.42-12.41-18" transform="translate(10.939 46.086)" fill="#35acdf"/>
        <path id="Tracé_7649" data-name="Tracé 7649" d="M80.478,97c2.595-.486,10.888-2.6,8.373-4.533-2.129-1.012-5.163-1.192-7.462-2.3-5.228-2.277-9.3-6.926-12.989-11.427-2.141-2.453-4.048-5.709-7.468-6.088-4.859-.219-10.471,2.669-13.944,6.278-4.115,4.339-5.758,9.982-7.235,15.725C38.63,99.8,37.6,102.711,42.763,103.8c6.958,1.532,14.849,1.069,21.421,3.339,3.329.933,7.213,4.351,8.988,4.374a1.48,1.48,0,0,0,.984-.3c.8-.623,1.2-1.684,1.925-2.408,2.394-2.457,7.719,1.886,10.822,2.1,6.687,1.139,2.315-5.576-.967-8.915a62.315,62.315,0,0,0-5.458-5.005" transform="translate(39.764 74.371)" fill="#35acdf"/>
        <path id="Tracé_7652" data-name="Tracé 7652" d="M47.844,71.266c-.138.217.623,1.662,1.856,3.517a105.6,105.6,0,0,0,8.553,11.854c3.026,3.044.735-1.287-1.481-4.092-2.566-3.339-4.89-6.873-7.523-10.115-.421-.431-.988-1.212-1.388-1.19Z" transform="translate(48.97 72.939)" fill="#35acdf"/>
        <path id="Tracé_7653" data-name="Tracé 7653" d="M54.688,80.231a8.489,8.489,0,0,0,4.96,4.782c.68.2,1.1-.154.548-.777-.935-1.018-2.289-1.8-3.26-2.811-.907-.88-2.01-1.949-2.244-1.3Z" transform="translate(55.993 81.834)" fill="#35acdf"/>
        <path id="Tracé_7654" data-name="Tracé 7654" d="M50.377,77.888c1.569,3.667,5.2,6.786,8.638,8.816.7.447,3.315,1.307,1.917-.306-2.546-2.244-5.612-4.046-7.871-6.654a15.287,15.287,0,0,0-2.145-1.915c-.334-.208-.526-.215-.538-.008Z" transform="translate(51.579 79.524)" fill="#35acdf"/>
        <path id="Tracé_7655" data-name="Tracé 7655" d="M49.063,75.713a3.905,3.905,0,0,0,1.512,2.924c.413.2.838.057.69-.478-.206-.662-.779-1.346-1.032-2.022-.251-.591-.65-.941-1.172-.429" transform="translate(50.232 77.263)" fill="#35acdf"/>
        <path id="Tracé_7656" data-name="Tracé 7656" d="M50.8,80.63a7.025,7.025,0,0,0,3.455,3.228c.445.176.945.057.587-.461a10.931,10.931,0,0,0-1.664-1.544c-.522-.366-2.012-2.048-2.384-1.326Z" transform="translate(52.001 82.267)" fill="#35acdf"/>
        <path id="Tracé_7657" data-name="Tracé 7657" d="M22.3,54.023c2.562,3.475,6.618,6.373,10.18,8.838,1.6,1.032,3.394,1.518,1.1-.638-3.188-2.706-6.557-5.367-9.921-7.865-.4-.225-1.386-.933-1.378-.4Z" transform="translate(22.81 55.046)" fill="#35acdf"/>
        <path id="Tracé_7658" data-name="Tracé 7658" d="M25.921,58.851a15.953,15.953,0,0,0,3.853,2.607c1.627.045-1.135-1.834-1.627-2.115-.49-.342-2.346-1.7-2.289-.6Z" transform="translate(26.475 59.715)" fill="#35acdf"/>
        <path id="Tracé_7659" data-name="Tracé 7659" d="M48.371,95.8c-1.639-1.811-2.2,1.866-2.206,3.036a43.546,43.546,0,0,0,.919,10.5,6.851,6.851,0,0,0,2.006,3.857c1.8,1.54,3.752.164,3.471-2.137-.372-2.957-1.791-6.274-2.317-9.326-.387-1.945-.941-4.685-1.8-5.823" transform="translate(47.241 97.579)" fill="#eae547"/>
        <path id="Tracé_7660" data-name="Tracé 7660" d="M47.778,95.306c-1.216,1.706-1.84,5.224-2.226,7.47-.3,2.259-.85,4.857.049,6.357.64,1.1,2.463,2.2,3.562,1.166,1.02-.8.067-5.466-.121-8.237-.168-1.611-.33-3.2-.463-4.467-.166-1.678-.366-2.595-.745-2.329Z" transform="translate(46.186 97.493)" fill="#eae547"/>
        <path id="Tracé_7661" data-name="Tracé 7661" d="M56.681,104.186a28.6,28.6,0,0,1-6.1-5.875c-.739-.988-2.129-2.959-3.269-2.595-.9.623-.4,2.3-.022,3.246,1.538,3.007,3.1,7.187,6.624,8.185,1.771.3,2.5-1.484,2.765-2.967" transform="translate(47.927 97.956)" fill="#eae547"/>
        <path id="Tracé_7662" data-name="Tracé 7662" d="M59.644,87.892c-16.314,1.534-2.309,6.177-7.753,11.344-1.22,1.307-6.843,3.534-5.25,5.624,2.969,1.492,9.3-1.386,12.076-3.024,5.165-3.119,2.17-9.417.935-13.942" transform="translate(47.465 89.99)" fill="#eae547"/>
        <path id="Tracé_7663" data-name="Tracé 7663" d="M43.891,85.285c3.683,4.691,7.079,10.423,12.2,13.463,2.694,1.767,6.6,1.6,7.537-2.014,1.018-4.647.049-9.686.1-14.44" transform="translate(44.939 84.258)" fill="#35acdf"/>
        <path id="Tracé_7664" data-name="Tracé 7664" d="M46.408,86.348a18.418,18.418,0,0,0,8.484,8.442c1.02.4,2.694,1.235,3.653.727-.308-.9-2.048-1.336-2.92-1.87-3.665-1.583-6.27-4.871-9.221-7.3" transform="translate(47.512 88.407)" fill="#35acdf"/>
        <path id="Tracé_7665" data-name="Tracé 7665" d="M53.484,95.177a11.4,11.4,0,0,0,1.868-8.154c-.059-.66-.708-2.473-1-.85a32.155,32.155,0,0,1-.9,7.341A8.088,8.088,0,0,0,53.2,95c0,.239.077.308.217.223Z" transform="translate(54.475 87.556)" fill="#35acdf"/>
        <path id="Tracé_7666" data-name="Tracé 7666" d="M38.636,97.59c-1.637-1.811-2.2,1.866-2.206,3.036a43.651,43.651,0,0,0,.921,10.5,6.838,6.838,0,0,0,2.006,3.857c1.8,1.54,3.752.164,3.469-2.137-.37-2.957-1.789-6.274-2.315-9.326-.387-1.945-.941-4.685-1.8-5.823" transform="translate(37.275 99.415)" fill="#eae547"/>
        <path id="Tracé_7667" data-name="Tracé 7667" d="M38.043,97.1c-1.216,1.706-1.84,5.224-2.226,7.47-.3,2.259-.85,4.857.049,6.357.64,1.1,2.463,2.2,3.562,1.166,1.02-.8.067-5.466-.121-8.237-.168-1.611-.33-3.2-.463-4.467-.166-1.678-.366-2.595-.745-2.329Z" transform="translate(36.218 99.328)" fill="#eae547"/>
        <path id="Tracé_7668" data-name="Tracé 7668" d="M46.891,106.382c-1.156-2.109-4.11-3.892-5.59-6.053a7.609,7.609,0,0,0-2.852-2.641c-4.129-.393,3.5,11.443,5.766,11.3,1.573.627,3.55-.668,2.748-2.447" transform="translate(38.134 100.01)" fill="#eae547"/>
        <path id="Tracé_7669" data-name="Tracé 7669" d="M49.909,89.685c-16.314,1.534-2.309,6.177-7.753,11.344-1.22,1.305-6.845,3.534-5.25,5.624,2.969,1.492,9.3-1.384,12.076-3.022,5.165-3.119,2.17-9.417.935-13.942" transform="translate(37.498 91.826)" fill="#eae547"/>
        <path id="Tracé_7670" data-name="Tracé 7670" d="M34.157,87.078c3.683,4.691,7.079,10.423,12.2,13.463,2.694,1.767,6.6,1.6,7.537-2.014,1.018-4.647.049-9.68.1-14.44" transform="translate(34.972 86.094)" fill="#35acdf"/>
        <path id="Tracé_7671" data-name="Tracé 7671" d="M43.8,88.319a18.553,18.553,0,0,0,.069,5.165c.692,2.091.876-1.455.767-2.157-.1-1.054.03-2.394-.836-3" transform="translate(44.693 90.427)" fill="#35acdf"/>
        <path id="Tracé_7672" data-name="Tracé 7672" d="M41.772,88.362a34.819,34.819,0,0,0,8.682.907c.3-.049.884-.073.814-.364-2.127-1.022-4.878-.81-7.219-1.02a3.426,3.426,0,0,0-2.275.482" transform="translate(42.769 89.949)" fill="#35acdf"/>
        <path id="Tracé_7673" data-name="Tracé 7673" d="M53.71,99.3a28.76,28.76,0,0,0-7.484-8.96C40.81,85.784,33.2,84.448,28.691,78.965a14.976,14.976,0,0,1-.455-10.722c-.148-.018-.589.308-.787.409a18.065,18.065,0,0,0-4.212,3.712A12.033,12.033,0,0,1,22.715,71c-1.069-2.777-2.8-5.59-5.632-6.8-.166-.051-.411-.213-.508-.134-.111.053-.071.348-.1.54a34.583,34.583,0,0,0,1.156,8.231c.146.528.664,1.05-.2.718a3.813,3.813,0,0,0-1.3-.2c-.156.109-.17.486-.077,1.054.488,3.094,3.382,9.725,4.307,13.655,1.649,12.852,21.514,24.991,35.264,24.618.289-.024.261-.52.348-.822.834-4.418-.192-8.508-2.283-12.568" transform="translate(16.38 65.577)" fill="#fff"/>
        <path id="Tracé_7674" data-name="Tracé 7674" d="M25.59,65.477c-4.582,1.821-5.622,10.866-.852,12.959.2-.03.245-.251.162-.633-1.546-3.781-2.372-7.057.111-10.767.208-.415.876-1.324.623-1.548Z" transform="translate(22.137 67.04)" fill="#35acdf"/>
        <path id="Tracé_7677" data-name="Tracé 7677" d="M85.193,29.66c-.289-2.2,5.414-5.968,6.978-3.892.569,2.6-2.582,4.685-5.054,4.659-.654,0-1.569-.04-1.882-.656Z" transform="translate(87.216 25.764)" fill="#35acdf"/>
        <path id="Tracé_7678" data-name="Tracé 7678" d="M78.251,51.509C79,49.7,82.123,48.735,83.884,49.7c1.2.718-.051,2.9-1.477,3.331-1.324.581-3.936.263-4.175-1.4Z" transform="translate(80.098 50.498)" fill="#85dcff"/>
        <path id="Tracé_7679" data-name="Tracé 7679" d="M61.6,70.779c1.524-2.283,6.07-.18,5.209,2.615-.949,2.453-5.59-.15-5.248-2.483Z" transform="translate(63.011 71.475)" fill="#35acdf"/>
        <path id="Tracé_7680" data-name="Tracé 7680" d="M21.842,19.951c-1.283-.494-2.257-2.236-1.079-3.412a2.034,2.034,0,0,1,2.085-.814,2.182,2.182,0,0,1-.862,4.26Z" transform="translate(20.716 16.054)" fill="#35acdf"/>
        <path id="Tracé_7681" data-name="Tracé 7681" d="M103.212,20.188c-.091-3.125,2.983-4.734,5.908-5.09,1.3-.239,3.773-.277,3.386.915-1.5,3.41-6.258,3.366-9.294,4.175" transform="translate(105.673 15.321)" fill="#fff"/>
        <path id="Tracé_7685" data-name="Tracé 7685" d="M56.626,84.324c.174.15.569.391.692.344.415-.093-.225-.64-.385-.785l-.342.032a.31.31,0,0,0-.038.348" transform="translate(57.866 85.885)" fill="#35acdf"/>
        <path id="Tracé_7686" data-name="Tracé 7686" d="M33.359,79.294c-3.155-.583-4.323-3.849-3.408-6.812.465-1.617,1.176-4.95,2.72-3.922,3.295,2.688.3,7.332.686,10.729" transform="translate(30.356 69.998)" fill="#fff"/>
        <path id="Tracé_7687" data-name="Tracé 7687" d="M31.838,78.8c.757-1.15,1.1-2.477,1.821-3.8a5.357,5.357,0,0,0,.621-2.807,5.064,5.064,0,0,0-2.765-3.758c-.844-.389-1.034-.059-.6.735.64,1.166,1.66,2.5,1.463,3.938-.138,1.872-1.951,3.641-1.384,5.513.138.4.423.613.769.261Z" transform="translate(31.424 69.898)" fill="#35acdf"/>
        <path id="Tracé_7688" data-name="Tracé 7688" d="M22.79,65.28c-1.423.184-2.706-1.5-2.773-2.842-.152-1.463,1.1-3.256,2.271-2.933,2.265.769,2.578,4.535.638,5.728Z" transform="translate(20.482 60.887)" fill="#fff"/>
        <path id="Tracé_7689" data-name="Tracé 7689" d="M22.181,65.895c2.918-.737,1.322-4.847-.3-6.748-.255-.253-.8-.913-1.012-.506.208,1.643,2.487,4.608,1.277,6.5-.091.261-.372.672-.042.755Z" transform="translate(21.368 59.909)" fill="#35acdf"/>
        <path id="Tracé_7690" data-name="Tracé 7690" d="M30.382,51.532c-2.267-3.279,1.981-7.753,5.175-8.717,1.785-.425,1.445,1.726.927,2.769-1,2.734-3.9,4.519-6.1,5.944" transform="translate(30.453 43.78)" fill="#35acdf"/>
        <path id="Tracé_7691" data-name="Tracé 7691" d="M30.18,51.236c1.888-2.3,4.815-3.57,6.527-5.979,1.056-2.336-1.184-.512-1.809.251-1.342,1.621-5.274,3.242-4.718,5.73" transform="translate(30.846 45.161)" fill="#35acdf"/>
        <path id="Tracé_7695" data-name="Tracé 7695" d="M61.925,58.327c-1.627,3.94-6.31,3.445-9.747,2.706-.674-.148-1.662-.35-1.913-1.006-.162-.561.378-1.1.858-1.465,3.194-2.291,7.343-.152,10.8-.237" transform="translate(51.436 58.871)" fill="#35acdf"/>
        <path id="Tracé_7696" data-name="Tracé 7696" d="M50.059,60.035c2.639-.662,5.321-.006,7.942-.13.548-.148.427-.48.014-.741-1.87-1.01-6.586-.917-7.956.872" transform="translate(51.254 59.916)" fill="#35acdf"/>
        <path id="Tracé_7697" data-name="Tracé 7697" d="M57.082,40.748c1.336-2.37,6.323-1.224,8.462-.635.621.208,1.556.506,1.534,1.241-1.5,3-6.3,2.222-8.674.834-.534-.3-1.249-.725-1.322-1.338Z" transform="translate(58.444 40.251)" fill="#fff"/>
      </g>
    </g>
    <path id="Tracé_8212" data-name="Tracé 8212" d="M.49,6.311c3.224-.845,6.3-2.183,9.489-3.156C12.842,2.28,15.868,1.706,18.63.6c.317-.127.159-.621-.178-.6A42.123,42.123,0,0,0,9.119,2.244,48.373,48.373,0,0,0,.185,5.656a.343.343,0,0,0-.125.5.411.411,0,0,0,.427.159Z" transform="matrix(0.999, -0.035, 0.035, 0.999, 1428.785, 555.166)" fill="#35acdf"/>
  </g>
</svg>
