<svg xmlns="http://www.w3.org/2000/svg" width="57.021" height="48.199" viewBox="0 0 57.021 48.199"><g transform="translate(-0.8 -10.771)"><path d="M59.365,39.035q-.175-.179-.361-.348c-.123-.111-.238-.236-.361-.348s-.238-.237-.361-.348-.238-.237-.361-.348-.238-.236-.361-.348-.238-.237-.361-.348-.238-.236-.361-.348a18.1,18.1,0,0,1,5.709,12.848c0,11.533-12.14,20.915-27.067,20.915-8.358,0-15.836-2.944-20.809-7.559l.361.348.361.348.361.348.361.348.361.348.361.348.361.348c4.966,4.81,12.61,7.907,21.17,7.907,14.927,0,27.067-9.382,27.067-20.88a18.21,18.21,0,0,0-6.07-13.231Z" transform="translate(-7.614 -14.177)"/><path d="M55.325,37.388c0,10.586-11.31,19.168-25.263,19.168S4.8,47.974,4.8,37.388c0-6.564,4.331-12.361,10.986-15.8s10.8-6.96,14.277-6.96,6.453,2.875,14.277,6.961C50.994,25.026,55.325,30.824,55.325,37.388Z" transform="translate(-2.196 -2.117)" fill="#fbf0df"/><path d="M64,60.185a14.577,14.577,0,0,0-.577-4.023c-1.97,23.177-31.289,24.291-42.816,17.359a29.578,29.578,0,0,0,18.131,5.832C52.67,79.353,64,70.757,64,60.185Z" transform="translate(-10.872 -24.914)" fill="#f6dece"/><path d="M20.34,20.315c3.226-1.865,7.514-5.366,11.729-5.373a6.935,6.935,0,0,0-2.007-.314c-1.747,0-3.609.871-5.955,2.179-.816.459-1.66.967-2.555,1.5-1.682,1-3.609,2.136-5.774,3.271C8.907,25.159,4.8,31.068,4.8,37.388v.828c4.374-14.9,12.321-16.036,15.54-17.9Z" transform="translate(-2.196 -2.117)" fill="#fffefc"/><path d="M44.158,17.8a11.076,11.076,0,0,1-1.049,4.767,11.462,11.462,0,0,1-3.015,3.912.234.234,0,0,0,.217.411c2.432-.911,5.717-3.64,4.331-9.145A.244.244,0,0,0,44.158,17.8Zm1.638,0a11.041,11.041,0,0,1,1.645,4.565,10.914,10.914,0,0,1-.483,4.81.239.239,0,0,0,.4.251c1.581-1.949,2.959-5.819-1.169-9.995a.265.265,0,0,0-.39.341Zm1.992-.118a11.6,11.6,0,0,1,3.393,3.575,11.147,11.147,0,0,1,1.551,4.61.224.224,0,0,0,.046.165.245.245,0,0,0,.324.053.23.23,0,0,0,.1-.141c.664-2.429.289-6.57-5.175-8.721a.248.248,0,0,0-.238.432ZM34.465,24.924a12.369,12.369,0,0,0,4.471-2.356,11.847,11.847,0,0,0,3.087-3.908c.13-.251.541-.153.476.125-1.249,5.568-5.428,6.731-8.026,6.577C34.2,25.37,34.2,25,34.465,24.924Z" transform="translate(-18.37 -3.532)" fill="#ccbea7"/><path d="M27.867,56.186C12.94,56.186.8,46.8.8,35.271c0-6.96,4.461-13.454,11.931-17.345,2.165-1.114,4.02-2.234,5.673-3.216.909-.543,1.768-1.051,2.6-1.524,2.533-1.448,4.7-2.415,6.864-2.415s4.056.835,6.424,2.186c.722.4,1.444.828,2.216,1.3,1.8,1.072,3.825,2.283,6.5,3.668,7.47,3.891,11.931,10.377,11.931,17.345,0,11.533-12.14,20.915-27.067,20.915Zm0-43.674c-1.747,0-3.609.87-5.955,2.178-.816.459-1.66.967-2.555,1.5-1.682,1-3.609,2.136-5.774,3.271C6.711,23.042,2.6,28.951,2.6,35.271c0,10.572,11.332,19.175,25.262,19.175s25.263-8.6,25.263-19.175c0-6.32-4.107-12.229-10.986-15.8-2.728-1.392-4.858-2.7-6.583-3.731-.787-.466-1.509-.9-2.165-1.28-2.187-1.253-3.782-1.949-5.529-1.949Z" transform="translate(0 0)"/><path d="M59.841,75.653a6.189,6.189,0,0,1-2.108,3.278,4.994,4.994,0,0,1-2.887,1.308,5.021,5.021,0,0,1-2.981-1.308,6.186,6.186,0,0,1-2.079-3.278.484.484,0,0,1,.023-.226.5.5,0,0,1,.123-.193.537.537,0,0,1,.432-.145h8.907a.535.535,0,0,1,.427.149A.484.484,0,0,1,59.841,75.653Z" transform="translate(-26.885 -35.301)" fill="#b71422"/><path d="M53.812,80.871a5.071,5.071,0,0,0,2.974,1.323,5.07,5.07,0,0,0,2.967-1.323,7.51,7.51,0,0,0,.722-.744,4.919,4.919,0,0,0-1.6-1.157,5.08,5.08,0,0,0-1.941-.451,4.566,4.566,0,0,0-2.052.538,4.38,4.38,0,0,0-1.557,1.4C53.494,80.6,53.638,80.739,53.812,80.871Z" transform="translate(-28.832 -37.186)" fill="#ff6164"/><path d="M54,79.9a3.843,3.843,0,0,1,1.34-1.059,3.986,3.986,0,0,1,1.684-.389,4.412,4.412,0,0,1,2.887,1.177c.166-.174.325-.355.476-.536a5.149,5.149,0,0,0-3.4-1.343,4.731,4.731,0,0,0-1.956.44,4.567,4.567,0,0,0-1.574,1.2A6.786,6.786,0,0,0,54,79.9Z" transform="translate(-28.902 -36.762)"/><path d="M54.286,80.186a5.449,5.449,0,0,1-3.212-1.392,6.594,6.594,0,0,1-2.245-3.515.808.808,0,0,1,.012-.369.826.826,0,0,1,.175-.328,1.015,1.015,0,0,1,.365-.268,1.047,1.047,0,0,1,.45-.087h8.907a1.073,1.073,0,0,1,.449.088,1.038,1.038,0,0,1,.366.267.817.817,0,0,1,.172.328.791.791,0,0,1,.008.368,6.6,6.6,0,0,1-2.245,3.515,5.449,5.449,0,0,1-3.2,1.392Zm-4.453-5.15c-.115,0-.144.049-.152.063a5.744,5.744,0,0,0,1.97,3.041,4.566,4.566,0,0,0,2.635,1.218,4.6,4.6,0,0,0,2.635-1.2,5.749,5.749,0,0,0,1.963-3.041.15.15,0,0,0-.063-.051.157.157,0,0,0-.081-.012Z" transform="translate(-26.354 -34.83)"/><path d="M53.431,71.474c2.332,0,4.222-1.072,4.222-2.395s-1.89-2.394-4.222-2.394-4.222,1.072-4.222,2.394,1.89,2.394,4.222,2.394Zm-21.848,0c2.332,0,4.222-1.072,4.222-2.395s-1.89-2.394-4.222-2.394-4.222,1.072-4.222,2.394,1.89,2.394,4.222,2.394Z" transform="translate(-14.578 -30.69)" fill="#febbd0"/><path d="M36.29,60.531a4.083,4.083,0,0,0,2.211-.643,3.87,3.87,0,0,0,1.468-1.72,3.708,3.708,0,0,0,.229-2.216,3.794,3.794,0,0,0-1.086-1.966,4.024,4.024,0,0,0-2.036-1.051,4.114,4.114,0,0,0-2.3.217,3.949,3.949,0,0,0-1.786,1.412,3.732,3.732,0,0,0,.492,4.84A4.052,4.052,0,0,0,36.29,60.531Zm17.879,0a4.084,4.084,0,0,0,2.217-.633,3.871,3.871,0,0,0,1.477-1.715,3.708,3.708,0,0,0,.238-2.218,3.793,3.793,0,0,0-1.082-1.97,4.024,4.024,0,0,0-2.035-1.057,4.114,4.114,0,0,0-2.3.213,3.95,3.95,0,0,0-1.79,1.412,3.737,3.737,0,0,0,.48,4.838,4.044,4.044,0,0,0,2.8,1.131Z" transform="translate(-17.301 -23.102)"/><path d="M36.591,58.4a1.534,1.534,0,0,0,.832-.24,1.456,1.456,0,0,0,.554-.645,1.393,1.393,0,0,0,.088-.833,1.425,1.425,0,0,0-.407-.739,1.512,1.512,0,0,0-.765-.4,1.545,1.545,0,0,0-.864.081,1.484,1.484,0,0,0-.672.531,1.4,1.4,0,0,0,.183,1.818,1.522,1.522,0,0,0,1.052.424Zm17.879,0a1.534,1.534,0,0,0,.832-.24,1.456,1.456,0,0,0,.554-.645,1.393,1.393,0,0,0,.088-.833,1.426,1.426,0,0,0-.407-.739,1.512,1.512,0,0,0-.765-.4,1.546,1.546,0,0,0-.864.081,1.484,1.484,0,0,0-.672.531,1.4,1.4,0,0,0,.178,1.813,1.519,1.519,0,0,0,1.043.429Z" transform="translate(-18.829 -24.559)" fill="#fff"/></g></svg>