<svg xmlns="http://www.w3.org/2000/svg" xmlns:xlink="http://www.w3.org/1999/xlink" width="152.584" height="152.943" viewBox="0 0 152.584 152.943"><defs><clipPath id="a"><path d="M120.769,41.012a1.648,1.648,0,0,1-1.5,2.436c-12.391-.42-61.8.521-75.828,40.987a59.534,59.534,0,0,0-1,34.275,2.279,2.279,0,0,1-3.086,2.638,62.674,62.674,0,0,1-36.738-76C12.34,12.616,47.58-7.954,79.942,2.937,102.657,10.58,116.594,33.307,120.769,41.012Z"/></clipPath></defs><g transform="translate(153.275 117.665) rotate(162)"><g transform="translate(0 2.21)"><path d="M120.769,41.012a1.648,1.648,0,0,1-1.5,2.436c-12.391-.42-61.8.521-75.828,40.987a59.534,59.534,0,0,0-1,34.275,2.279,2.279,0,0,1-3.086,2.638,62.674,62.674,0,0,1-36.738-76C12.34,12.616,47.58-7.954,79.942,2.937,102.657,10.58,116.594,33.307,120.769,41.012Z" fill="#6db5ff"/><g clip-path="url(#a)"><g transform="translate(-35.113 -33.005)"><path d="M31.326,174.21a21.4,21.4,0,0,1-6.934,1.989,20.8,20.8,0,0,1-7.579-.573,21.37,21.37,0,0,1-3.688-1.344,20.408,20.408,0,0,1-2.252-1.256,21.748,21.748,0,0,1-3.794-3.083c-.383-.4-.588-.631-.88-.968q-.4-.472-.784-.967T4.685,167c-.2-.295-.523-.794-.6-.934a25.457,25.457,0,0,1-1.241-2.344l-.207-.465-.153-.366-.29-.739-.27-.746-.165-.512-.3-1.018-.205-.8-.177-.759L.946,157.7c-.079-.4-.158-.826-.206-1.139l-.153-1-.116-.9c-.263-2.257-.351-4.03-.414-5.772-.109-3.428-.049-6.53.078-9.6.266-6.108.826-11.979,1.594-17.824A228.363,228.363,0,0,1,9.014,86.9,173.932,173.932,0,0,1,22.731,53.155,114.483,114.483,0,0,1,46.577,22.273,88.774,88.774,0,0,1,63.636,10.238,84.3,84.3,0,0,1,83.43,2.6,90.034,90.034,0,0,1,104.02.012a98.636,98.636,0,0,1,10.042.37q4.95.412,9.723,1.257A152.047,152.047,0,0,1,159.2,12.714,242.889,242.889,0,0,1,190.118,29.35L168.179,64.259a202.223,202.223,0,0,0-25.634-13.828,111.28,111.28,0,0,0-25.761-8.16c-8.4-1.451-16.374-1.423-23.458.355A44.482,44.482,0,0,0,74.075,52.994,73.627,73.627,0,0,0,58.953,72.851a133.085,133.085,0,0,0-10.4,25.726,187.566,187.566,0,0,0-5.948,28.278c-.63,4.778-1.078,9.585-1.277,14.182-.1,2.283-.127,4.542-.064,6.469.029.935.1,1.838.144,2.243l.013.1v.008l-1.988.314c-1.642.3-3.09.517-4.56.811l-2.184.468q-1,.19-1.985.433l-1.928.507q-.864.21-1.713.488l-.842.293q-.358.1-.712.226c-.459.154-.958.393-1.357.565a5.093,5.093,0,0,0-1.055.549,2.255,2.255,0,0,0-.7.516.536.536,0,0,0-.174.177.866.866,0,0,0-.055.111.069.069,0,0,0-.018.022c-.019.116.008-.052-.055-.089h0l.2.423Z" fill="none"/></g><g transform="translate(138.876 13.637)"><path d="M.65.253C.3.4.1.3,0,0,.2.114.588-.111.65.253Z" fill="#f09fdf" fill-rule="evenodd"/></g><g transform="translate(138.738 12.557)"><path d="M.654.3C.5.1.07.4,0,.048.254.065.651-.179.654.3Z" fill="#f09fdf" fill-rule="evenodd"/></g><g transform="translate(136.569 12.836)"><path d="M.462.5C.147.562.277.314,0,.068.214-.062.3.039.459.021.523.214.386.3.462.5Z" fill="#f09fdf" fill-rule="evenodd"/></g><g transform="translate(126.813 16.259)"><path d="M.666.406.248.58C.254.24.027.364,0,.086.366-.1.589.012.666.406Z" fill="#f09fdf" fill-rule="evenodd"/></g><g transform="translate(137.595 12.097)"><path d="M.6.223C.58.5-.007.5,0,.2.154-.087.211.191.542,0,.5.123.461.246.6.223Z" fill="#f09fdf" fill-rule="evenodd"/></g><g transform="translate(125.846 15.936)"><path d="M.626.432C.374.3.235.559,0,.7A.856.856,0,0,1,.511,0Z" fill="#f09fdf" fill-rule="evenodd"/></g><g transform="translate(132.529 11.827)"><path d="M.547.329C.489.641-.047.5,0,.055.364-.2.223.513.547.329Z" fill="#f09fdf" fill-rule="evenodd"/></g><g transform="translate(121.865 14.397)"><path d="M1.782,1.377c-.115-.019-.241-.229-.237-.015-.219.116-.153-.359-.253-.49a1.106,1.106,0,0,1-.855.26C.74.518.261.359,0,0,.21.072.362.265.709.046c-.206.42,0,.3.182.643A.607.607,0,0,1,1.172.444a.357.357,0,0,0,.534.245,1,1,0,0,1,.076.688Z" fill="#f09fdf" fill-rule="evenodd"/></g><g transform="translate(131.561 11.604)"><path d="M.514.334.087.5C.137.382.173.133,0,.169.008-.1.559-.05.514.334Z" fill="#f09fdf" fill-rule="evenodd"/></g><g transform="translate(131.828 8.877)"><path d="M.508.532C.258.515.09.336,0,0,.246.049.694.144.508.532Z" fill="#f09fdf" fill-rule="evenodd"/></g><g transform="translate(116.786 14.58)"><path d="M.5.388C.2.54-.107.322.036,0,.2.1.4.121.5.388Z" fill="#f09fdf" fill-rule="evenodd"/></g><g transform="translate(129.496 8.22)"><path d="M.691.334C.442.262.022.536,0,0,.279.013.561.022.691.334Z" fill="#f09fdf" fill-rule="evenodd"/></g><g transform="translate(120.18 9.532)"><path d="M.441.692C.082.7.28.366,0,.036A.481.481,0,0,0,.343,0C.211.557.745.295.441.692Z" fill="#f09fdf" fill-rule="evenodd"/></g><g transform="translate(128.349 6.01)"><path d="M0,.353C.034.065.534.292.855,0,.9.439.272.305,0,.353Z" fill="#f09fdf" fill-rule="evenodd"/></g><g transform="translate(125.022 5.301)"><path d="M.629.469C.412.329.116.362,0,0A4.313,4.313,0,0,0,.983.072C1.153.336.462.2.629.469Z" fill="#f09fdf" fill-rule="evenodd"/></g><g transform="translate(113.38 10.892)"><path d="M.6.229C.483.746.172.157,0,.175.082-.251.439.234.6.229Z" fill="#f09fdf" fill-rule="evenodd"/></g><g transform="translate(114.156 9.229)"><path d="M.037.063C.32-.175.282.362.612.015A.637.637,0,0,1,.351.641C.324.177-.131.451.037.063Z" fill="#f09fdf" fill-rule="evenodd"/></g><g transform="translate(107.712 12.189)"><path d="M.759.19C.444.288.146.345,0,0,.263.038.561-.017.759.19Z" fill="#f09fdf" fill-rule="evenodd"/></g><g transform="translate(128.849 1.766)"><path d="M.618.44C.344.654.291.4.046.549-.112.226.163.1.478,0Z" fill="#f09fdf" fill-rule="evenodd"/></g><g transform="translate(125.944 2.998)"><path d="M.71.243C.37.483.221.314,0,.3.022.025.726-.183.71.243Z" fill="#f09fdf" fill-rule="evenodd"/></g><g transform="translate(125.795 0.312)"><path d="M2.069,1.432c-.085.058-.115,0-.143-.066C1.177,1.493.777.862.066.91c-.2-.4.121-.565.063-.9.429-.086.135.378.4.453.36-.08.259-.344.532-.226-.184.425.281.495.4.824.3-.217.428-.053.679-.158C2.388,1.206,1.822,1.13,2.069,1.432Z" fill="#f09fdf" fill-rule="evenodd"/></g><g transform="translate(110.17 8.128)"><path d="M.5.54C.685.5.358.157.257.177.275-.288.491.34.689.067.894.353.65.474.679.7A2.327,2.327,0,0,1,.012.813C-.074.489.327.467.5.54Z" fill="#f09fdf" fill-rule="evenodd"/></g><g transform="translate(135.4 -2.968)"><path d="M.8.2C.477.254.062.489,0,0,.283.036.649-.1.8.2Z" fill="#f09fdf" fill-rule="evenodd"/></g><g transform="translate(135.99 -3.547)"><path d="M.548.282C.527.6.033.373,0,.11.375-.226.321.316.548.282Z" fill="#f09fdf" fill-rule="evenodd"/></g><g transform="translate(135.185 -3.793)"><path d="M.036.642C-.07.37.1.232.076,0c.158-.014.236.133.4.1C.473.352.279.511.036.642Z" fill="#f09fdf" fill-rule="evenodd"/></g><g transform="translate(109.022 7.991)"><path d="M.9.219C.728.716.3.17,0,.339.016-.255.679.083.9.219Z" fill="#f09fdf" fill-rule="evenodd"/></g><g transform="translate(139.672 -7.776)"><path d="M.7,1C.435.983.208.6,0,0,.243.318.588.434.7,1Z" fill="#f09fdf" fill-rule="evenodd"/></g><g transform="translate(107.157 7.459)"><path d="M0,.311C.094.05.564-.167.661.179.572.423.064.749,0,.311Z" fill="#f09fdf" fill-rule="evenodd"/></g><g transform="translate(128.989 -3.691)"><path d="M.722.68C.342.873-.372.253.237,0,.266.517.58.411.722.68Z" fill="#f09fdf" fill-rule="evenodd"/></g><g transform="translate(121.402 -1.037)"><path d="M1.011.768C.777,1.165.114.887,0,.346.193.3.168.17.132.032.629-.2.573.863,1.011.768Z" fill="#f09fdf" fill-rule="evenodd"/></g><g transform="translate(134.215 -6.532)"><path d="M.966.263a.647.647,0,0,1-.545.1A.647.647,0,0,1,0,0C.257.225.8-.16.966.263Z" fill="#f09fdf" fill-rule="evenodd"/></g><g transform="translate(104.38 6.961)"><path d="M1.4.6C1.291.59,1.181.58,1.209.717.907.209.3.581,0,.06.617.317,1.262-.517,1.4.6Z" fill="#f09fdf" fill-rule="evenodd"/></g><g transform="translate(125.929 -4.618)"><path d="M.413.486C.092.751.125.215,0,.03A.529.529,0,0,0,.365,0,.678.678,0,0,0,.413.486Z" fill="#f09fdf" fill-rule="evenodd"/></g><g transform="translate(103.524 6.557)"><path d="M.72.421C.78.764.478.447.34.654.638.2.116.544,0,.1.3-.274.2.544.5.17.553.323.6.471.72.421Z" fill="#f09fdf" fill-rule="evenodd"/></g><g transform="translate(102.36 6.279)"><path d="M1.014.6C.534.587.23,1.186,0,.72.509.583.062.144.537,0,.358.569.9.235,1.014.6Z" fill="#f09fdf" fill-rule="evenodd"/></g><g transform="translate(127.065 -8.337)"><path d="M.519.767C.13.7-.26.258.227,0,.407.365.552.347.519.767Z" fill="#f09fdf" fill-rule="evenodd"/></g><g transform="translate(99.293 5.55)"><path d="M1.771.625C1.385.912,1.211.52.906.546c-.2.147-.091.386.028.627C.394,1.255.674.441,0,.374.242.065.206.223.555,0,.759.4.42.064.229.348.714.522,1.372.162,1.771.625Z" fill="#f09fdf" fill-rule="evenodd"/></g><g transform="translate(111.363 -3.252)"><path d="M.66.681C.259.8.023.324,0,0,.335.07.7.2.66.681Z" fill="#f09fdf" fill-rule="evenodd"/></g><g transform="translate(118.525 -6.815)"><path d="M.435.384C.153.3.306.456.013.583-.045.35.108.2.154,0,.312-.033.354.228.435.384Z" fill="#f09fdf" fill-rule="evenodd"/></g><g transform="translate(110.793 -8.554)"><path d="M.9.565A.938.938,0,0,1,0,0C.262.251.973.126.9.565Z" fill="#f09fdf" fill-rule="evenodd"/></g><g transform="translate(119.246 -15.978)"><path d="M.677.389C.414.53.264.372.038.42-.174.159.582.262.37,0,.534-.032.584.233.677.389Z" fill="#f09fdf" fill-rule="evenodd"/></g><g transform="translate(124.865 -18.971)"><path d="M.831.7C.435.768.191.459,0,0,.277.2.908.338.831.7Z" fill="#f09fdf" fill-rule="evenodd"/></g><g transform="translate(102.562 -8.2)"><path d="M.5.211.11.453C.123.325.135.2,0,.25-.06-.038.476-.111.5.211Z" fill="#f09fdf" fill-rule="evenodd"/></g><g transform="translate(117.24 -18.99)"><path d="M1.417.948C.975,1.086.735.653.23.977.153.74.415.623.507.445.337.215-.113.382.027,0,.258-.054.316.382.621.12.563.742,1.181.449,1.417.948Z" fill="#f09fdf" fill-rule="evenodd"/></g><g transform="translate(101.691 -10.814)"><path d="M.458.544C.331.5.156.648.052.524-.133.235.213-.06.439.01.737.269.16.285.458.544Z" fill="#f09fdf" fill-rule="evenodd"/></g><g transform="translate(112.919 -20.356)"><path d="M1.153.376C.989.769-.114.528.01,0,.371.187.675.545,1.153.376Z" fill="#f09fdf" fill-rule="evenodd"/></g><g transform="translate(114.962 -22.993)"><path d="M.777.438C.418.593.168.426,0,0,.253.165.577.115.777.438Z" fill="#f09fdf" fill-rule="evenodd"/></g><g transform="translate(108.757 -20.235)"><path d="M.818.261C.525.241.188.378,0,.012.3-.009.61-.036.818.261Z" fill="#f09fdf" fill-rule="evenodd"/></g><g transform="translate(105.82 -20.597)"><path d="M.6.42C.373.51.237.25.006.34-.043.18.217.107.365,0Z" fill="#f09fdf" fill-rule="evenodd"/></g><g transform="translate(104.543 -21.026)"><path d="M.712.256C.412.492.269.137,0,.247-.051.039.646-.19.712.256Z" fill="#f09fdf" fill-rule="evenodd"/></g><g transform="translate(90.243 -12.808)"><path d="M.672.848C.6.779.65.729.7.68.613.578.481.727.361.793.194.662.37.186.044.307-.171-.044.485.283.258,0,.5.089,1.166.535.672.848Z" fill="#f09fdf" fill-rule="evenodd"/></g><g transform="translate(89.283 -13.107)"><path d="M.875.413C.741.568.652.469.562.359.427.451.291.546.351.669.206.737.113.491,0,.36L.461,0C.569.327.758.151.875.413Z" fill="#f09fdf" fill-rule="evenodd"/></g><g transform="translate(87.514 -11.752)"><path d="M.594.376C.371.453.183.316,0,.118.252-.153.428.089.594.376Z" fill="#f09fdf" fill-rule="evenodd"/></g><g transform="translate(100.18 -21.546)"><path d="M.229.7C-.155.716.016.137.215,0,.639.1.223.443.229.7Z" fill="#f09fdf" fill-rule="evenodd"/></g><g transform="translate(100.108 -22.223)"><path d="M1.205.542C.732.575.049.668,0,0,.382.269.926-.152,1.205.542Z" fill="#f09fdf" fill-rule="evenodd"/></g><g transform="translate(99.046 -21.425)"><path d="M.8.36C.536.222.226.3,0,0,.3-.023.557.13.874.027.919.155.713.224.8.36Z" fill="#f09fdf" fill-rule="evenodd"/></g><g transform="translate(97.458 -20.817)"><path d="M.657.837C-.034.515-.275.761.4,0,.7.32.6.563.657.837Z" fill="#f09fdf" fill-rule="evenodd"/></g><g transform="translate(85.03 -12.043)"><path d="M.777.184A.5.5,0,0,1,.366.325.5.5,0,0,1,0,.092C.267.056.556-.14.777.184Z" fill="#f09fdf" fill-rule="evenodd"/></g><g transform="translate(80.206 -12.391)"><path d="M1.721.895C1.04.342.367.694,0,0A3.946,3.946,0,0,1,1.682.465C1.771.359,1.627.233,1.557.113,2.116-.138,2.064.54,1.721.895Z" fill="#f09fdf" fill-rule="evenodd"/></g><g transform="translate(92.892 -22.476)"><path d="M.352.672C-.135.82.312,0,0,.178.073-.371.531.508.352.672Z" fill="#f09fdf" fill-rule="evenodd"/></g><g transform="translate(92.143 -22.528)"><path d="M.721.4A.591.591,0,0,1,0,.012.708.708,0,0,1,.721.4Z" fill="#f09fdf" fill-rule="evenodd"/></g><g transform="translate(77.869 -12.526)"><path d="M.541.116.213.443C.071.3.157.16,0,.013.178.087.371-.118.541.116Z" fill="#f09fdf" fill-rule="evenodd"/></g><g transform="translate(86.686 -21.499)"><path d="M.183.625C.082.412.321.242,0,0,.416-.043.808.652.183.625Z" fill="#f09fdf" fill-rule="evenodd"/></g><g transform="translate(74.23 -29.726)"><path d="M.846.431C.389.932.039.334,0,0A1.846,1.846,0,0,1,.846.431Z" fill="#f09fdf" fill-rule="evenodd"/></g><g transform="translate(63.451 -29.559)"><path d="M2.159.922c-.373.352-.4-.407-.856,0-.161.342.387.177.517.371-.358.23-.7.024-.9-.328C1.17.9,1.259.806,1.264.582.8.2.469.893,0,.469.221.438.455.507.634.14A1.016,1.016,0,0,0,1.968,0C2.006.31,1.606.657,2.159.922Z" fill="#f09fdf" fill-rule="evenodd"/></g><g transform="translate(61.038 -28.75)"><path d="M.97.348.643.739C.237.485.247.649,0,.318c.3-.34.933.315.542-.25C.763-.166.928.276.97.348Z" fill="#f09fdf" fill-rule="evenodd"/></g><g transform="translate(59.984 -28.654)"><path d="M.674.878C.648.654.288.478,0,.292L.241,0a.226.226,0,0,0,.3.04C.6.357.479.275.891.417.733.584.852.709.674.878Z" fill="#f09fdf" fill-rule="evenodd"/></g><g transform="translate(58.22 -27.843)"><path d="M1,.634C.629.369.367.692,0,.47.37.2.85.523,1.175,0,1.414.341,1.068.24,1,.634Z" fill="#f09fdf" fill-rule="evenodd"/></g><g transform="translate(57.359 -27.77)"><path d="M.2,0C.512.144.647.321.41.565A.678.678,0,0,1,0,.466.646.646,0,0,1,.2,0Z" fill="#f09fdf" fill-rule="evenodd"/></g><g transform="translate(56.763 -27.667)"><path d="M.566.2C.414.369.538.491.369.665.163.573.211.324.038.468-.09.347.135.161.232,0Z" fill="#f09fdf" fill-rule="evenodd"/></g><g transform="translate(55.754 -28.032)"><path d="M.87,0C.96.159.333.833,0,.533.279.312.537-.027.87,0Z" fill="#f09fdf" fill-rule="evenodd"/></g><g transform="translate(50.629 -26.601)"><path d="M.766.656C.463.4.275.562,0,.428.128.055.454.37.583,0,.828.171,1.079.343.766.656Z" fill="#f09fdf" fill-rule="evenodd"/></g><g transform="translate(47.726 -25.571)"><path d="M.734.2A.562.562,0,0,1,0,.441L.261,0Z" fill="#f09fdf" fill-rule="evenodd"/></g><g transform="translate(45.611 -24.907)"><path d="M1.133.183C.8.4.437.519.1.714-.264.632.529.138.168.058.367-.108.4.13.528.2.743.236.832-.1,1.133.183Z" fill="#f09fdf" fill-rule="evenodd"/></g><g transform="translate(44.558 -25.676)"><path d="M.683.479C.521.7.172.411.011.63-.053.316.178.186.508,0,.729.1.384.405.683.479Z" fill="#f09fdf" fill-rule="evenodd"/></g><g transform="translate(41.836 -24.352)"><path d="M1.769,1.1c-.717-.24-1.078.414-1.6.64C-.385,1.4.6.939.67.444c.262.414.14.506.8.414.252-.494.106-.715.6-.858C2.309.425,2.125.592,1.769,1.1Z" fill="#f09fdf" fill-rule="evenodd"/></g><g transform="translate(41.963 -24.33)"><path d="M1.145.093C.8.356.325.312,0,.639A.832.832,0,0,1,1.145.093Z" fill="#f09fdf" fill-rule="evenodd"/></g><g transform="translate(40.299 -24.223)"><path d="M.745.353C.659.565.473.542.4.771.048.645.42.206,0,.11A.663.663,0,0,1,.612.04C.335.444.255.256.745.353Z" fill="#f09fdf" fill-rule="evenodd"/></g><g transform="translate(37.866 -22.967)"><path d="M.544.145C.487.4.318.429.211.58.2.367-.109.293.042,0,.2.268.206.032.544.145Z" fill="#f09fdf" fill-rule="evenodd"/></g><g transform="translate(12.058 -2.643)"><path d="M1.1.324C.99.836.535,1.029,0,1.163A5.881,5.881,0,0,1,.476,0C.735.052.882.228,1.1.324Z" fill="#f09fdf" fill-rule="evenodd"/></g><g transform="translate(5.82 3.359)"><path d="M.446.009C.593.385.153.318.127.561-.151.526.058-.082.446.009Z" fill="#f09fdf" fill-rule="evenodd"/></g><g transform="translate(0.749 11.021)"><path d="M.568,0C.85.184.446.819,0,.893.083.529.381.3.568,0Z" fill="#f09fdf" fill-rule="evenodd"/></g><g transform="translate(-2.037 14.713)"><path d="M1.175.02C.76.256.359.911,0,.859.2.494.677-.118,1.175.02Z" fill="#f09fdf" fill-rule="evenodd"/></g><g transform="translate(-6.145 21.823)"><path d="M.471,0C.5.37.185.568.126.89-.124.794,0,.065.471,0Z" fill="#f09fdf" fill-rule="evenodd"/></g><g transform="translate(-9.112 29.937)"><path d="M.647.4C.455.346.193.458,0,.4.014.225.155.1.356,0,.423.206.587.18.647.4Z" fill="#f09fdf" fill-rule="evenodd"/></g><g transform="translate(8.776 64.777)"><path d="M.886,0C.975.6.091.97.18,1.575-.375,1.149.5.437.886,0Z" fill="#f09fdf" fill-rule="evenodd"/></g><g transform="translate(8.378 66.362)"><path d="M.314,0C.518.292.391.5,0,.655A.8.8,0,0,1,.314,0Z" fill="#f09fdf" fill-rule="evenodd"/></g><g transform="translate(-16.628 43.903)"><path d="M.945.578A.334.334,0,0,1,.565.372,3.34,3.34,0,0,1,.007,1.608,2.277,2.277,0,0,1,.5,0C.6.362.816.328.945.578Z" fill="#f09fdf" fill-rule="evenodd"/></g><g transform="translate(-16.079 47.063)"><path d="M.757.322C.516.237.164.53,0,.184.107-.137.577,0,.757.322Z" fill="#f09fdf" fill-rule="evenodd"/></g><g transform="translate(-16.912 46.198)"><path d="M.259,0C.42-.038.491.222.6.368A.79.79,0,0,1,.01.544C-.079.314.463.272.259,0Z" fill="#f09fdf" fill-rule="evenodd"/></g><g transform="translate(-24.038 65.008)"><path d="M.532,0C.621.338.219.389,0,.493A.525.525,0,0,1,.266.033C.333.127.439.029.532,0Z" fill="#f09fdf" fill-rule="evenodd"/></g><g transform="translate(-25.416 66.013)"><path d="M.592.018C.7.264.122.449,0,.419a.439.439,0,0,1,.592-.4Z" fill="#f09fdf" fill-rule="evenodd"/></g><g transform="translate(-25.818 67.603)"><path d="M1.223,0A5.287,5.287,0,0,1,.682,2.108C.317,1.88.31,2.339,0,2.585A20.294,20.294,0,0,1,1.223,0Z" fill="#f09fdf" fill-rule="evenodd"/></g><g transform="translate(-25.808 70.012)"><path d="M.449,0C.62.339.2.578.048.863A.652.652,0,0,1,.449,0Z" fill="#f09fdf" fill-rule="evenodd"/></g><g transform="translate(-26.179 71.204)"><path d="M.366,0C.313.33.438.689.206.99-.07.884-.115.248.366,0Z" fill="#f09fdf" fill-rule="evenodd"/></g><g transform="translate(-26.031 72.205)"><path d="M.656,0A1.5,1.5,0,0,0,.864.875C.473,1.041.426,1.2,0,.908.577.937.3.268.656,0Z" fill="#f09fdf" fill-rule="evenodd"/></g><g transform="translate(-30.434 71.959)"><path d="M.289,0c.4-.04.111.524-.1.673C0,.5.064.366,0,.214.149.073.371.2.289,0Z" fill="#f09fdf" fill-rule="evenodd"/></g><g transform="translate(-28.427 76.3)"><path d="M.811.041C.877-.037.928.011.977.066l.146.187c-.43.169-.212,1.076-.8,1.5C.252,1.629.17,1.6.079,1.633.355,1.276.379.884.741.54.386.064.414.688.046.614-.2.383.622.3.377.067.5-.048.923.521.811.041Z" fill="#f09fdf" fill-rule="evenodd"/></g><g transform="translate(-31.197 73.447)"><path d="M.653,0A2.4,2.4,0,0,1,0,1.537,4.06,4.06,0,0,1,.653,0Z" fill="#f09fdf" fill-rule="evenodd"/></g><g transform="translate(-28.581 78.452)"><path d="M.339,0C.269.266.845.343.762.729.446.539.236.584.045.976-.1.619.148.313.339,0Z" fill="#f09fdf" fill-rule="evenodd"/></g><g transform="translate(-29.395 78.959)"><path d="M.49,0C.63.412.268.762.008,1.126-.054.534.246.473.49,0Z" fill="#f09fdf" fill-rule="evenodd"/></g><g transform="translate(-29.844 80.938)"><path d="M.414,1.763C.261,1.848.156,1.51,0,1.632.039,1.07.948.613.528,0,1.454.127.167,1.181.414,1.763Z" fill="#f09fdf" fill-rule="evenodd"/></g><g transform="translate(-30.469 80.731)"><path d="M.834,0C1.011.613.4,1.134.044,1.689-.18,1.07.515.555.834,0Z" fill="#f09fdf" fill-rule="evenodd"/></g><g transform="translate(-31.441 81.915)"><path d="M.3,0C.76,0,.189.605.041.822-.158.516.433.3.3,0Z" fill="#f09fdf" fill-rule="evenodd"/></g><g transform="translate(-31.078 82.308)"><path d="M.408,0C.467.488.674.989,0,1.4.445.966-.057.43.408,0Z" fill="#f09fdf" fill-rule="evenodd"/></g><g transform="translate(-32.507 83.681)"><path d="M2.173,1.12c-.344-.538-.78.012-.634.36.3.26.459-.152.634-.36.381.263-.229.427.1.685C1.5,1.876.553,2.908.165,3.389c-.6-.086.59-1.1.954-1.1-.491-.109-.034-.647-.551-.478C1.165,1.232,1.869.776,2.8,0,3.009.418,2.637.771,2.173,1.12Z" fill="#f09fdf" fill-rule="evenodd"/></g><g transform="translate(-32.032 86.964)"><path d="M.553.014C.7-.061.82.181.951.305.861.522.52.719.557.949.412.967.282.818.125,1,.06.822.068.652,0,.475.248.266.752.5.553.014Z" fill="#f09fdf" fill-rule="evenodd"/></g><g transform="translate(-31.519 88.047)"><path d="M.627,0C.562.252.286.819,0,.371.224.069.413.183.627,0Z" fill="#f09fdf" fill-rule="evenodd"/></g><g transform="translate(-32.254 88.449)"><path d="M.306.018C.724-.1.3.4.6.551.272.6.265.5.068.848-.172.545.3.3.306.018Z" fill="#f09fdf" fill-rule="evenodd"/></g><g transform="translate(140.236 12.44)"><path d="M2.845,2.039c.2-.116-.015-.459.36-.48.033.2.19.189.214.408-.574-.26-.527,1.441-.549.183A4.015,4.015,0,0,0,.944,1.483C.863,1.015.708,1.081.429,1.3c0-.128.2-.148.164-.3-.17-.294-.24.238-.543.186C.19.8.026.766,0,0,.321,0,.384.477.54.778c.434-.3.483.085.65.259.821-.428,1.285.32,1.69.151.123.482-.658.359-.767.258C2.192,1.939,2.785,1.516,2.845,2.039Z" fill="#f09fdf" fill-rule="evenodd"/></g><g transform="translate(134.607 13.194)"><path d="M1.08.873A1.509,1.509,0,0,1,0,.307C.326.287.239.049.508,0,.293.7.9.469,1.08.873Z" fill="#f09fdf" fill-rule="evenodd"/></g><g transform="translate(78.499 -28.798)"><path d="M3.1.682c.1.172-.242.061-.1.249-.954-.9-2-.32-3-.756A5.425,5.425,0,0,1,2.582.138c.086.119-.1.22-.2.327C2.625.509,2.855.738,3.1.682Z" fill="#f09fdf" fill-rule="evenodd"/></g><g transform="translate(123.867 15.315)"><path d="M.593.463C.278.55.226.1,0,0,.24.069.53.035.593.463Z" fill="#f09fdf" fill-rule="evenodd"/></g><g transform="translate(112.699 8.707)"><path d="M.467,0C.585.2.5.314.512.472.365.512.339.252.267.1A.609.609,0,0,1,0,.366C-.039,0,.222.089.467,0Z" fill="#f09fdf" fill-rule="evenodd"/></g><g transform="translate(128.07 1.447)"><path d="M.648.318C.9.547.175.162.006.583-.034.346.126.2.186.011.61-.077.224.409.648.318Z" fill="#f09fdf" fill-rule="evenodd"/></g><g transform="translate(121.475 4.274)"><path d="M.461.04A.305.305,0,0,1,.255.5C.345.3.213.149.006.124-.05-.144.33.116.461.04Z" fill="#f09fdf" fill-rule="evenodd"/></g><g transform="translate(123.499 2.468)"><path d="M.108.356C.192.24.133.058.352,0A.782.782,0,0,1,.427.59C.225.665.234.263,0,.4-.019.271.087.3.108.356Z" fill="#f09fdf" fill-rule="evenodd"/></g><g transform="translate(107.425 8.594)"><path d="M1.558,1.26c-.381.271-.09-.26-.148-.417-.12-.256-.118.237-.39.22C.838.461.433.45,0,.523-.006.342.048.181.041,0a1.5,1.5,0,0,0,1.39.581C1.445,1,1.66.988,1.558,1.26Z" fill="#f09fdf" fill-rule="evenodd"/></g><g transform="translate(123.058 -0.326)"><path d="M2.091,1.6A5.949,5.949,0,0,1,0,.143C.173.039.34.2.319,0,.7-.009.453.2.724.445c.12-.421,1.113.4.96-.042C2,.192,2.128,1.16,2.091,1.6Z" fill="#f09fdf" fill-rule="evenodd"/></g><g transform="translate(103.061 10.873)"><path d="M1.417.372C1.106.607.356.319,0,0,.464.143.952.212,1.417.372Z" fill="#f09fdf" fill-rule="evenodd"/></g><g transform="translate(140.752 -6.895)"><path d="M.338,0C.194.273.522.254.553.678,0,.587.154.334,0,.118-.006-.066.158.112.338,0Z" fill="#f09fdf" fill-rule="evenodd"/></g><g transform="translate(122.596 -0.158)"><path d="M.691.623C.465.425.115.512,0,.057.42-.191.462.436.691.623Z" fill="#f09fdf" fill-rule="evenodd"/></g><g transform="translate(106.337 7.309)"><path d="M.526,0C.667.2.4.255.45.423.24.511.152.262,0,.179-.033-.1.269.4.526,0Z" fill="#f09fdf" fill-rule="evenodd"/></g><g transform="translate(131.36 -7.196)"><path d="M.127.706C.092.6.23.567.308.508.257.224.022.348,0,0,.351.022.719.007.824.56.458.6.453.347.127.706Z" fill="#f09fdf" fill-rule="evenodd"/></g><g transform="translate(120.34 -6.429)"><path d="M.852.887C.558.519.452.924.045.747A4.287,4.287,0,0,0,0,0C.245.343.88.556.852.887Z" fill="#f09fdf" fill-rule="evenodd"/></g><g transform="translate(98.369 5.534)"><path d="M.42.605C.632.342.1.368.293.044c.229-.2.242.338.5.047C.628.411.948.672.5,1.067.371.855.221.7.01.758-.067.5.3.7.42.605Z" fill="#f09fdf" fill-rule="evenodd"/></g><g transform="translate(96.463 5.655)"><path d="M1.016.481C.626.662.486-.044.027.393-.1.032.274.225.208,0,.475.172.781.2,1.016.481Z" fill="#f09fdf" fill-rule="evenodd"/></g><g transform="translate(95.136 4.867)"><path d="M1.04.493c.166-.1.134-.258.314-.359a1.161,1.161,0,0,0,1.177.22c-.264.667-.76-.066-1.221.466C1.2.343.9.557.591.82.228.6.283.4,0,.064.157.018.293.046.449,0,.6.182.344.266.408.426.462.493.544.46.589.559.711.413.522.192.857.1,1.029.17,1.077.272,1.04.493Z" fill="#f09fdf" fill-rule="evenodd"/></g><g transform="translate(126.843 -18.365)"><path d="M.7.1C.735.24.617.214.59.153.427.209.266.265.3.4.138.432.092.164,0,.006A3.284,3.284,0,0,1,.7.1Z" fill="#f09fdf" fill-rule="evenodd"/></g><g transform="translate(117.434 -19.467)"><path d="M1.513.356C1.571.609.237.594,0,0,.144-.028.552.446.542.012.932-.062,1.041.659,1.513.356Z" fill="#f09fdf" fill-rule="evenodd"/></g><g transform="translate(113.321 -19.871)"><path d="M1.08.537C.692.57.338,1.114,0,.538c.3-.6.928.2,1.076-.538C1.388.281.768.255,1.08.537Z" fill="#f09fdf" fill-rule="evenodd"/></g><g transform="translate(94.677 -11.89)"><path d="M.657.425C.746.793.333.492.214.6.091.442.222.225.034.3-.035.229.015.18.07.134L.261,0C.149.1.5.688.44.3.613.225.463.527.657.425Z" fill="#f09fdf" fill-rule="evenodd"/></g><g transform="translate(102.716 -21.839)"><path d="M2.17.446c-.086.3-.776.027-1.088.072C1.048,1.031.28,1.2,0,1.291A5.59,5.59,0,0,1,.768,0c-.153.844.563.012,1.109.2C1.852.414,1.917.515,2.17.446Z" fill="#f09fdf" fill-rule="evenodd"/></g><g transform="translate(100.306 -20.934)"><path d="M1.439.4C1.246.7.451.366.027.418-.153.059.644.41.477,0,.6.142,1,.561,1.439.4Z" fill="#f09fdf" fill-rule="evenodd"/></g><g transform="translate(101.876 -21.811)"><path d="M1.025.171c.282.3-.111.281-.208.122A.325.325,0,0,0,.632.684C.475.727.359.6.2.661.384.56.635.043.007.349-.048.188.213.109.357,0a.461.461,0,0,0,.3.236A.461.461,0,0,0,1.025.171Z" fill="#f09fdf" fill-rule="evenodd"/></g><g transform="translate(98.519 -22.251)"><path d="M0,.01C.158-.036.277.091.44.024.717.291.286.394.563.662.3.57.34.362,0,.01Z" fill="#f09fdf" fill-rule="evenodd"/></g><g transform="translate(95.003 -26.665)"><path d="M.449,0c-.027.311.1.121.292.4C.368.531.864.823.369.934L.151.637C.359.447.558.234.036.27-.127,0,.314.289.449,0Z" fill="#f09fdf" fill-rule="evenodd"/></g><g transform="translate(87.728 -21.948)"><path d="M.387.115C.623.041.4.342.291.189a.524.524,0,0,0,.1.526C.1.782-.178.139.142,0,.213.121.3.152.387.115Z" fill="#f09fdf" fill-rule="evenodd"/></g><g transform="translate(76.927 -12.59)"><path d="M.771.41C.663.488.651.368.7.323.475.035.212.745,0,.216.275-.2.524.127.785.07.846.186.674.293.771.41Z" fill="#f09fdf" fill-rule="evenodd"/></g><g transform="translate(84.501 -28.923)"><path d="M1.46.25A.887.887,0,0,1,2.57.2C2.1.619,1.689.43,1.229.739,1.1.122.435.385,0,.106.084.146,1.409-.239,1.46.25Z" fill="#f09fdf" fill-rule="evenodd"/></g><g transform="translate(81.179 -29.157)"><path d="M3.543.961C3.054.977,2.6.508,2.091.82,2.077-.14.631.927,0,.418,0,.277.213.148.116,0c.4.107.765.564,1.2,0,.562.366,1.157.175,1.736.23.083.151-.177.267-.31.4C3.006.812,3.3.533,3.543.961Z" fill="#f09fdf" fill-rule="evenodd"/></g><g transform="translate(83.199 -30.041)"><path d="M2.711,0C2.484.88.41.594,0,.169.868.182,2.072.711,2.711,0Z" fill="#f09fdf" fill-rule="evenodd"/></g><g transform="translate(77.783 -29.731)"><path d="M1.119.107A5.3,5.3,0,0,1,0,.232C.013-.115.808,0,1.119.107Z" fill="#f09fdf" fill-rule="evenodd"/></g><g transform="translate(70.964 -29.884)"><path d="M2.9.5A6.181,6.181,0,0,1,0,.813C.373.325.787.861.917.282,1.006.895,1.68.169,2.054.6,2.4.36,1.772,0,2.321,0,2.158.45,2.426.544,2.9.5Z" fill="#f09fdf" fill-rule="evenodd"/></g><g transform="translate(72.859 -30.479)"><path d="M1.178.242C1.179.707.364.331.045.433-.161.117.4.323.509,0,.843.35.751.443,1.178.242Z" fill="#f09fdf" fill-rule="evenodd"/></g><g transform="translate(68.821 -29.341)"><path d="M1.956.279A4.052,4.052,0,0,1,0,.633C.237-.43,1.334.135,1.956.279Z" fill="#f09fdf" fill-rule="evenodd"/></g><g transform="translate(59.672 -27.664)"><path d="M1.041.224A3.114,3.114,0,0,1,0,.294L.237,0C.555.365.742-.044,1.041.224Z" fill="#f09fdf" fill-rule="evenodd"/></g><g transform="translate(54.639 -27.71)"><path d="M.474,0l.677.376C.7.6.548-.064.061.35-.187.175.391.146.474,0Z" fill="#f09fdf" fill-rule="evenodd"/></g><g transform="translate(48.592 -26.014)"><path d="M1.18,0C1.247.813.5-.252.288.7A.569.569,0,0,0,0,.427C.285-.054.8.171,1.18,0Z" fill="#f09fdf" fill-rule="evenodd"/></g><g transform="translate(38.503 -23.337)"><path d="M2.505.122c.193-.19.133.188-.055.113-.08.249.218.339.326.51-.283.151-.738-.079-.883.38-.7-.608-.963.09-1.5.2C-.074,1.344.468.918,0,.939.6.927.956.378,1.617.506,1.73.3,1.58.212,1.712,0,1.813.255,2.261.229,2.505.122Z" fill="#f09fdf" fill-rule="evenodd"/></g><g transform="translate(26.021 -15.591)"><path d="M1.329.032C1.132.633.223.227.082.9-.083.843.047.58.068.393.709.58.692-.161,1.329.032Z" fill="#f09fdf" fill-rule="evenodd"/></g><g transform="translate(18.247 -9.972)"><path d="M.855,0C1.061.244.191,1.052,0,.874.267.563.7.434.855,0Z" fill="#f09fdf" fill-rule="evenodd"/></g><g transform="translate(13.035 -3.096)"><path d="M.624.744C.366.689.221.51,0,.416.086.165.336.061.625,0,.711.328.366.258.251.4.261.636.784.1.624.744Z" fill="#f09fdf" fill-rule="evenodd"/></g><g transform="translate(-7.36 24.506)"><path d="M.289,0C.724.15.129.614.234.922.145.979.112.918.081.851L0,.625C.325.523.168.2.289,0Z" fill="#f09fdf" fill-rule="evenodd"/></g><g transform="translate(10.314 60.667)"><path d="M1.139,0A4.659,4.659,0,0,0,.927,1.177c-.526.024-.426.6-.5.955-.092.021-.164-.043-.262,0-.039-.081-.1-.063-.165-.04C.542,1.437.55.635,1.139,0Z" fill="#f09fdf" fill-rule="evenodd"/></g><g transform="translate(-26.824 69.882)"><path d="M.767.18C.473.577.339,0,.043.4.006.309.073.234,0,.138L.2,0C.319.469.643-.288.767.18Z" fill="#f09fdf" fill-rule="evenodd"/></g><g transform="translate(-26.917 73.697)"><path d="M.69.147C1.1.686.051-.009.209.5-.116.6-.038.075.283,0,.393.214.526.283.69.147Z" fill="#f09fdf" fill-rule="evenodd"/></g></g></g><g transform="translate(19.404 46.866)"><g transform="translate(25.037 7.418)"><path d="M4.959,0A4.922,4.922,0,0,0,.022,3.743a1,1,0,0,0,1.957.415A3.039,3.039,0,0,1,5.717,2.081,3.041,3.041,0,0,1,8.293,5.494a1,1,0,0,0,1.957.415A5.035,5.035,0,0,0,6.131.125,5.557,5.557,0,0,0,4.959,0Z" fill="#143642"/></g><g transform="translate(0 2.121)"><path d="M4.959,0A4.922,4.922,0,0,0,.022,3.743a1,1,0,0,0,1.957.415A3.041,3.041,0,0,1,5.717,2.081,3.041,3.041,0,0,1,8.293,5.494a1,1,0,1,0,1.956.415A5.035,5.035,0,0,0,6.13.125,5.548,5.548,0,0,0,4.959,0Z" fill="#143642"/></g><g transform="translate(13.711)"><path d="M4.949,0A5.347,5.347,0,0,0,2.268.709,4.592,4.592,0,0,0,.022,3.744a1,1,0,0,0,1.957.415A2.613,2.613,0,0,1,3.27,2.441a3.446,3.446,0,0,1,2.447-.359A3.444,3.444,0,0,1,7.809,3.4a2.612,2.612,0,0,1,.484,2.094,1,1,0,1,0,1.957.415,4.586,4.586,0,0,0-.825-3.685,5.447,5.447,0,0,0-3.3-2.1A5.653,5.653,0,0,0,4.949,0Z" fill="#143642"/></g></g><g transform="translate(10.081)"><path d="M3.163,31.99,6.806,21.749a1.337,1.337,0,0,0-.177-1.234L.257,11.707A1.34,1.34,0,0,1,1.379,9.582l10.867.3a1.34,1.34,0,0,0,1.119-.549L19.773.551A1.339,1.339,0,0,1,22.14.962L25.213,11.39a1.34,1.34,0,0,0,.869.9l10.332,3.38a1.34,1.34,0,0,1,.341,2.379l-8.968,6.145a1.335,1.335,0,0,0-.582,1.1l-.022,10.871a1.34,1.34,0,0,1-2.157,1.059l-8.615-6.63a1.339,1.339,0,0,0-1.229-.213L4.836,33.716A1.34,1.34,0,0,1,3.163,31.99Z" fill="#3a84c5"/></g></g></svg>