<svg xmlns="http://www.w3.org/2000/svg" viewBox="0 0 450 400">
  <defs>
    <clipPath id="clip">
      <rect width="450" height="400" fill="none"/>
    </clipPath>
  </defs>
  <g clip-path="url(#clip)">
    <path d="M118 238c-18-22-14-58 8-82 22-24 66-36 108-36 42 0 92 16 122 42 30 26 36 62 22 94-14 32-46 56-84 62-36 6-74-4-106-24-18-12-36-28-40-56z" fill="#35acdf"/>
    <path d="M296 124c16-18 38-28 62-28 16 0 34 6 44 18 12 12 16 28 12 42-2 12-12 22-24 28-14 8-32 6-44-4-18-14-24-36-16-56z" fill="#fff"/>
    <path d="M92 238c-10 12-18 28-26 44-12 22-26 40-16 50 10 10 32 8 54 0 12-4 24-14 30-26 4-6 0-12-8-12-10 0-12 8-22 10-8 2-18 4-24 2s-10-8-6-16c4-12 16-24 28-36 10-10 12-14 8-20z" fill="#fff"/>
    <path d="M196 96c22-20 52-30 78-26 28 4 48 20 60 42 10 16 6 34-8 48-14 14-36 20-56 16-22-6-36-28-34-52 2-16 12-28 24-38 8-6 20-10 28-8 4 2 8 6 6 10-4 10-22 14-30 22-8 8-8 20-2 28 6 8 18 10 28 8" fill="#35acdf"/>
    <path d="M236 222c14-6 30-6 44 2 12 8 16 22 12 34-4 12-18 18-32 16-8-2-16-8-22-16-4-6-6-14-4-20 2-8 10-14 18-16z" fill="#0f172a" opacity="0.75"/>
    <path d="M84 329c12-18 28-34 48-38" fill="none" stroke="#0f172a" stroke-width="16" stroke-linecap="round"/>
    <path d="M144 142c-4-10-10-20-16-26" fill="none" stroke="#0f172a" stroke-width="10" stroke-linecap="round"/>
    <path d="M320 186c8-10 18-14 28-14" fill="none" stroke="#0f172a" stroke-width="10" stroke-linecap="round"/>
  </g>
</svg>
