<svg xmlns="http://www.w3.org/2000/svg" viewBox="0 0 450 400">
  <defs>
    <clipPath id="clip">
      <rect width="450" height="400" fill="none"/>
    </clipPath>
  </defs>
  <g clip-path="url(#clip)">
    <path d="M112 232c-18-26-12-68 12-92 24-24 76-40 120-44 44-4 96 8 132 32 36 24 44 68 30 106-14 38-52 66-94 78-38 10-78 6-116-6-22-8-44-22-54-48z" fill="#f4d68e"/>
    <path d="M280 120c20-24 46-42 78-42 18 0 40 8 52 22s14 34 10 52c-4 18-16 34-34 42-18 8-40 6-56-4-22-14-32-40-22-70z" fill="#fe3232"/>
    <path d="M98 232c-10 14-20 32-30 50-14 26-30 48-18 62 12 14 42 10 70-2 14-6 30-18 38-34 5-8 0-18-8-18-10 0-14 10-28 14-10 2-22 6-30 4s-12-10-8-20c6-14 20-30 34-44 12-12 16-18 10-26z" fill="#fe3232"/>
    <path d="M190 90c24-22 56-34 86-30 32 4 56 24 70 52 10 20 6 44-10 62-16 18-42 26-66 20-26-8-44-34-42-64 2-20 14-34 28-46 10-8 24-14 34-12 6 2 10 8 8 14-4 14-26 20-36 30-10 10-10 26-2 36 8 10 24 14 38 10" fill="#f4d68e"/>
    <path d="M238 212c18-8 40-8 58 4 16 10 22 30 16 46-6 16-24 26-42 24-12-2-24-10-32-20-6-8-8-18-4-28 4-12 14-22 24-26z" fill="#1f2937" opacity="0.85"/>
    <path d="M80 325c16-22 38-40 66-44" fill="none" stroke="#1f2937" stroke-width="18" stroke-linecap="round"/>
    <path d="M150 138c-6-12-14-24-22-32" fill="none" stroke="#1f2937" stroke-width="14" stroke-linecap="round"/>
    <path d="M318 178c10-12 24-18 38-18" fill="none" stroke="#1f2937" stroke-width="12" stroke-linecap="round"/>
  </g>
</svg>
