<svg xmlns="http://www.w3.org/2000/svg" viewBox="0 0 450 400">
  <defs>
    <clipPath id="clip">
      <rect width="450" height="400" fill="none"/>
    </clipPath>
    <filter id="halo" x="-20%" y="-20%" width="140%" height="140%">
      <feGaussianBlur stdDeviation="6" result="blur"/>
      <feMerge>
        <feMergeNode in="blur"/>
        <feMergeNode in="SourceGraphic"/>
      </feMerge>
    </filter>
  </defs>
  <g clip-path="url(#clip)">
    <path d="M225 60c84 0 152 68 152 152s-68 152-152 152S73 204 73 120s68-60 152-60z" fill="transparent"/>
    <circle cx="225" cy="210" r="140" fill="none" stroke="#f59e0b" stroke-width="16" opacity="0.25"/>
    <g filter="url(#halo)">
      <circle cx="225" cy="210" r="96" fill="#fbbf24"/>
      <path d="M225 120c49 0 89 40 89 89s-40 89-89 89-89-40-89-89 40-89 89-89z" fill="none" stroke="#f59e0b" stroke-width="14"/>
    </g>
    <path d="M225 120c49 0 89 40 89 89s-40 89-89 89-89-40-89-89 40-89 89-89z" fill="none" stroke="#ea580c" stroke-width="6"/>
    <path d="M210 148h14v8h-14z" fill="#ffffff" opacity="0.9"/>
    <path d="M216 152h28" fill="none" stroke="#ffffff" stroke-width="10" stroke-linecap="round" opacity="0.9"/>
    <path d="M210 168h14v38h-14z" fill="#ffffff" opacity="0.9"/>
    <path d="M210 228h14v16h-14z" fill="#ffffff" opacity="0.9"/>
    <path d="M237 148h14v8h-14z" fill="#ffffff" opacity="0.9"/>
    <path d="M237 168h14v38h-14z" fill="#ffffff" opacity="0.9"/>
    <path d="M226 134c-10 0-18 8-18 18s8 18 18 18 18-8 18-18-8-18-18-18z" fill="#f59e0b"/>
    <path d="M195 122l20-14" stroke="#f97316" stroke-width="9" stroke-linecap="round" opacity="0.75"/>
    <path d="M255 122l-20-14" stroke="#f97316" stroke-width="9" stroke-linecap="round" opacity="0.75"/>
    <path d="M118 190l50-24" fill="none" stroke="#facc15" stroke-width="10" stroke-linecap="round" opacity="0.8"/>
    <path d="M332 190l-50-24" fill="none" stroke="#facc15" stroke-width="10" stroke-linecap="round" opacity="0.8"/>
    <path d="M128 254h44v44h-44z" fill="#111827" stroke="#f59e0b" stroke-width="6" opacity="0.9"/>
    <path d="M128 278h44" fill="none" stroke="#fbbf24" stroke-width="8" stroke-linecap="round"/>
    <path d="M128 294h44" fill="none" stroke="#fbbf24" stroke-width="8" stroke-linecap="round"/>
    <path d="M278 254h44v44h-44z" fill="#111827" stroke="#f59e0b" stroke-width="6" opacity="0.9"/>
    <path d="M278 278h44" fill="none" stroke="#fbbf24" stroke-width="8" stroke-linecap="round"/>
    <path d="M278 294h44" fill="none" stroke="#fbbf24" stroke-width="8" stroke-linecap="round"/>
    <path d="M130 318l22-18" fill="none" stroke="#f59e0b" stroke-width="10" stroke-linecap="round" opacity="0.8"/>
    <path d="M320 318l-22-18" fill="none" stroke="#f59e0b" stroke-width="10" stroke-linecap="round" opacity="0.8"/>
    <path d="M210 74l18 22" fill="none" stroke="#f97316" stroke-width="12" stroke-linecap="round" opacity="0.65"/>
    <path d="M262 74l-18 22" fill="none" stroke="#f97316" stroke-width="12" stroke-linecap="round" opacity="0.65"/>
  </g>
</svg>

