<svg xmlns="http://www.w3.org/2000/svg" width="52.44" height="52.44" viewBox="0 0 52.44 52.44">
  <g id="illustrator" transform="translate(-2 -2)">
    <path id="Tracé_8739" data-name="Tracé 8739" d="M2,20.978c0-6.643,0-9.964,1.293-12.5A11.861,11.861,0,0,1,8.476,3.293C11.014,2,14.335,2,20.978,2H35.461c6.643,0,9.964,0,12.5,1.293a11.862,11.862,0,0,1,5.184,5.184c1.293,2.537,1.293,5.859,1.293,12.5V35.461c0,6.643,0,9.964-1.293,12.5a11.862,11.862,0,0,1-5.184,5.184c-2.537,1.293-5.859,1.293-12.5,1.293H20.978c-6.643,0-9.964,0-12.5-1.293a11.862,11.862,0,0,1-5.184-5.184C2,45.426,2,42.1,2,35.461Z" fill="#300"/>
    <path id="Tracé_8740" data-name="Tracé 8740" d="M22.367,28H14.241l-1.653,5.268a.419.419,0,0,1-.422.325H8.05q-.352,0-.246-.4l7.036-20.782q.106-.325.211-.74a7.919,7.919,0,0,0,.141-1.461.224.224,0,0,1,.246-.253h5.593q.246,0,.281.18L29.3,33.237q.105.361-.211.361H24.513a.329.329,0,0,1-.352-.252Zm-6.86-4.546h5.558c-.913-3.121-1.944-6.2-2.779-9.345C17.386,17.264,16.4,20.4,15.508,23.459Z" transform="translate(5.044 6.95)" fill="#ff9a00"/>
    <path id="Tracé_8741" data-name="Tracé 8741" d="M23.052,14.629A2.5,2.5,0,0,1,22,14.444a2.548,2.548,0,0,1-.885-.609,2.87,2.87,0,0,1-.57-.953,2.921,2.921,0,0,1-.169-1.1,2.709,2.709,0,0,1,.187-1.088,2.654,2.654,0,0,1,.6-.915,2.709,2.709,0,0,1,.9-.588A2.657,2.657,0,0,1,23.122,9a2.58,2.58,0,0,1,1.988.776,2.8,2.8,0,0,1,.555.928,2.85,2.85,0,0,1,.166,1.075,2.881,2.881,0,0,1-.175,1.107,2.829,2.829,0,0,1-.582.95,2.7,2.7,0,0,1-.93.614A2.639,2.639,0,0,1,23.052,14.629ZM20.624,34.077V16.83c0-.216.093-.325.281-.325h4.327q.281,0,.281.325V34.077q0,.361-.281.361H20.941Q20.624,34.437,20.624,34.077Z" transform="translate(16.039 6.11)" fill="#ff9a00"/>
  </g>
</svg>
