<svg xmlns="http://www.w3.org/2000/svg" width="137.742" height="387.862" viewBox="0 0 137.742 387.862">
  <g id="line" transform="translate(4393.741 -250.5)">
    <g id="line-2" data-name="line">
      <g id="Groupe_6336" data-name="Groupe 6336">
        <g id="line-3" data-name="line" transform="translate(-0.37 -9.333)">
          <g id="line-4" data-name="line" transform="translate(-4324.5 650.638) rotate(90)">
            <g id="line-5" data-name="line" transform="translate(-146.804 0)">
              <g id="Groupe_6300" data-name="Groupe 6300">
                <line id="Ligne_45" data-name="Ligne 45" x2="143.862" fill="none" stroke="rgba(255,255,255,0.3)" stroke-width="1"/>
              </g>
            </g>
          </g>
        </g>
        <g id="line-6" data-name="line" transform="translate(-0.37 -253.333)">
          <g id="line-7" data-name="line" transform="translate(-4324.5 650.638) rotate(90)">
            <g id="line-8" data-name="line" transform="translate(-146.804 0)">
              <g id="Groupe_6300-2" data-name="Groupe 6300">
                <line id="Ligne_45-2" data-name="Ligne 45" x2="143.862" fill="none" stroke="rgba(255,255,255,0.3)" stroke-width="1"/>
              </g>
            </g>
          </g>
        </g>
        <g id="Groupe_6334" data-name="Groupe 6334" transform="translate(-4412.49 345.41)">
          <path id="Tracé_6915" data-name="Tracé 6915" d="M83.725,86.36S97.419,69.525,119.909,80.2l3.517,7.664s-16.332-15.2-37.062-2.262c0,0,27.388-14.322,54.148,20.6l-.126,11.308S126.944,83.6,88.123,86.738c0,0,45.6-8.543,46.986,60.555l-7.413,6.534s7.226-72.491-46.86-63.54Z" fill="rgba(255,255,255,0.3)" stroke="rgba(255,255,255,0.3)" stroke-width="1"/>
          <path id="Tracé_6916" data-name="Tracé 6916" d="M75.337,95.7S67.6,75.424,88.1,61.288l8.4.784S75.162,68.616,76,93.039c0,0,1.291-30.88,44.918-36.593l9.729,5.764s-36.1-5.319-52.789,29.87c0,0,15.4-43.766,75.937-10.414l1.951,9.687s-59.166-42.5-78.458,8.813Z" fill="rgba(255,255,255,0.3)" stroke="rgba(255,255,255,0.3)" stroke-width="1"/>
          <path id="Tracé_6917" data-name="Tracé 6917" d="M79.231,107.635s-21.426-3.442-23.423-28.257L60.686,72.5s-5,21.745,16.573,33.227c0,0-26.1-16.557-9.23-57.2l9.854-5.543s-22.655,28.6-.525,60.651c0,0-30.2-35.225,28.949-70.969l9.365,3.152s-66.391,29.988-31.6,72.352Z" fill="rgba(255,255,255,0.3)" stroke="rgba(255,255,255,0.3)" stroke-width="1"/>
          <path id="Tracé_6918" data-name="Tracé 6918" d="M91.514,110.229s-13.692,16.834-36.182,6.156l-3.518-7.663s16.331,15.2,37.062,2.261c0,0-27.388,14.322-54.149-20.6l.126-11.307s13.441,33.921,52.264,30.78c0,0-45.6,8.542-46.986-60.557l7.413-6.532S40.319,115.252,94.4,106.3Z" fill="rgba(255,255,255,0.3)" stroke="rgba(255,255,255,0.3)" stroke-width="1"/>
          <path id="Tracé_6919" data-name="Tracé 6919" d="M99.9,100.89s7.732,20.276-12.76,34.413l-8.4-.786s21.33-6.543,20.489-30.965c0,0-1.291,30.879-44.918,36.591l-9.729-5.762s36.1,5.318,52.789-29.871c0,0-15.4,43.766-75.938,10.413l-1.95-9.687s59.165,42.5,78.457-8.813Z" fill="rgba(255,255,255,0.3)" stroke="rgba(255,255,255,0.3)" stroke-width="1"/>
          <path id="Tracé_6920" data-name="Tracé 6920" d="M96.008,88.955s21.427,3.441,23.423,28.257l-4.877,6.877s5-21.743-16.573-33.226c0,0,26.1,16.557,9.23,57.194L97.357,153.6s22.654-28.6.525-60.651c0,0,30.2,35.224-28.951,70.97l-9.363-3.154s66.391-29.987,31.6-72.352Z" fill="rgba(255,255,255,0.3)" stroke="rgba(255,255,255,0.3)" stroke-width="1"/>
          <path id="Tracé_6921" data-name="Tracé 6921" d="M55.332,74.928l4.02-5.653s1.508-20.1,11.056-36.685C70.408,32.59,53.95,49.8,55.332,74.928Z" fill="rgba(255,255,255,0.3)" stroke="rgba(255,255,255,0.3)" stroke-width="1"/>
          <path id="Tracé_6922" data-name="Tracé 6922" d="M50.489,114.281,47.6,107.972S30.949,96.616,21.362,80.055C21.362,80.056,28.038,102.914,50.489,114.281Z" fill="rgba(255,255,255,0.3)" stroke="rgba(255,255,255,0.3)" stroke-width="1"/>
          <path id="Tracé_6923" data-name="Tracé 6923" d="M82.149,138.15l-6.907-.653s-18.161,8.744-37.3,8.767C37.945,146.264,61.079,151.912,82.149,138.15Z" fill="rgba(255,255,255,0.3)" stroke="rgba(255,255,255,0.3)" stroke-width="1"/>
          <path id="Tracé_6924" data-name="Tracé 6924" d="M118.65,122.668l-4.019,5.654s-1.509,20.1-11.058,36.685C103.574,165.007,120.034,147.795,118.65,122.668Z" fill="rgba(255,255,255,0.3)" stroke="rgba(255,255,255,0.3)" stroke-width="1"/>
          <path id="Tracé_6925" data-name="Tracé 6925" d="M123.494,83.315l2.885,6.309s16.654,11.356,26.243,27.917C152.622,117.541,145.944,94.682,123.494,83.315Z" fill="rgba(255,255,255,0.3)" stroke="rgba(255,255,255,0.3)" stroke-width="1"/>
          <path id="Tracé_6926" data-name="Tracé 6926" d="M91.834,59.445l6.906.655s18.162-8.744,37.3-8.768C136.039,51.332,112.9,45.685,91.834,59.445Z" fill="rgba(255,255,255,0.3)" stroke="rgba(255,255,255,0.3)" stroke-width="1"/>
        </g>
      </g>
    </g>
  </g>
</svg>
