<svg xmlns="http://www.w3.org/2000/svg" width="55.661" height="37.899" viewBox="0 0 55.661 37.899"><g transform="translate(0 -0.002)"><path d="M13.381,60.689H11.234q-.109-5.436-.625-10.255h0L7.32,60.689H5.685L2.432,50.434h0q-.358,4.616-.453,10.255H0Q.19,53.826.951,47.82H3.624l3.1,9.453h0L9.838,47.82h2.546q.833,7.03.987,12.869ZM13.381,60.689Z" transform="translate(0 -26.158)" fill="#00758f"/><path d="M39.919,55.27Q38.61,62.4,36.458,65.643q-1.671,2.5-3.669,2.491a3.574,3.574,0,0,1-1.309-.317V66.671a6.362,6.362,0,0,0,.906.054,2.147,2.147,0,0,0,1.5-.516,1.871,1.871,0,0,0,.684-1.409,9.408,9.408,0,0,0-.53-2.192L31.684,55.27H33.79l1.694,5.49a7.423,7.423,0,0,1,.476,2.609,35.925,35.925,0,0,0,1.939-8.1ZM39.919,55.27Z" transform="translate(-17.221 -30.234)" fill="#00758f"/><path d="M61.148,56.956a3.424,3.424,0,0,1-1.2,2.691,4.72,4.72,0,0,1-3.212,1.046,6.441,6.441,0,0,1-3.651-1.178l.553-1.105a6.233,6.233,0,0,0,2.754.761,2.894,2.894,0,0,0,1.812-.512,1.767,1.767,0,0,0,.7-1.431c0-.761-.53-1.413-1.508-1.961-.906-.5-2.718-1.531-2.718-1.531a3.076,3.076,0,0,1-1.468-2.718,3.212,3.212,0,0,1,1.1-2.528,4.1,4.1,0,0,1,2.822-.965,5.83,5.83,0,0,1,3.248.956l-.467,1.069a6.224,6.224,0,0,0-2.469-.535,2.206,2.206,0,0,0-1.522.453,1.608,1.608,0,0,0-.575,1.223c0,.761.544,1.422,1.545,1.979.906.494,2.754,1.549,2.754,1.549a3.038,3.038,0,0,1,1.5,2.718ZM61.148,56.956Z" transform="translate(-29.042 -25.995)" fill="#f29111"/><path d="M75.794,57.873a7.975,7.975,0,0,1-.779-4.036q0-4.865,2.949-4.86a2.469,2.469,0,0,1,2.265,1.16,7.791,7.791,0,0,1,.779,4q0,4.9-2.944,4.9a2.478,2.478,0,0,1-2.265-1.16Zm7.642,2.885-2.365-1.164a4.4,4.4,0,0,0,.589-.575,7.914,7.914,0,0,0,1.5-5.241q0-6.387-4.983-6.387a4.729,4.729,0,0,0-3.832,1.631,7.91,7.91,0,0,0-1.5,5.223q0,3.447,1.332,4.983a4.541,4.541,0,0,0,3.665,1.431,5.961,5.961,0,0,0,1.681-.226L82.6,62.222l.838-1.445ZM83.436,60.759Z" transform="translate(-39.851 -25.92)" fill="#f29111" fill-rule="evenodd"/><path d="M105.852,60.689h-6.1V47.82H101.8V59.1h4.05v1.585Z" transform="translate(-54.566 -26.158)" fill="#f29111"/><path d="M115.9,74.316h.34V73.007h.453V72.74h-1.25v.267h.453v1.309Zm2.591,0h.322V72.74h-.485l-.394,1.078-.426-1.078h-.453v1.576h.3v-1.2h0l.453,1.2h.231l.453-1.2v1.2ZM118.488,74.316Z" transform="translate(-63.149 -39.79)" fill="#f29111"/><path d="M93.553,17.354a7.184,7.184,0,0,0-3.008.453c-.231.1-.6.1-.634.39.122.122.136.326.249.5a3.565,3.565,0,0,0,.8.947c.326.249.652.5,1,.716.6.371,1.286.589,1.871.965.344.217.684.494,1.028.729.168.122.276.326.494.4v-.045c-.109-.14-.14-.344-.249-.5l-.453-.453a7.469,7.469,0,0,0-1.613-1.572c-.5-.344-1.585-.811-1.785-1.359L91.22,18.5a6.12,6.12,0,0,0,1.069-.254c.53-.136,1.01-.1,1.549-.245.249-.063.5-.14.747-.217v-.14c-.281-.281-.48-.652-.775-.906a21.244,21.244,0,0,0-2.559-1.912c-.48-.308-1.1-.512-1.613-.775-.186-.1-.494-.14-.6-.3a6.282,6.282,0,0,1-.639-1.2A28.556,28.556,0,0,1,87.13,9.835a16.947,16.947,0,0,0-.784-1.807,15.655,15.655,0,0,0-6.02-5.816,7.284,7.284,0,0,0-1.984-.634c-.385,0-.775-.05-1.16-.063A6.07,6.07,0,0,1,76.467.97C75.561.409,73.3-.8,72.653.8c-.417,1.015.621,2.007.978,2.519a7.406,7.406,0,0,1,.788,1.164c.109.267.14.548.249.824a18.888,18.888,0,0,0,.806,2.084,7.637,7.637,0,0,0,.575.965c.122.172.34.249.385.53a4.484,4.484,0,0,0-.353,1.164,6.817,6.817,0,0,0,.453,5.223c.245.39.838,1.246,1.626.906.7-.276.544-1.164.747-1.939.045-.19,0-.313.1-.453v.027c.217.453.453.856.639,1.291a8.9,8.9,0,0,0,2.011,2.111c.371.281.666.761,1.132.933V18.12h-.032a1.812,1.812,0,0,0-.358-.313,7.388,7.388,0,0,1-.806-.933,19.588,19.588,0,0,1-1.735-2.831c-.249-.485-.453-1.015-.666-1.495-.1-.186-.1-.453-.249-.557a5.436,5.436,0,0,0-.756,1.042,8.607,8.607,0,0,0-.453,2.346c-.063,0-.032,0-.063.032-.494-.127-.666-.639-.852-1.074a6.727,6.727,0,0,1-.14-4.149c.109-.326.575-1.359.385-1.662-.091-.3-.4-.453-.571-.7a5.785,5.785,0,0,1-.557-.992c-.371-.874-.562-1.835-.96-2.718a8.715,8.715,0,0,0-.779-1.2,7.6,7.6,0,0,1-.852-1.209c-.077-.172-.186-.453-.063-.639a.249.249,0,0,1,.217-.2c.2-.172.775.045.978.14a7.75,7.75,0,0,1,1.567.806c.217.154.453.453.725.525H77.1c.5.109,1.055.032,1.522.172a9.8,9.8,0,0,1,2.233,1.074A13.757,13.757,0,0,1,85.689,8.9c.19.353.267.684.453,1.055.326.761.729,1.54,1.055,2.265a10.35,10.35,0,0,0,1.1,2.084c.236.326,1.164.5,1.581.67a10.833,10.833,0,0,1,1.074.453c.525.326,1.051.7,1.549,1.055.245.19,1.024.575,1.069.906ZM93.553,17.354Z" transform="translate(-39.69 0)" fill="#00758f" fill-rule="evenodd"/><path d="M83.229,8.48a2.355,2.355,0,0,0-.639.082v.032h.032a5.69,5.69,0,0,0,.5.634c.122.249.231.5.353.747l.032-.032a.874.874,0,0,0,.326-.775c-.091-.109-.109-.217-.186-.326s-.294-.231-.417-.358ZM83.229,8.48Z" transform="translate(-45.179 -4.638)" fill="#00758f" fill-rule="evenodd"/></g></svg>