<svg id="panda" xmlns="http://www.w3.org/2000/svg" xmlns:xlink="http://www.w3.org/1999/xlink" width="261.518" height="229.342" viewBox="0 0 261.518 229.342">
  <defs>
    <clipPath id="clip-path">
      <rect id="Rectangle_31" data-name="Rectangle 31" width="261.518" height="229.342" fill="none"/>
    </clipPath>
  </defs>
  <g id="Groupe_6274" data-name="Groupe 6274" clip-path="url(#clip-path)">
    <path id="Tracé_7100" data-name="Tracé 7100" d="M72.452,97.169c-.834.08-1.266.538-.565-.418,1.334-1.741,3.582-5.079,3.7-7.854.415-3.261.494-9.02-3.594-9.548-.7-.321-3.462.537-3.1-.139.9-2.15,2.2-4.183,2.894-6.645.807-3.031,1.54-8.243.22-10.728-1.094-1.918-3.589-.972-5.215-.236-1.382.623-2.19,1.041-2.216.735a17.005,17.005,0,0,1,1.066-2.724,13.569,13.569,0,0,0,.926-7.528c-.388-4.228-2.992-7.276-7.069-6.351-.857.055-.593-.883-.578-1.555.723-4.832-.3-15.754-7.619-11.952-2.436,1.34-2.489,1.359-2.654-1.32-.3-3.472-3.034-11.568-6.277-13.113-2.16-.972-4.717,2.9-5.529,3.5-.112.078-.2.1-.308,0-.828-1.193-1.137-2.886-1.808-4.279-1.659-3.853-7.417-9.9-10.972-11.273-1.332-.175-1.247,1.015-1.068,2.614a159.345,159.345,0,0,1,3.836,35.871C25.911,57.886,28.833,64,38.076,73.893a64.091,64.091,0,0,1,8.195,10.668c3.49,6.03,4.4,12.979,5.2,19.854a73.691,73.691,0,0,1-.267,21.078c-.73,6.957,6.945,12.776,12.7,7.373,7.561-6.125,9.98-16.377,12.144-25.6.821-4.895,5.478-12.228-3.593-10.1" fill="#e5e7eb"/>
    <path id="Tracé_7101" data-name="Tracé 7101" d="M29.948,15.465c.862,1.18,2.3,2.048,3.338,3.189,1.065.981,1.945,2.273,3.056,3.148.71.383.1-.762-.059-1.056-1.375-2.24-3.545-4.6-6.076-5.488-.214-.04-.314.007-.284.136Z" fill="#35acdf"/>
    <path id="Tracé_7102" data-name="Tracé 7102" d="M43.874,23.939C43.563,25,50.98,39.383,49.08,32.085c-1.139-2.87-2.527-6.007-4.76-8.167-.222-.158-.37-.174-.427-.043" fill="#35acdf"/>
    <path id="Tracé_7103" data-name="Tracé 7103" d="M54.416,37.874c1.281,3.6,2.967,7.312,3.512,11.169a13.306,13.306,0,0,0,.457,1.737c.129.335.246.46.337.352a5.466,5.466,0,0,0,.162-2.158c-.369-3.909-1.56-8.155-4.121-11.2-.242-.227-.368-.22-.355.021Z" fill="#35acdf"/>
    <path id="Tracé_7104" data-name="Tracé 7104" d="M63.674,52.623c.518.969.891,7.964,1.891,7.235.747-.881-.223-8.219-1.9-7.239" fill="#35acdf"/>
    <path id="Tracé_7105" data-name="Tracé 7105" d="M68.636,66.34c.57,3.363.132,6.671.1,10,.186,2.087,1.153.3,1.3-.7.405-2.187.821-8.175-1.4-9.3" fill="#35acdf"/>
    <path id="Tracé_7106" data-name="Tracé 7106" d="M50.346,83.347c.766,3.949,1.739,7.91,2.13,11.975.168.731.162,2.127.74,2.464.4-.339.374-1.539.415-2.156-.054-4.214-.72-8.912-3.282-12.283" fill="#35acdf"/>
    <path id="Tracé_7107" data-name="Tracé 7107" d="M68.2,90a3.813,3.813,0,0,1-.644.273c-.1.015-.211-.069-.406-.2-.16-.155-.487-.235-.349-.266a4.763,4.763,0,0,0,3.142-3.467c.8-2.382-.177-4.839-.03-7.32.164-1.475-.161-2.722-2.016-2.494a7.157,7.157,0,0,0-2.511.921c-.167.052-.619-.277-.887-.237,3.313-2.4,3.334-8.948,2.841-12.827-.119-.669-.339-1.669-1.19-1.479-1.878.639-3.352,2.658-5.364,2.525,3.6-1.8,2.561-7.329,1.43-10.458-.909-2.841-2.167-2.67-4.484-1.388-.521.2-1.25.033-.926-.3,1.881-2.622.085-7.1-1.1-9.766-.819-1.727-2.189-1.168-3.486-.175-.763.38-3.381,3.051-2.581,1.1,1.456-3.816-2.55-6.864-3.629-10.366-.241-.549-.5-1.2-1.032-1.355-1.11-.1-2.726,1.582-3.073,2.581a3.748,3.748,0,0,0-.145.9c-.009.155-.056.089-.282.064-.393-.088-.939.351-1.117.721,1.812-3.709-6.139-10.02-8.964-11.917-.829-.523-1.689-.834-1.15.71a105.542,105.542,0,0,1,4.207,29.88c-.666,10.356,6.547,15.4,12.676,22.4,4.956,5.478,5.8,13.017,6.727,20.053a45.927,45.927,0,0,1,.35,8.681c0,2.1-.846,4.186-.814,6.177a2.822,2.822,0,0,0,.876,1.432c1.336,1.063,2.747,2.885,4.352,3.39a2.71,2.71,0,0,0,1.83-.505,17.112,17.112,0,0,0,7-7.9c2.828-6.231,2.9-13.192,5.067-19.5.287-1.382-.681-1.046-1.986-.7a12.961,12.961,0,0,0-2.211.739" fill="#85dcff"/>
    <path id="Tracé_7108" data-name="Tracé 7108" d="M52.878,45.179a9.986,9.986,0,0,0,.449,2.217c.817,2.523.454,5.308,1.131,7.813.619,1.046,1.043-.945,1.081-1.447a13.31,13.31,0,0,0-2.315-8.579c-.176-.185-.291-.211-.332-.073Z" fill="#35acdf"/>
    <path id="Tracé_7109" data-name="Tracé 7109" d="M34.731,30.641a4.916,4.916,0,0,0,.894,1.571c1.448,1.758,2.565,3.965,4.186,5.546.474.322.541-.061.465-.513a13.674,13.674,0,0,0-3.766-6.02c-.327-.272-1.644-1.421-1.789-.682Z" fill="#35acdf"/>
    <path id="Tracé_7110" data-name="Tracé 7110" d="M64.731,70.258c-.43,2.685-.3,5.612-.829,8.319-.1.64-.107,2.544.721,1.257a14.236,14.236,0,0,0,.9-9.118c-.133-.389-.432-1.071-.745-.555Z" fill="#35acdf"/>
    <path id="Tracé_7111" data-name="Tracé 7111" d="M69.493,92.169c-1.987,3.017-.907,7.112-1.944,10.589-.3,1.413-1,2.98-1.225,4.352-.144,2.3,2.434-1.775,2.555-2.411C70.4,101.166,69.8,97.223,70,93.525c-.038-.472.015-1.465-.45-1.388Z" fill="#35acdf"/>
    <path id="Tracé_7112" data-name="Tracé 7112" d="M64.161,109.838c-.717.684-1.575,2.275-2.551,3-.406.4-2.3,1.777-1.089,2.043,1.995-.082,4.013-2.389,4.238-4.324.038-.358-.067-1.005-.5-.777Z" fill="#35acdf"/>
    <path id="Tracé_7113" data-name="Tracé 7113" d="M66.234,102.443a13.691,13.691,0,0,0-1.175,1.86c-1.126,2.173-3.1,3.918-4.281,6.028-.324,1.247,1.483-.052,1.843-.4a12.591,12.591,0,0,0,3.945-7.448c-.023-.2-.115-.234-.265-.1Z" fill="#35acdf"/>
    <path id="Tracé_7114" data-name="Tracé 7114" d="M58.781,111.02c-.3.178-1.058.622-1.175.931-.053.154.2.118.435-.049.195-.149,1.078-.769.825-.919Z" fill="#35acdf"/>
    <path id="Tracé_7115" data-name="Tracé 7115" d="M65.919,100.349a2.712,2.712,0,0,0,.621-1.9c-.112-.818-.7-.39-.913.161-.283.552-.465,1.908.2,1.813Z" fill="#35acdf"/>
    <path id="Tracé_7116" data-name="Tracé 7116" d="M41.029,71.671c1.369,1.38,2.371,3.289,3.985,4.374,1.222.119-.554-2.22-.949-2.591-.839-.738-1.807-2.415-3.032-1.784" fill="#35acdf"/>
    <path id="Tracé_7117" data-name="Tracé 7117" d="M230.285,42.339c-3.057.6-6.243.349-9.453.363-1.675.051-2.65-.035-.894-1.419a43.741,43.741,0,0,0,7.672-7.829,21.069,21.069,0,0,0,3.981-9.739c.108-1.042.275-2.324-.347-3.1-.718-.836-2.666.132-4.35.435-2.033.457-3.987.723-2.2-1.678,3.644-5.194,6.119-11.656,5.042-17.925-.317-1.416-.76-2.248-2.013-.3a48.1,48.1,0,0,1-4.708,5.972c-6.089,6.612-14.015,12.051-21.79,17.11C167.835,43.4,128.04,55.91,94.8,74.566,81.516,82.3,79.747,94.691,73.419,107.29c-5.351,10.044-11.983,22.89-24.315,24.547-.5.075-.78.121-.791.175-.006.02.022.041.082.065.5.157,2.005.506,3.9.987,9.271,2.185,20.974,5.419,30.01,7.36,16.53,2.893,19.427-7.154,33.652,7.915,8.171,8.456,17.708,15.855,28.624,20.306,3.395,1.5,4-3.251,3.791-5.927-.128-1.936-1.05-3.873,1.026-3.316,8.222,2.893,6.332-1.976,4.79-7.593-.118-.9.762-.861,1.425-.768,4.981.73,11.438,1.864,6.925-5.416-.748-1.273-2.231-2.439-2.138-3.131.09-.594.916-.778,1.482-.964a34.784,34.784,0,0,0,12.44-5.579c.565-.433,1.2-1.185.343-1.635-.858-.611-5.592-1.167-3.384-2.691,5.741-2.822,11.633-6.394,14.789-12.036,1.112-1.956-.544-1.833-1.972-1.707-2.547.12-5.362-.168-2.438-1.727,8.176-4.778,14.413-12.258,21.309-18.566.415-.875-1.734-.67-3.279-1.146-.7-.164-1.4-.353-2.1-.524-1.3-.366-2.886-.478-1.937-1.125,8.431-3.384,16.872-7.761,22.492-14.368.361-.5,1.119-1.132.8-1.686-.353-.409-2.624.114-3.667.149-1.268.058-4.61.373-4.826-.395-.044-.659.7-1.1,1.165-1.569,4.642-4.172,9.52-8.424,12.935-13.762.9-1.526,1.968-3.658-1.045-2.511-3.5,1.118-7.282,2.274-10.834,1.6-.839-.556.854-1.373,1.351-1.788,7.085-4.748,13.119-10.787,16.255-18.117" fill="#35acdf"/>
    <path id="Tracé_7118" data-name="Tracé 7118" d="M227.91,24.053c-1.332,1.028-2.373,3.308-3.361,4.809-2.795,4.975-7.433,8.725-11.563,12.506-1.1,1.209-.29,1.09.805.568,6.287-3.368,11.889-9.36,14.257-15.95.161-.608.641-2.091-.081-1.961Z" fill="#35acdf"/>
    <path id="Tracé_7119" data-name="Tracé 7119" d="M223.428,46.166a50.291,50.291,0,0,1-15.172,13c-1.535.857-3.46,1.788-4.817,2.736-.546.391-.756.662-.587.765,6.938-.674,18.868-9.86,20.578-16.5" fill="#35acdf"/>
    <path id="Tracé_7120" data-name="Tracé 7120" d="M219.581,63.447a156.218,156.218,0,0,1-16.659,12.138,36.712,36.712,0,0,0-3.446,2.371c-.473.4-.651.653-.5.726.92.069,2.621-.836,3.647-1.295,6.312-3.492,13.472-7.515,16.956-13.936" fill="#35acdf"/>
    <path id="Tracé_7121" data-name="Tracé 7121" d="M213.1,80.639A59.444,59.444,0,0,1,195.3,90.773c-1.745.618-3.865,1.246-5.447,2.009-.661.325-.943.582-.787.723,6.557.569,21.24-6.942,24.028-12.866" fill="#35acdf"/>
    <path id="Tracé_7122" data-name="Tracé 7122" d="M194.393,99.352a14.558,14.558,0,0,0-2.984,2.054c-3.19,2.679-6.572,5.258-10,7.7a16.271,16.271,0,0,0-2.647,2.3c-.316.389-.4.65-.219.74.895.143,2.308-.761,3.219-1.252a57.832,57.832,0,0,0,11.946-10.027c.3-.4,1.3-1.485.741-1.525Z" fill="#35acdf"/>
    <path id="Tracé_7123" data-name="Tracé 7123" d="M182.129,118.747c-5.152,4.47-11.246,7.1-17.559,9.427-1.143.6-.212.567.639.442,5.215-.97,15.457-4.578,16.924-9.869" fill="#35acdf"/>
    <path id="Tracé_7124" data-name="Tracé 7124" d="M167.964,134.858c-2.635.6-5.135,1.951-7.916,2.4-.49.174-1.982.42-1.777,1a3.148,3.148,0,0,0,1.827.315,13.717,13.717,0,0,0,7.773-2.786c.3-.286.793-.838.2-.928Z" fill="#35acdf"/>
    <path id="Tracé_7125" data-name="Tracé 7125" d="M158.08,147.827c-1.962-.973-4.339-1.472-6.428-2.293a4.5,4.5,0,0,0-1.082-.2c-.518,0-.454.3-.168.587a12.8,12.8,0,0,0,6.457,2.508c.4.01,1.7.057,1.3-.532Z" fill="#35acdf"/>
    <path id="Tracé_7126" data-name="Tracé 7126" d="M151.145,155.943a16.516,16.516,0,0,0-2.531-1.357c-.7-.2-3.458-2.327-3.713-1.309.275,1.105,1.665,1.9,2.692,2.4.6.344,3.928,1.366,3.626.346Z" fill="#35acdf"/>
    <path id="Tracé_7127" data-name="Tracé 7127" d="M143.76,165.507a17.277,17.277,0,0,0-2.525-1.651,99.74,99.74,0,0,1-10.688-7.552c-.677-.409-2.026-1.6-2.6-1.41.246.718,1.4,1.606,2.064,2.222,4.069,3.186,8.79,7.049,13.766,8.418" fill="#35acdf"/>
    <path id="Tracé_7128" data-name="Tracé 7128" d="M199.157,87.879c.516-.071,2.9-.923,2.461-1.519-.283-.282-4.244,1.049-2.613,1.526Z" fill="#35acdf"/>
    <path id="Tracé_7129" data-name="Tracé 7129" d="M204.87,84.962a3.981,3.981,0,0,0,1.123-.444c1.672-1.051,3.915-2.086,5-3.87.18-.5-.216-.476-.633-.311a14.059,14.059,0,0,0-2.6,1.763c-.386.416-3.975,2.572-3,2.871Z" fill="#35acdf"/>
    <path id="Tracé_7130" data-name="Tracé 7130" d="M190.691,99c-.813.559-12.858,8.647-6.437,5.912a26.3,26.3,0,0,0,5.486-3.951,2.855,2.855,0,0,0,.95-1.963" fill="#35acdf"/>
    <path id="Tracé_7131" data-name="Tracé 7131" d="M148.024,152.668a7.368,7.368,0,0,0,2.552,1.052c.549.061.828-.247.474-.518a5.957,5.957,0,0,0-1.3-.54c-.528-.144-1.5-.952-1.9-.445a.387.387,0,0,0,.082.366Z" fill="#35acdf"/>
    <path id="Tracé_7132" data-name="Tracé 7132" d="M165.088,126.357a22.7,22.7,0,0,0,6.028-1.16c2.245-1.685-4.526.149-5.018.335a1.4,1.4,0,0,0-1.009.825" fill="#35acdf"/>
    <path id="Tracé_7133" data-name="Tracé 7133" d="M174.363,122.418c.57.105,2.024-.089,1.982-.856-.036-.344-.587-.244-.862-.195a8.443,8.443,0,0,0-1.2.183.435.435,0,0,0-.044.845Z" fill="#35acdf"/>
    <path id="Tracé_7134" data-name="Tracé 7134" d="M206.364,58.2c3.2-1,6.307-3.55,8.6-5.849.548-.548,1.687-2.208.045-1.336-2.467,1.592-4.743,3.67-7.2,5.239-.368.282-2.45,1.761-1.542,1.95Z" fill="#35acdf"/>
    <path id="Tracé_7135" data-name="Tracé 7135" d="M218.441,48.27a7.015,7.015,0,0,0,.987-1.226c.258-.368.3-.823-.011-.817-.524-.021-2.324,2.121-.978,2.043" fill="#35acdf"/>
    <path id="Tracé_7136" data-name="Tracé 7136" d="M57.389,130.144c2.287-1.724,4.786-5.227,6.681-7.645,7.879-11.01,15.153-23.018,19.558-35.9.624-2.16.232-2.027-.763-.094-2.809,5.784-5.361,12.033-8.5,17.707a165.142,165.142,0,0,1-13.715,20.811c-.859,1.328-3.253,4.066-3.283,5.121Z" fill="#35acdf"/>
    <path id="Tracé_7137" data-name="Tracé 7137" d="M85.688,82.11c3.618-2.619,7.014-6.061,11.011-8.218.753-.553,2.679-1.452,2.851-2.186a6.438,6.438,0,0,0-2.488.842,36.95,36.95,0,0,0-9.989,7.49,14.372,14.372,0,0,0-1.33,1.632c-.2.312-.237.47-.1.451Z" fill="#35acdf"/>
    <path id="Tracé_7138" data-name="Tracé 7138" d="M91.8,141.465a36.489,36.489,0,0,1,11.123-2.965c.346-.09,1.155-.141,1.12-.4a5.414,5.414,0,0,0-1.944-.147c-3.558.333-7.618,1.149-10.3,3.507" fill="#35acdf"/>
    <path id="Tracé_7139" data-name="Tracé 7139" d="M191.187,55.153c-.507-.01-1.013-.018-1.52-.014-.862.035-1.488.032-.711-.588a27.308,27.308,0,0,0,10.357-19.219c-.037-.342-.249-.415-.606-.255-3.692,2.083-7.544,4.154-11.385,6.017-11.527,5.633-23.486,10.234-35.5,14.848-16.036,6.163-32.13,12.3-46.886,20.68a33.916,33.916,0,0,0-5.353,4.107c-3.369,3.355-5.156,7.785-7.454,11.826a145.863,145.863,0,0,1-22.21,30.165,3.035,3.035,0,0,0-.413.495c-.048.09-.039.147.017.2,1.267.776,12.29,7.384,15.555,9.35.83.482.84.706,1.649.146,4.787-2.8,10.01-2.852,15.9-1.148,4.577,1.228,8.113,4.721,11.608,7.7,5.724,4.425,10.826,9.675,16.615,14.048a86.8,86.8,0,0,0,8.215,5.5c.46.253.828.249,1-.312.542-2.5,1.17-5.162.49-7.625a28.248,28.248,0,0,0-2.6-5.331c.144-.151.843.428,1.162.587.912.789,8.35,3.655,8.408,1.918a33.341,33.341,0,0,0-5.289-9.906c3.507,1.806,7.556,3.816,11.658,4.42.777.145.808-.344.525-.93a50.506,50.506,0,0,0-5.223-9.386c-.236-.354-.41-.684.164-.563,4.159,1.117,8.8.1,12.987-.589.45-.088.592-.177.189-.439a26.386,26.386,0,0,1-4.438-3.235c-1.262-1.311-3.221-2.924-3.728-4.607.054-.107.2-.162.415-.186a15.348,15.348,0,0,0,3.421-.42c4.783-1.3,9.754-3.431,13.372-6.856.02-.305-.43-.353-.706-.44a60.412,60.412,0,0,1-6.686-2.747c-.614-.257-.439-.41.045-.715,6.923-4.135,11.985-10.9,16.023-17.825.782-1.254-1.176-1.315-1.959-1.858a37.5,37.5,0,0,0-5.394-2.539c-.594-.2-.734-.406-.034-.57,7.067-1.94,19.433-8.746,21.124-15.9.049-.382-.175-.569-.644-.566-3.808.229-8.14.56-11.627-1.091a16.545,16.545,0,0,0,11.229-6.369c1.984-2.657,3.936-6.407,4.031-9.69a.5.5,0,0,0-.329-.151,38.432,38.432,0,0,1-5.464.061" fill="#e5e7eb"/>
    <path id="Tracé_7140" data-name="Tracé 7140" d="M193.328,41.6a13.31,13.31,0,0,0-1.975,3.006,25.143,25.143,0,0,1-6.563,8.361,38.2,38.2,0,0,0-3.267,2.681c-.377.415-.468.708-.247.827,5.807-.4,10.008-7.428,11.881-12.246.165-.508,1.02-2.951.227-2.668Z" fill="#35acdf"/>
    <path id="Tracé_7141" data-name="Tracé 7141" d="M193.157,56.852c-1.3.9-2.621,2.942-3.752,4.243-3.481,4.66-8.815,7.456-13.562,10.545-1.2.977-.562,1.185.6.9,7.023-2.282,14.016-8.225,16.9-15,.172-.55.126-.8-.128-.712Z" fill="#35acdf"/>
    <path id="Tracé_7142" data-name="Tracé 7142" d="M189.813,73.92c-1.646.85-3.378,3.012-4.832,4.378-3.982,4.339-9.619,6.876-14.949,9.131-1.447.805-.792,1.084.471.942,7.453-1.313,14.2-6.535,18.637-12.408.335-.547,1.3-1.927.723-2.052Z" fill="#35acdf"/>
    <path id="Tracé_7143" data-name="Tracé 7143" d="M175.4,94.123a21.543,21.543,0,0,0-2.9,3.707c-3.432,5.627-8.655,8.921-13.809,12.714-.537.49-.712.811-.475.9,6.854-1.343,14.353-9.308,17.052-15.35.23-.58.967-2.331.19-2.01Z" fill="#35acdf"/>
    <path id="Tracé_7144" data-name="Tracé 7144" d="M163.639,114.68c-4.136,3.549-9.26,5.438-14.353,7.252-.42.212-.588.381-.465.482,4.413.479,13.143-3.605,14.813-7.734" fill="#35acdf"/>
    <path id="Tracé_7145" data-name="Tracé 7145" d="M156.01,127.681a23.627,23.627,0,0,1-12.129.037,11.158,11.158,0,0,0-2.2-.325c-.423.007-.632.117-.587.317,2.277,3,13.145,3.848,14.918-.033" fill="#35acdf"/>
    <path id="Tracé_7146" data-name="Tracé 7146" d="M149.1,138.415a9.581,9.581,0,0,0-2.075-1.127c-2.578-1.017-4.8-2.925-7.35-3.908-1.386-.188.329,1.509.742,1.823a16.116,16.116,0,0,0,8.517,3.575c.279-.031.358-.136.225-.3Z" fill="#35acdf"/>
    <path id="Tracé_7147" data-name="Tracé 7147" d="M143.07,145.341a6.849,6.849,0,0,0-1.586-1.584c-2.379-1.687-4.278-4.17-6.757-5.626-.573-.187-.483.286-.3.689,1.529,2.652,4.243,4.616,6.817,6.279.38.2,1.973,1.069,1.86.33" fill="#35acdf"/>
    <path id="Tracé_7148" data-name="Tracé 7148" d="M133.688,135.943c-.613-.7-1.669-2.38-2.616-2.562-.841.418.607,1.787,1.039,2.233.293.368,1.668,1.354,1.628.454Z" fill="#35acdf"/>
    <path id="Tracé_7149" data-name="Tracé 7149" d="M136.741,137.987c-.885-.756-1.393-2-2.337-2.643a.23.23,0,0,0-.29.05c-.5.6,2.252,4.188,2.624,2.593" fill="#35acdf"/>
    <path id="Tracé_7150" data-name="Tracé 7150" d="M138.637,131.413c-.478-.285-1.621-.975-1.894-.205-.018.876,2.364,1.884,1.959.348" fill="#35acdf"/>
    <path id="Tracé_7151" data-name="Tracé 7151" d="M188.652,43.688a14.1,14.1,0,0,0-2.54,3.349c-.364,1.65,1.438.371,1.77-.347.462-.8,1.995-2.373.77-3" fill="#35acdf"/>
    <path id="Tracé_7152" data-name="Tracé 7152" d="M184.9,75.212c-2.471,2.6-5.6,4.611-8.5,6.721-.668.772.827.274,1.209.137,2.505-1.018,7.543-3.908,7.288-6.854" fill="#35acdf"/>
    <path id="Tracé_7153" data-name="Tracé 7153" d="M174.747,83.049c-.336.219-1.968.94-1.487,1.419.534.156,1.589-.522,1.992-.9.315-.345-.008-.681-.365-.567Z" fill="#35acdf"/>
    <path id="Tracé_7154" data-name="Tracé 7154" d="M172.353,93.913a11.019,11.019,0,0,0-2.956,3.674c.025,1.186,1.9-.456,2.288-.9.648-.731,1.551-1.688,1.233-2.681a.339.339,0,0,0-.443-.138Z" fill="#35acdf"/>
    <path id="Tracé_7155" data-name="Tracé 7155" d="M166.85,100.11c-.62.5-.076.728.551.38.688-.28,1.269-1.163.987-1.363-.145-.127-.492.042-.82.309-.486.331-.909.88-.78.892.085-.009.333-.258.138-.254Z" fill="#35acdf"/>
    <path id="Tracé_7156" data-name="Tracé 7156" d="M148.836,119.966a12.05,12.05,0,0,0,6.208-.88c.39-.171.9-.614.206-.684a29.074,29.074,0,0,0-4.24.586c-1.285.169-2.888.507-2.277.932Z" fill="#35acdf"/>
    <path id="Tracé_7157" data-name="Tracé 7157" d="M159.307,67.587c-2.593.666-5.481.655-8.172.963a1.923,1.923,0,0,0-1.121.626,36.906,36.906,0,0,1-5.505,5.923c-.13.113-.226.195-.263.226a36.12,36.12,0,0,0,3.111-2.958,28.621,28.621,0,0,0,2.6-3.18c.07-.13.092-.229.052-.288-2.849.177-5.744,2.06-7.921,3.911a18.531,18.531,0,0,1,7.844-4.091,2.21,2.21,0,0,0,.985-.871,34.08,34.08,0,0,0,5.608-16.187c.02-.535-.233-.635-.649-.43-8.31,4.313-16.816,8.321-25.459,11.936-13.141,5.616-27.995,9.246-37.63,20.351A51.255,51.255,0,0,0,82.737,99.527,96.1,96.1,0,0,1,75.8,113.156c-2.435,4.664-5.972,7.6-9.052,12.041-.556.765-.241.624.573,1.24,4.285,2.919,10.363,7.193,14.035,9.648,3.266-.233,6.317-2.027,9.274-3.347a41.3,41.3,0,0,1,27.484-2.563,18.3,18.3,0,0,1,5.2,2.308.7.7,0,0,0,.548.12.666.666,0,0,0,.342-.442,17.063,17.063,0,0,0,.029-10.238c-.463-1.25-1.735-1.929-2.553-2.949-.926-1.025.129.167.684.716.513.5,1.929,1.981,1.1.388a14.348,14.348,0,0,0-1.716-2.593c.9.884,1.654,2.694,2.423,3.764a26.668,26.668,0,0,0,13.371,5.948c.5.049.681-.157.536-.645a27.3,27.3,0,0,0-6.963-10.9c-1.286-1.044-3.114-.989-4.594-1.7-.483-.18-1.1-.436-1.073-.425a22.13,22.13,0,0,0,4.587,1.442c.108,0,.155-.034.136-.1a19.773,19.773,0,0,0-3.44-2.709c1.364.731,2.777,2.349,4.223,3,5.5,1.09,13.848.527,18.1-3.416.027-.121-.071-.205-.267-.26a29.273,29.273,0,0,1-3.252-.673c-3.507-.834-6.385-2.989-9.243-5.031-1.275-.112-2.97.3-4.255.067,1,.048,2.923.2,3.892-.286.218-.191-.157-.568-.514-.957-.4-.447-.826-1-1.071-1.32.259.3,1.391,1.969,2.064,2.1,1.4.067,2.785-.761,4.086-1.238,6.334-3.081,12.971-8.483,14.97-15,.092-.353.15-.819-.382-.793a33.294,33.294,0,0,1-7.481.1,31.024,31.024,0,0,1-7.321-1.7,3.049,3.049,0,0,0-1.984.1c-.163.031,1.209-.268.757-.54-.718-.4-2.065-.974-2.748-1.389,1.158.526,2.612,1.708,3.974,1.3,8.59-2.816,17.786-9.1,19.086-18.564" fill="#85dcff"/>
    <path id="Tracé_7158" data-name="Tracé 7158" d="M155.265,70.148c-1.589.97-3.307,3.058-4.767,4.438-4.5,4.768-10.677,7.543-16.212,10.789-1.342.969-.465.98.707.667,7.78-2.584,16.326-8.163,20.49-15.287.23-.538.172-.762-.157-.632Z" fill="#35acdf"/>
    <path id="Tracé_7159" data-name="Tracé 7159" d="M150.975,90.708c-1.662.775-3.444,2.8-4.937,4.088-4.366,4.331-10.3,6.83-15.8,9.319-1.384.8-.652.944.507.759a36.342,36.342,0,0,0,19.667-12.281c.351-.518,1.379-1.912.625-1.9Z" fill="#35acdf"/>
    <path id="Tracé_7160" data-name="Tracé 7160" d="M124.31,109.7c2.552,4.5,9.116,5.176,14.007,4.609.856-.167,2.355-.312,2.776-.952.019-.146-.193-.268-.6-.352-3.976-.4-8.221.253-11.974-1.692-1.052-.484-2.361-1.27-3.338-1.656-.522-.2-.827-.212-.865-.011" fill="#35acdf"/>
    <path id="Tracé_7161" data-name="Tracé 7161" d="M121.1,114.519c1.134,3.291,3.751,5.677,6.729,7.54.539.528,4.987,2.438,3.231.417-1.527-1.34-3.628-2.265-5.256-3.531-2.019-1.48-3-3.142-4.7-4.427" fill="#35acdf"/>
    <path id="Tracé_7162" data-name="Tracé 7162" d="M102.673,126.214c1.3.427,3.393.107,4.873.068a27.007,27.007,0,0,1,10.153,1.074,29.787,29.787,0,0,0,4.059,1.1c.615.078.958,0,.966-.214-3.118-3.811-11.523-3.923-16.241-3.309a15.606,15.606,0,0,0-3.38.781c-.441.185-.607.353-.47.475" fill="#35acdf"/>
    <path id="Tracé_7163" data-name="Tracé 7163" d="M99.514,126.895a9.606,9.606,0,0,0-6.8,1.738c-.4.288-.729.808.031.677,1.97-.542,4.077-1.307,6.1-1.793.3-.122.979-.293.743-.579Z" fill="#35acdf"/>
    <path id="Tracé_7164" data-name="Tracé 7164" d="M101.169,124.839a14.79,14.79,0,0,0-1.724.337c-1.246.349-.521.735.347.523.414-.108,2.243-.177,1.373-.858" fill="#35acdf"/>
    <path id="Tracé_7165" data-name="Tracé 7165" d="M123.565,114.687a3.969,3.969,0,0,0,1.963,2.088c.695.133.414-.378-.037-.77-.588-.368-1.178-2.083-1.924-1.318" fill="#35acdf"/>
    <path id="Tracé_7166" data-name="Tracé 7166" d="M119.881,112.463c-.589-.58-1.109-1.932-1.752-2.27-.68.3,1.215,3.391,1.748,2.27" fill="#35acdf"/>
    <path id="Tracé_7167" data-name="Tracé 7167" d="M78.98,113.958c1.393-1.12,2.413-3.653,3.27-5.376,2.08-4.658,3.763-9.407,6.552-13.666a49.152,49.152,0,0,0,2.643-4.376c1.385-3.455-3.64,2.275-3.946,3.057-2.989,4.53-4.932,9.568-7.064,14.56a30.252,30.252,0,0,0-1.663,4.9c-.117.644-.059.967.165.916Z" fill="#35acdf"/>
    <path id="Tracé_7168" data-name="Tracé 7168" d="M93.007,88.035a8.392,8.392,0,0,0,2.038-2.013c1.838-2.564,4.487-4.416,6.512-6.755.852-1.477-1.527-.173-1.988.189-2.694,2.1-5.75,4.861-6.93,8.2-.048.323.057.469.287.406Z" fill="#35acdf"/>
    <path id="Tracé_7169" data-name="Tracé 7169" d="M90.369,96.725c.97-.582,1.68-2.078,2.348-3.066,1.67-3.176,4.485-5.625,6.63-8.4.78-1.458-1.043-.455-1.6.011A28.847,28.847,0,0,0,90.4,95.33c-.14.448-.507,1.282-.092,1.406Z" fill="#35acdf"/>
    <path id="Tracé_7170" data-name="Tracé 7170" d="M102.073,83.586c.478-.352,1.269-.876,1.446-1.494.006-.92-1.276-.259-1.6.185-.526.409-.97,1.618.04,1.369Z" fill="#35acdf"/>
    <path id="Tracé_7171" data-name="Tracé 7171" d="M89,98.341c-.412.787-1.407,2.143-1.249,3.093.65.893,1.3-1.043,1.5-1.567.226-.508.706-1.837-.152-1.613Z" fill="#35acdf"/>
    <path id="Tracé_7172" data-name="Tracé 7172" d="M100.7,89.171a17.563,17.563,0,0,1,1.975-1.587c.355-.247,1.445-.886.838-1.263-1.2-.114-2.9,1.615-3.256,2.672-.04.258.087.363.322.247Z" fill="#35acdf"/>
    <path id="Tracé_7173" data-name="Tracé 7173" d="M149.937,55.622c-1.773,6.2-4.525,11.524-9.636,15.513a31.87,31.87,0,0,0-3.029,2.763c-.975,1.136-.235,1.145.865.685,6.7-3.176,13.408-11.61,11.8-18.959" fill="#35acdf"/>
    <path id="Tracé_7174" data-name="Tracé 7174" d="M145.741,91.387c-2.056,1.66-4.491,2.92-6.666,4.4-.381.368-.02.4.335.349,2.15-.522,5.975-2.39,6.332-4.746" fill="#35acdf"/>
    <path id="Tracé_7175" data-name="Tracé 7175" d="M137.529,96.234c-.431.362-3.149,1.577-1.653,2.007.782.179,3.539-1.746,1.65-2.007" fill="#35acdf"/>
    <path id="Tracé_7176" data-name="Tracé 7176" d="M149.654,70.889c-1.588.755-2.828,2.281-4.383,3.252a3.939,3.939,0,0,0-.822.8c-.258.409.05.5.439.436a10.066,10.066,0,0,0,4.477-3c.23-.3,1.057-1.382.4-1.5Z" fill="#35acdf"/>
    <path id="Tracé_7177" data-name="Tracé 7177" d="M142.736,75.936c-.514.415-1.675.823-1.88,1.509-.02.655,1.3.331,1.778-.114.929-.573,1.322-1.7.241-1.46Z" fill="#35acdf"/>
    <path id="Tracé_7178" data-name="Tracé 7178" d="M145.712,58.587a52.263,52.263,0,0,0-5.033,3.457c-.3.6.65.4.992.3,1.112-.4,5.177-2.33,4.043-3.753" fill="#35acdf"/>
    <path id="Tracé_7179" data-name="Tracé 7179" d="M138.579,62.739c-.594.066-3.55.948-3.2,1.77.271.478,4.4-1.334,3.327-1.768Z" fill="#35acdf"/>
    <path id="Tracé_7180" data-name="Tracé 7180" d="M126.22,185.5c1.775-.18,4.442,1.515,6.015,3.155,3.871,3.677,7.438,7.719,10.993,11.715,14.575,17.392,30.82,29.239,54.268,23.2,2.6-.382,11.117-4.123,12.01-1.76.141.8-2.785,2.733-4.452,3.319-27.886,10.795-48.027-.177-66.632-21.29-3.511-3.74-7.082-7.5-10.859-10.939-2.034-1.586-5.6-6.753-1.465-7.392Z" fill="#35acdf"/>
    <path id="Tracé_7181" data-name="Tracé 7181" d="M249.295,155.331c-1.363,1.081-4.392,1.951-4.816-.324a3.746,3.746,0,0,1,2.341-2.7c.012-.045.035-.135.046-.18a3.266,3.266,0,0,0-2.445-.571c-5.315.584-9.705,3.615-13.049,7.582-1.359,1.662-5.216,2.057-4.975-.844.056-.212.069-.332-.092-.225-8.357,5.738-10.8,17.107-6.054,25.236.973,1.245,2.678,1.7,4.2,1.965,7.148,1.034,16.686.42,21.648-5.3.171-.2-.174.015-.4.1-1.361.57-3.7.841-4.184-.971a1.076,1.076,0,0,1,.212-.991c2.018-1.691,6.152-4.877,6.23-7.7a3.252,3.252,0,0,0-.674-2.014c-.484-.56-1.17-.928-1.468-1.645-1.466-6.024,7.07-10.7,11.628-12.991.638-.355,1.493-.667,2.045-1.045-3.481-.66-7.216.855-10.193,2.615" fill="#85dcff"/>
    <path id="Tracé_7182" data-name="Tracé 7182" d="M231.7,162.079c-5.527,2.645-10.1,7.382-11.452,13.463-.711,3.162-1.417,6.2.037,8.226,2.65,2.9,10.191.425,13.391-1.19,4.663-2.453,6.829-7.364,7.463-12.58,1.639-9.944-.553-12.2-9.251-8.011" fill="#e5e7eb"/>
    <path id="Tracé_7183" data-name="Tracé 7183" d="M146.953,192.7c3.825.749,7.066,4.384,10.95,5.7,13.308,4.814,31.8,4.21,44.408-2.213,10.813-5.541,18.528-15.888,26.554-24.53,3.742-3.356,4.965-1.713,2.741,1.986a96.156,96.156,0,0,1-6.983,8.947c-6.495,7.715-13.73,14.958-22.957,19.222-12.568,5.5-28.661,6.4-42.166,3.316-5.347-1.422-12.387-4.274-15.063-8.842-1.07-2.341.269-4.02,2.38-3.607Z" fill="#35acdf"/>
    <path id="Tracé_7184" data-name="Tracé 7184" d="M225.046,178.641a46.35,46.35,0,0,0,7.316-9.452c1.14-2.413-.73-.952-1.5.042a64.926,64.926,0,0,0-5.7,8.338c-.149.343-.61,1.162-.183,1.1Z" fill="#35acdf"/>
    <path id="Tracé_7185" data-name="Tracé 7185" d="M245.094,152.9c-1.938,1.65-3.439,5.171.236,4.906,1.03-.091,2.623-.553,3.14-1.408.071-.182-.058-.284-.359-.29-1.079-.029-4.022,1.3-3.357-.976.309-.916.594-1.473.34-2.23" fill="#35acdf"/>
    <path id="Tracé_7186" data-name="Tracé 7186" d="M242.518,180.589c-.852-3.053,2.1-5.15,4.083-7.162.358-.422,1.652-1.9.865-2.158-.547-.076-2.025,1.1-3.263,2.269-2.1,1.929-4.529,4.408-2.837,6.926.321.4,1.12,1,1.153.222Z" fill="#35acdf"/>
    <path id="Tracé_7187" data-name="Tracé 7187" d="M195.536,202.072a18.22,18.22,0,0,0,9.167-2.46c.658-.4,1.428-1.324.091-1.084-1.538.332-3.108,1.153-4.652,1.574-1.966.622-3.626.8-4.611,1.966" fill="#35acdf"/>
    <path id="Tracé_7188" data-name="Tracé 7188" d="M192.252,201.376c.641-.2,2.132-.365,2.434-1.054-.081-.659-3.985.743-2.567,1.063Z" fill="#35acdf"/>
    <path id="Tracé_7189" data-name="Tracé 7189" d="M221.018,122.361a2.133,2.133,0,0,1-3.761-.034c-.394-.328-.235.435-.235.811.011.143.015.186.009.108-.015-.124-.038-.573-.043-.862-.149-.941-.685-1.876-.226-2.831.006-.014-.068.2-.129.456a2.472,2.472,0,0,0,.189,1.607c.094.163.174.142.221-.05.437-4.027,4.4-8.054,3.559-12.268-.276-.673-1.061-.871-1.72-1.032-3.989-.8-4.482-5.434-2.591-8.375.205-.513-.59.113-.837.212-3.63,2.142-6.194,5.778-7.938,9.524a6.2,6.2,0,0,1-1.248,1.785,2.14,2.14,0,0,1-3.592-1.362c-.01-.773-.1-.923-.7-.208a13.736,13.736,0,0,0-3.347,6.887c-.39,3.012-.188,6.679-2.364,9.017a1.5,1.5,0,0,1-1.433.071c-.438-.085-.8-.853-1.05-.753a25.894,25.894,0,0,0,1.562,11.492c1.807,4.491,4.559,9.319,9.149,11.371,2.813.68,5.593-.99,7.934-2.391,8.34-5.278,10.932-14.559,9.692-23.935-.063-.97-.814.539-1.1.767" fill="#85dcff"/>
    <path id="Tracé_7190" data-name="Tracé 7190" d="M210.729,114.892c-13.444,8.681-14.317,20.581-6.469,33.711a4.989,4.989,0,0,0,.7,1.082,16.757,16.757,0,0,0,1.863-1.859c4.678-5.177,10.346-11.614,9.724-18.9-.636-4.918-4.084-8.847-5.57-13.5-.073-.161-.1-.463-.21-.486l-.58.391a1.8,1.8,0,0,0-.558.891c-.049.715.858.767,1.156.145a2.292,2.292,0,0,0,.026-1.469" fill="#e5e7eb"/>
    <path id="Tracé_7191" data-name="Tracé 7191" d="M144.493,178.97c.945.079,1.755.943,2.779,1.82,10.453,9.039,26.8,10.884,38.97,4.149,13.631-7.413,17.582-19.26,17.2-34.1a108.921,108.921,0,0,1,.621-13.384c.356-2.172.394-4.95,2.8-4.682a1.994,1.994,0,0,1,1.263,2,81.653,81.653,0,0,0-.634,11.316c.067,6.377.46,13.4-.886,19.647-2.351,11.923-11.791,21.493-22.937,25.8a41.991,41.991,0,0,1-32.072-1.073,38.934,38.934,0,0,1-9.292-5.857c-.825-.758-1.683-1.325-1.788-2.4-.07-1.316,2.357-3.314,3.831-3.25Z" fill="#35acdf"/>
    <path id="Tracé_7192" data-name="Tracé 7192" d="M202.618,110.053c.374,2.246,2.08,3.912,4.334,2.706,2.368-1.228,4.1-5.891,3.552-8.746-.514-.336-1.016,1.341-1.552,2.98-.926,3.7-3.309,6.264-6.334,3.057" fill="#35acdf"/>
    <path id="Tracé_7193" data-name="Tracé 7193" d="M217.637,116.627c-1.048,2.075-2.084,4.964-.66,6.968a3.391,3.391,0,0,0,4.4.995c.531-.355.889-.863.062-.9-5.636.527-2.882-3.884-3.807-7.065" fill="#35acdf"/>
    <path id="Tracé_7194" data-name="Tracé 7194" d="M205.5,146.964a43.87,43.87,0,0,1,1.377-14.8c.559-2.056,1.527-4.314,1.942-6.343.238-1.3-.217-1.117-.846-.16-3.421,6.265-5.378,14.616-2.473,21.309" fill="#35acdf"/>
    <path id="Tracé_7195" data-name="Tracé 7195" d="M179.843,191.4c4.109-.567,8.15-2.821,11.556-5.151.5-.437,1.521-1.054,1.55-1.632-.293-.157-1.008.237-1.438.426-3.174,1.705-6.22,3.737-9.587,5.118-.553.317-2.035.78-2.119,1.224" fill="#35acdf"/>
    <path id="Tracé_7196" data-name="Tracé 7196" d="M194.794,181.806c.536-.1,3.135-2.185,1.734-2.5-.461-.035-3.14,2.6-1.851,2.535Z" fill="#35acdf"/>
    <path id="Tracé_7197" data-name="Tracé 7197" d="M122.878,180.645s-7.073-7.075-7.344-7.345c.107-.352-3.226,7.6-3.526,8.273,12.388,4.1,11.894,19.435,19.327,28.295a27.341,27.341,0,0,0,7.57,7.175c.156.086.187-.061.166-.3-.012-1.544-.1-3.093-.254-4.626a49.252,49.252,0,0,0-15.892-31.43" fill="#e5e7eb"/>
    <path id="Tracé_7198" data-name="Tracé 7198" d="M142.036,175.046a56.4,56.4,0,0,1-13.711-2.9c-2.516-.813-16.494-7.393-12.661-1.012,2.833,3.7,6.275,7.768,10.516,10.03,10.058,4.835,22.674,4.63,33.1,1.351,9.9-3.079,9.659-6.182-1.407-7.331-5.265-.462-10.555-.188-15.84-.139" fill="#e5e7eb"/>
    <path id="Tracé_7199" data-name="Tracé 7199" d="M135.135,178.108l-6.324-3.653c-2.821-1.59-6.241-3.705-8.448-4.756a3.919,3.919,0,0,0-2.522-.478c-1.867.779-2.025,3.547-2.115,5.413-.159,4.792,3.276,7.6,7.058,11.224a59.371,59.371,0,0,0,26.5,15.545c1.643.384,4.157,1.058,5.344-.152,1.316-2.339-1.6-5.734-3.6-8.759a57.121,57.121,0,0,0-15.89-14.39" fill="#e5e7eb"/>
    <path id="Tracé_7200" data-name="Tracé 7200" d="M122.653,188.977a8.711,8.711,0,0,0,.813,2.863c1.435,3.431,2.289,7.2,4.282,10.387,3.448,4.636,2.03.07.738-2.2-1.889-3.59-2.463-8.042-5.271-11.036-.286-.242-.479-.271-.545-.081Z" fill="#35acdf"/>
    <path id="Tracé_7201" data-name="Tracé 7201" d="M131.808,190.352a4.738,4.738,0,0,0,1.4,1.691,26.233,26.233,0,0,0,8.941,4.914c.734.205,2.157.2,1.056-.715-2.836-1.809-6.141-2.95-8.863-5.031a10.875,10.875,0,0,0-1.879-1.009c-.428-.153-.668-.125-.667.083Z" fill="#35acdf"/>
    <path id="Tracé_7202" data-name="Tracé 7202" d="M145.58,197.293a7.242,7.242,0,0,0,4.8,1.019c1.4-.822-1.333-1.153-2.19-1.254-.559-.05-3.224-.877-2.705.14Z" fill="#35acdf"/>
    <path id="Tracé_7203" data-name="Tracé 7203" d="M141.821,193.894a7.659,7.659,0,0,0,4.74,1.229c1.5-.629-1.328-1.062-2-1.167a11.108,11.108,0,0,0-2.606-.385c-.2.035-.264.123-.19.246Z" fill="#35acdf"/>
    <path id="Tracé_7204" data-name="Tracé 7204" d="M139.8,192.532c.625-.15.712-.893.028-1.011-.72.006-.774.848-.029,1.011" fill="#35acdf"/>
    <path id="Tracé_7205" data-name="Tracé 7205" d="M138.271,176.361c3.588,1.267,8.067,1,11.768.281.62-.1,3.244-1.018,1.406-1.247-3.56.1-7.2.825-10.786.591-.6.058-2.251-.116-2.418.338" fill="#35acdf"/>
    <path id="Tracé_7206" data-name="Tracé 7206" d="M153.286,176.3c.893.267,2.056.159,3.062.516a19.173,19.173,0,0,0,2.492.711c.931.1.762-.581.143-.96a7.106,7.106,0,0,0-5.234-.657c-.208.077-.593.155-.517.35" fill="#35acdf"/>
    <path id="Tracé_7207" data-name="Tracé 7207" d="M150.176,178.161a22.737,22.737,0,0,0,4.463-.489c.184-.057.423-.257.407-.343-.062-.216-.176-.192-.372-.263a11.822,11.822,0,0,0-3.945.432c-.321.093-.6.327-.555.663" fill="#35acdf"/>
    <path id="Tracé_7208" data-name="Tracé 7208" d="M7.969,104.281a21.331,21.331,0,0,1-1.862-9.515c.063-3.437,1.958-6.508,4.151-8.961,2.82-2.909,5.557-6.474,5.629-10.694.341-3.582-2.516-8.06-6.592-7.377-3.977,1.177-5.441,6.1-6.783,9.515-.284.841-.852.9-1.1-.017C-.763,68.68,5.6,59.064,14.921,63.3,22.677,67,21.755,78,16.857,83.673a40.313,40.313,0,0,1-4.127,4.056c-5.106,3.9-5.513,9.972-4.418,15.788.027.291.033.837-.266.807Z" fill="#35acdf"/>
    <path id="Tracé_7209" data-name="Tracé 7209" d="M3.872,69.365c1.153-.39,3.612-2.395,5.393-2.306,3.739-.205,6.456,3.646,6.582,7.139.318,4.551-2.792,8.16-5.3,11.862a18.062,18.062,0,0,0-1.978,3.8c-.153.514-.112.771.112.738,1.447-.69,3.572-3.978,4.856-5.739,2.652-3.6,4.912-8.07,3.821-12.642-1.217-5.536-6.727-9.152-10.731-6.193-1,.745-2.75,2.35-2.78,3.332Z" fill="#35acdf"/>
    <path id="Tracé_7210" data-name="Tracé 7210" d="M18.8,73.9a23.14,23.14,0,0,1-.972,4.722,2.145,2.145,0,0,0-.065.843c.092.33.364.2.569.006.926-.762,2.269-5.243.463-5.571" fill="#35acdf"/>
    <path id="Tracé_7211" data-name="Tracé 7211" d="M17.953,71.182c.788-.261.332-1.1-.285-.73-.312.295-.11.622.285.724" fill="#35acdf"/>
    <path id="Tracé_7212" data-name="Tracé 7212" d="M17.7,89.9c5.232-3.279,9.469-7.859,13.2-12.769,4.135-5.362,8.957-10.939,10.67-17.68,1.475-6.177.741-14.564-7.475-14.348-4.133.175-6.987,4.075-6.747,8.072-.014.509.265,1.065.1,1.537-.317.562-.851-.327-1.061-.6-2.194-3.185-1.383-7.9,1.172-10.552,3.76-4.225,11.4-4.4,15.86-.843,3.689,2.794,4.358,7.433,3.919,11.708C46.467,64.263,39.565,71.964,33,78.661c-4.3,4.509-8.875,8.89-14.645,11.457-.342.122-.689.057-.682-.122Z" fill="#35acdf"/>
    <path id="Tracé_7213" data-name="Tracé 7213" d="M28.565,46.094c1.349-.107,4.4-1.225,6.275-1.12,11.361.743,7.077,15.152,3.091,21.564-.628,1.177-1.409,2.6-1.865,3.738-.311.776-.349,1.19-.093,1.149.95-.409,2.386-2.557,3.1-3.69,3.875-6.669,8.309-17.825.743-22.953-2.854-1.816-7.152-1.327-9.885.236-1.185.611-1.734,1.044-1.407,1.073Z" fill="#35acdf"/>
    <path id="Tracé_7214" data-name="Tracé 7214" d="M36.14,73.169a37.686,37.686,0,0,0,5.289-6.182c.149-.3.514-.85.309-1.026-1.894,1.22-3.114,3.663-4.661,5.36a5.012,5.012,0,0,0-.933,1.852" fill="#35acdf"/>
    <path id="Tracé_7215" data-name="Tracé 7215" d="M31.793,43.832a18.664,18.664,0,0,1,7.125-.575c.329-.006.992.065,1-.258-1.743-1.5-6.783-1.1-8.124.823" fill="#35acdf"/>
    <path id="Tracé_7216" data-name="Tracé 7216" d="M41.542,45.695c.31.132,1.057.593,1.259.241.3-.734-1.059-1.646-1.561-1a.505.505,0,0,0,.161.677" fill="#35acdf"/>
    <path id="Tracé_7217" data-name="Tracé 7217" d="M34.294,88.584c4.239-3.083,8.512-6.837,12.583-10.309,9.8-8.991,22.569-18.8,27.458-31.58C75.8,42.206,76.974,34.25,71.317,32.32c-4.541-1.136-8.684,2.654-8.517,7.434,0,.339,0,1-.249,1.154-.1.058-.225.021-.361-.1-1.265-1.677-1.33-4.135-.853-6.143,1.659-6.55,10.369-8.834,15.5-5.014,4.629,3.376,5.45,9.606,3.994,14.882-4.5,14.958-20.84,26.227-32.727,35.314-4.077,2.8-8.068,6.122-12.412,8.486-.632.39-1.434.588-1.416.317Z" fill="#35acdf"/>
    <path id="Tracé_7218" data-name="Tracé 7218" d="M63.427,36.554c1.045-3.121,5.289-4.712,8-2.713,1.635,1.177,2.214,3.22,2.484,5.117,1.487,10.435-5.533,18.734-12.376,25.886-.239.39.271.664.577.346,8.44-6.245,14.642-16.653,13.082-26.717-.428-2.812-1.8-5.526-4.843-6.267a5.588,5.588,0,0,0-7.081,4.159l.008.272c-.1.009.186-.012.131-.028Z" fill="#35acdf"/>
    <path id="Tracé_7219" data-name="Tracé 7219" d="M76.68,36.106a10.563,10.563,0,0,0,.087,2.05c.388,2.741-.48,5.561-.529,8.278.308,1.178,1.269-.976,1.4-1.415a11.883,11.883,0,0,0-.646-8.939c-.135-.18-.234-.2-.287-.048Z" fill="#35acdf"/>
    <path id="Tracé_7220" data-name="Tracé 7220" d="M76.029,50.587c.788-.261.332-1.1-.285-.73-.312.3-.11.622.285.724" fill="#35acdf"/>
    <path id="Tracé_7221" data-name="Tracé 7221" d="M41.672,78.326c-.168-.308-.331-.433-.469-.115a15.869,15.869,0,0,1-7.949,8.664,1.309,1.309,0,0,0-.622.657,17.167,17.167,0,0,1-2.709,5.407,13.155,13.155,0,0,0,2.645-5.6c-.178-.145-1.65.664-1.821.663.625-.316,1.983-.528,2.111-1.438a15.33,15.33,0,0,0-2.384-12.348c-.327-.425-.409-.18-.451.309-.986,7.362-7.647,12.04-13.718,15.365-7.563,3.274-13.912,9.555-9.227,18.106,4.034,8.439,15.7,10.246,23.56,5.949,3.82-1.977,6.318-5.179,8.353-8.885.259-.456.194-.5.116-.977-.178-1.074-.58-3.5-.8-4.827-.129-.871-.292-.88.279-1.409a17.03,17.03,0,0,0,3.086-19.518" fill="#35acdf"/>
    <path id="Tracé_7222" data-name="Tracé 7222" d="M13.081,105.561c-5.9-6.346-10.641.2-9.928,6.909.185,2.33.97,4.968,1.922,5.18a.94.94,0,0,0,.866-.234,13.8,13.8,0,0,0,2.274-3.555c1.53-2.821,3.192-5.564,4.863-8.3" fill="#e5e7eb"/>
    <path id="Tracé_7223" data-name="Tracé 7223" d="M14.84,112.51A10.423,10.423,0,0,1,7.7,114.324c-1.72-.132-2.333-1.267-1.789-2.845.661-2.012,1.518-4.941,3.12-5.756,3.139-.755,5.268,4.3,5.8,6.784" fill="#e5e7eb"/>
    <path id="Tracé_7224" data-name="Tracé 7224" d="M20.818,93.578c-2.072.807-4.154,1.664-5.311,3.608-1.046,1.686-2.361,4.513,1.278,3.628a6.071,6.071,0,0,0,4.9-5.1c.2-.972.066-1.914-.875-2.133" fill="#eae547"/>
    <path id="Tracé_7225" data-name="Tracé 7225" d="M5.66,117.559c.993-.655,1.477-2.219,2.018-3.3,1.15-3.046,3.5-5.451,5.325-8.054.649-1.6-1.8.135-2.232.532-2.669,2.464-5.106,5.7-5.853,9.333-.078.642-.092,1.709.654,1.527Z" fill="#35acdf"/>
    <path id="Tracé_7226" data-name="Tracé 7226" d="M13.987,100.276c1.239-1.038,2.267-3,3.606-4.087,2.034-1.926,4.979-2.759,7.012-4.694,4.1-4.893-8.729,3.137-8.913,4.61a11.636,11.636,0,0,0-1.812,3.559c-.11.427-.086.651.06.626Z" fill="#35acdf"/>
    <path id="Tracé_7227" data-name="Tracé 7227" d="M34.714,88.852c1.744.078,5.4-2.377,5.144-4.4-.163-.285-.668-.049-1.184.484a13.719,13.719,0,0,1-2.06,1.9c-.4.375-2.794,1.46-2,1.99Z" fill="#35acdf"/>
    <path id="Tracé_7228" data-name="Tracé 7228" d="M35.41,90.511c.5-.005,1.752-.891.948-1.321-.526-.1-1.428.565-1.312,1.049.04.139.1.29.274.278Z" fill="#35acdf"/>
    <path id="Tracé_7229" data-name="Tracé 7229" d="M17.4,113.712c2.013,2.6,7.847,1.159,10.361-.274.469-.231,2.457-1.629.952-1.5-2.86.732-5.927,2.09-8.876,1.645-.715-.013-1.931-.379-2.422.078Z" fill="#35acdf"/>
    <path id="Tracé_7230" data-name="Tracé 7230" d="M23.155,111.956A6,6,0,0,0,27.7,110.9c1.127-1.256-.815-.777-1.446-.449a19.226,19.226,0,0,1-2.051.641c-.759.223-1.114.374-1.053.87" fill="#35acdf"/>
    <path id="Tracé_7231" data-name="Tracé 7231" d="M27.92,108.714c.109.008.277-.31.223-.227-.077-.267-.3-.322-.441-.184-.184.116.055.273.117.4" fill="#35acdf"/>
    <path id="Tracé_7232" data-name="Tracé 7232" d="M37.57,91.278c8.892,17.6,18.989,27.815,37.482,35.119,11.743,4.206,22.544,9.429,28.034,21.226,1.879,4.627,1.272,10.056.838,15.452-.4,8.753-8.141,13.111-15.9,14.861-22.724,5.041-47.662-9.375-51.962-31.783A118.351,118.351,0,0,1,34.1,130.976c-.681-8.8-2.475-16.452-12.435-18.036" fill="#35acdf"/>
    <path id="Tracé_7233" data-name="Tracé 7233" d="M120.481,171.708c2.6-.486,10.91-2.61,8.389-4.543-2.132-1.013-5.173-1.193-7.477-2.306-5.238-2.281-9.313-6.939-13.014-11.449-2.145-2.457-4.056-5.72-7.483-6.1-4.87-.218-10.493,2.676-13.972,6.292-4.124,4.346-5.769,10-7.25,15.755-1.123,5.154-2.159,8.076,3.017,9.165,6.973,1.535,14.88,1.071,21.463,3.345,3.336.935,7.228,4.361,9.007,4.383a1.48,1.48,0,0,0,.984-.3c.805-.625,1.208-1.688,1.929-2.414,2.4-2.462,7.735,1.891,10.844,2.109,6.7,1.142,2.32-5.586-.97-8.932a62.417,62.417,0,0,0-5.469-5.015" fill="#35acdf"/>
    <path id="Tracé_7234" data-name="Tracé 7234" d="M114.612,179.324c-.335,2.353-.122,4.893-.513,7.271-.2,2.113.687,2.307,1.343.3.618-2.421,1.009-5.539-.367-7.748-.166-.157-.314-.13-.42.078Z" fill="#35acdf"/>
    <path id="Tracé_7235" data-name="Tracé 7235" d="M120.25,172.4a13.509,13.509,0,0,0,11-4.544c.273-.38.746-1.066.464-1.367-.917-.142-1.98,1.038-2.766,1.552a19.832,19.832,0,0,1-7.42,3.558c-.428.184-1.458.4-1.32.769" fill="#35acdf"/>
    <path id="Tracé_7236" data-name="Tracé 7236" d="M97.006,144.489c-.138.216.625,1.665,1.86,3.525a105.957,105.957,0,0,0,8.57,11.877c3.031,3.05.735-1.29-1.485-4.1-2.571-3.346-4.9-6.887-7.538-10.136-.421-.432-.989-1.214-1.391-1.192Z" fill="#35acdf"/>
    <path id="Tracé_7237" data-name="Tracé 7237" d="M110.9,162.385a8.506,8.506,0,0,0,4.971,4.792c.681.2,1.1-.154.549-.778-.938-1.02-2.294-1.8-3.267-2.817-.909-.883-2.014-1.954-2.248-1.3Z" fill="#35acdf"/>
    <path id="Tracé_7238" data-name="Tracé 7238" d="M102.158,157.724c1.572,3.675,5.214,6.8,8.655,8.833.706.448,3.322,1.311,1.92-.305-2.55-2.25-5.623-4.054-7.886-6.669a15.192,15.192,0,0,0-2.15-1.918c-.335-.208-.527-.214-.54-.007Z" fill="#35acdf"/>
    <path id="Tracé_7239" data-name="Tracé 7239" d="M99.492,153.278a3.912,3.912,0,0,0,1.515,2.93c.413.2.839.058.691-.479-.206-.662-.78-1.348-1.034-2.025-.252-.593-.651-.943-1.174-.431" fill="#35acdf"/>
    <path id="Tracé_7240" data-name="Tracé 7240" d="M103,163.218a7.045,7.045,0,0,0,3.462,3.235c.445.176.947.056.587-.462a10.86,10.86,0,0,0-1.666-1.548c-.524-.368-2.016-2.052-2.39-1.329Z" fill="#35acdf"/>
    <path id="Tracé_7241" data-name="Tracé 7241" d="M45.2,109.283c2.567,3.481,6.632,6.385,10.2,8.855,1.6,1.034,3.4,1.522,1.1-.639-3.194-2.711-6.571-5.378-9.941-7.879-.4-.226-1.39-.935-1.381-.405Z" fill="#35acdf"/>
    <path id="Tracé_7242" data-name="Tracé 7242" d="M52.5,118.8a15.9,15.9,0,0,0,3.861,2.611c1.631.045-1.137-1.836-1.631-2.118-.49-.342-2.349-1.7-2.292-.6Z" fill="#35acdf"/>
    <path id="Tracé_7243" data-name="Tracé 7243" d="M95.8,193.758c-1.641-1.814-2.2,1.869-2.21,3.042a43.739,43.739,0,0,0,.922,10.521,6.839,6.839,0,0,0,2.009,3.864c1.8,1.544,3.761.165,3.477-2.141-.372-2.963-1.792-6.286-2.32-9.344-.387-1.95-.944-4.695-1.8-5.834" fill="#eae547"/>
    <path id="Tracé_7244" data-name="Tracé 7244" d="M94.15,193.18c-1.219,1.71-1.844,5.233-2.231,7.484-.3,2.264-.852,4.867.05,6.371.639,1.1,2.467,2.2,3.568,1.168,1.022-.806.067-5.477-.122-8.254-.167-1.615-.331-3.211-.463-4.475-.167-1.682-.369-2.6-.748-2.335Z" fill="#eae547"/>
    <path id="Tracé_7245" data-name="Tracé 7245" d="M104.814,202.542a28.717,28.717,0,0,1-6.11-5.886c-.74-.991-2.133-2.966-3.275-2.6-.9.624-.4,2.3-.023,3.253,1.541,3.013,3.11,7.2,6.638,8.2,1.774.3,2.5-1.487,2.77-2.973" fill="#eae547"/>
    <path id="Tracé_7246" data-name="Tracé 7246" d="M107.321,178.234c-16.347,1.537-2.314,6.19-7.768,11.367-1.223,1.309-6.858,3.54-5.261,5.634,2.975,1.495,9.313-1.388,12.1-3.029,5.175-3.125,2.174-9.435.937-13.97" fill="#eae547"/>
    <path id="Tracé_7247" data-name="Tracé 7247" d="M89.006,169.878c3.69,4.7,7.094,10.443,12.222,13.489,2.7,1.771,6.615,1.6,7.551-2.017,1.02-4.657.05-9.705.1-14.469" fill="#35acdf"/>
    <path id="Tracé_7248" data-name="Tracé 7248" d="M94.106,175.1a18.461,18.461,0,0,0,8.5,8.459c1.022.4,2.7,1.236,3.662.728-.309-.9-2.053-1.34-2.927-1.874-3.672-1.587-6.282-4.882-9.24-7.316" fill="#35acdf"/>
    <path id="Tracé_7249" data-name="Tracé 7249" d="M108.173,183.094a11.427,11.427,0,0,0,1.872-8.171c-.059-.661-.711-2.478-1-.852a32.191,32.191,0,0,1-.9,7.356,8.017,8.017,0,0,0-.251,1.495c0,.239.077.308.216.222Z" fill="#35acdf"/>
    <path id="Tracé_7250" data-name="Tracé 7250" d="M76.062,197.394c-1.641-1.814-2.2,1.869-2.21,3.042a43.74,43.74,0,0,0,.922,10.521,6.839,6.839,0,0,0,2.009,3.864c1.8,1.544,3.761.165,3.477-2.141-.372-2.962-1.792-6.286-2.32-9.344-.388-1.95-.944-4.695-1.8-5.834" fill="#eae547"/>
    <path id="Tracé_7251" data-name="Tracé 7251" d="M74.409,196.815c-1.219,1.71-1.844,5.233-2.231,7.484-.3,2.264-.852,4.867.05,6.371.639,1.1,2.467,2.2,3.568,1.168,1.022-.806.067-5.477-.122-8.254-.167-1.615-.331-3.211-.463-4.475-.167-1.682-.369-2.6-.748-2.335Z" fill="#eae547"/>
    <path id="Tracé_7252" data-name="Tracé 7252" d="M85.194,206.8c-1.157-2.113-4.119-3.9-5.6-6.065a7.633,7.633,0,0,0-2.858-2.647c-4.137-.394,3.51,11.465,5.777,11.325,1.576.629,3.557-.669,2.753-2.45" fill="#eae547"/>
    <path id="Tracé_7253" data-name="Tracé 7253" d="M87.58,181.869c-16.347,1.537-2.314,6.189-7.769,11.366-1.223,1.309-6.858,3.541-5.26,5.636,2.975,1.495,9.314-1.387,12.1-3.028,5.175-3.124,2.175-9.435.938-13.97" fill="#eae547"/>
    <path id="Tracé_7254" data-name="Tracé 7254" d="M69.266,173.514c3.69,4.7,7.094,10.443,12.222,13.489,2.7,1.771,6.615,1.6,7.551-2.017,1.02-4.657.05-9.7.1-14.469" fill="#35acdf"/>
    <path id="Tracé_7255" data-name="Tracé 7255" d="M88.667,179.1a18.648,18.648,0,0,0,.068,5.176c.695,2.093.878-1.458.77-2.162-.1-1.058.029-2.4-.838-3.01" fill="#35acdf"/>
    <path id="Tracé_7256" data-name="Tracé 7256" d="M84.708,178.664a34.887,34.887,0,0,0,8.7.909c.3-.05.886-.074.814-.365-2.13-1.025-4.887-.812-7.232-1.022a3.446,3.446,0,0,0-2.281.482" fill="#35acdf"/>
    <path id="Tracé_7257" data-name="Tracé 7257" d="M70.229,165.2a28.812,28.812,0,0,0-7.5-8.978c-5.426-4.563-13.052-5.9-17.569-11.395a15,15,0,0,1-.456-10.742c-.148-.018-.591.307-.789.408a18.079,18.079,0,0,0-4.219,3.721,11.9,11.9,0,0,1-.524-1.366c-1.07-2.782-2.809-5.6-5.644-6.811-.165-.052-.412-.213-.508-.134-.113.053-.071.349-.1.541a34.647,34.647,0,0,0,1.157,8.247c.147.529.666,1.053-.2.721a3.817,3.817,0,0,0-1.3-.2c-.156.11-.169.488-.077,1.057.489,3.1,3.388,9.745,4.315,13.683,1.654,12.877,21.557,25.039,35.335,24.666.289-.023.262-.521.348-.822.835-4.428-.192-8.527-2.287-12.593" fill="#e5e7eb"/>
    <path id="Tracé_7258" data-name="Tracé 7258" d="M47.822,132.778c-4.592,1.825-5.634,10.887-.854,12.984.2-.03.245-.251.163-.634-1.55-3.788-2.378-7.072.112-10.788.208-.416.877-1.326.624-1.551Z" fill="#35acdf"/>
    <path id="Tracé_7259" data-name="Tracé 7259" d="M239.792,18.744a2.18,2.18,0,0,1,2.78-2.176c.852.264,1.456.8,1.5,1.471a2.213,2.213,0,0,1-4.259.852Z" fill="#85dcff"/>
    <path id="Tracé_7260" data-name="Tracé 7260" d="M234.942,82.517c.5-1.528,2.8-2.431,4.376-2.188,1.2.067,2.24.936,1.465,2.231-.922,2.091-5.307,2.39-5.853.089Z" fill="#85dcff"/>
    <path id="Tracé_7261" data-name="Tracé 7261" d="M182.06,142.333a5.773,5.773,0,0,1,2.549-1.522c1.228-.174,2.844.692,2.848,1.686-.559,3.086-4.669,2.721-5.394-.166" fill="#35acdf"/>
    <path id="Tracé_7262" data-name="Tracé 7262" d="M167.243,162.818c2.415-.222,3.769,3.594,4.423,5.477.492,2.12-2.814,1.882-4.175.623-1.716-1.308-2.142-4.709-.374-6.048Z" fill="#35acdf"/>
    <path id="Tracé_7263" data-name="Tracé 7263" d="M228.424,111.3a2.3,2.3,0,0,1,1.622-3.478,1.634,1.634,0,0,1,2.135.984c.864,2.122-2.073,3.852-3.667,2.6Z" fill="#35acdf"/>
    <path id="Tracé_7264" data-name="Tracé 7264" d="M233.753,145.886c-1.778-1-1.163-4.011.085-5.283,1.026-1.156,3.006-1.882,3.563-.884.936,2.139-1.291,5.975-3.517,6.193Z" fill="#85dcff"/>
    <path id="Tracé_7265" data-name="Tracé 7265" d="M19.336,50.456a3.01,3.01,0,0,1,2.077,3.75c-.228.871-.909,1.805-1.91,1.559A2.9,2.9,0,0,1,17.589,51.7c.3-.629.919-1.319,1.587-1.262Z" fill="#e5e7eb"/>
    <path id="Tracé_7266" data-name="Tracé 7266" d="M7.434,56.523C6.67,58.692,1.815,59.529.167,57.849c-.631-.807.631-2.191,2.016-2.713,1.6-.629,4.546-.535,5.252,1.264Z" fill="#85dcff"/>
    <path id="Tracé_7267" data-name="Tracé 7267" d="M39.2,11.887a3.893,3.893,0,0,1-.26-.418c-.151-.3-.32-.6-.458-.933-.9-1.806.049-3.738,1.538-4.884a2.84,2.84,0,0,1,.292-.233l.106-.081.121.065a3.077,3.077,0,0,1,.738.51A3.306,3.306,0,0,1,40.8,11.3a4.345,4.345,0,0,1-.574.3,2.576,2.576,0,0,1-.5.181,3.451,3.451,0,0,1-.376.082Z" fill="#35acdf"/>
    <path id="Tracé_7268" data-name="Tracé 7268" d="M172.751,55.532c-.289-2.207,5.425-5.98,6.993-3.9.568,2.608-2.588,4.695-5.065,4.668-.654,0-1.572-.04-1.886-.656Z" fill="#35acdf"/>
    <path id="Tracé_7269" data-name="Tracé 7269" d="M158.663,102.208c.749-1.809,3.879-2.78,5.643-1.811,1.205.721-.05,2.907-1.479,3.338-1.327.582-3.944.263-4.184-1.4Z" fill="#85dcff"/>
    <path id="Tracé_7270" data-name="Tracé 7270" d="M124.856,142.535c1.526-2.288,6.081-.181,5.219,2.621-.95,2.456-5.6-.151-5.257-2.49Z" fill="#35acdf"/>
    <path id="Tracé_7271" data-name="Tracé 7271" d="M42.643,36.075c-1.286-.494-2.261-2.24-1.08-3.419a2.039,2.039,0,0,1,2.088-.815,2.187,2.187,0,0,1-.864,4.269Z" fill="#35acdf"/>
    <path id="Tracé_7272" data-name="Tracé 7272" d="M209.3,35.579c-.092-3.131,2.99-4.744,5.92-5.1,1.3-.239,3.78-.278,3.392.916-1.5,3.418-6.27,3.373-9.312,4.184" fill="#e5e7eb"/>
    <path id="Tracé_7273" data-name="Tracé 7273" d="M188.413,22.787c1.726-2.724,4.287-4.95,6.357-7.282a4.475,4.475,0,0,1,1.286-1.071c1.331-.528,1.546,1.367,1.478,2.354-.341,4.54-5.142,6.829-9.1,6" fill="#35acdf"/>
    <path id="Tracé_7274" data-name="Tracé 7274" d="M189.072,23.954c3.273.309,7.433-1.923,8.379-5.149.143-.733-.236-.614-.7-.165-1.293,1.425-2.651,3.114-4.511,3.875-1.385.664-3.5.942-3.231,1.411Z" fill="#35acdf"/>
    <path id="Tracé_7275" data-name="Tracé 7275" d="M232.84,15.171s-.01-.068-.02-.185a2.941,2.941,0,0,1,.234-1.31,4.768,4.768,0,0,1,.53-.932c1.583-2.1,4.251-2.929,6.646-3.67a12.179,12.179,0,0,0,3.7-1.528l.167-.105a1.747,1.747,0,0,1,.072.173,1.964,1.964,0,0,1,.118.512,2.951,2.951,0,0,1-.012.829c-.029.157-.074.323-.123.505a5.649,5.649,0,0,1-.22.534,7.608,7.608,0,0,1-4.36,3.438,29.884,29.884,0,0,1-4.481,1.085,12.728,12.728,0,0,0-2.245.656" fill="#e5e7eb"/>
    <path id="Tracé_7276" data-name="Tracé 7276" d="M233.417,15.66c2.864-2.146,10.075-2.09,10.69-6.3A.392.392,0,0,0,243.8,8.9h-.022a.446.446,0,0,0-.454.188c-1.533,1.98-3.351,2.806-5.787,3.642a10.309,10.309,0,0,0-4.422,2.593.231.231,0,0,0,.306.338" fill="#35acdf"/>
    <path id="Tracé_7277" data-name="Tracé 7277" d="M231.541,37.74c.791-1.9,8.819-3.253,9.61-.954-.777,2.8-5.51,3.361-8.012,2.411-.623-.236-1.623-.628-1.616-1.349Z" fill="#35acdf"/>
    <path id="Tracé_7278" data-name="Tracé 7278" d="M231.776,39.341c2.167,1.2,5.453.619,7.4-.818,1.144-.926.976-1.749-.594-1.132a16.461,16.461,0,0,1-6.507,1.525c-.317.084-.448.21-.353.36" fill="#35acdf"/>
    <path id="Tracé_7279" data-name="Tracé 7279" d="M221.622,73.4c3.393-2.479,7.678-2.87,11.758-3.257,3.146-.205,1.212,2.523-.282,3.43-3.413,2.33-7.9,1.436-11.472-.173" fill="#e5e7eb"/>
    <path id="Tracé_7280" data-name="Tracé 7280" d="M222.754,73.812c2.691,2.413,8.174,2.367,9.965-.984.332-.682.152-1.109-.631-.8-1.266.568-2.563,1.633-4.052,1.663-1.377.307-5.424-1.186-5.325.04Z" fill="#35acdf"/>
    <path id="Tracé_7281" data-name="Tracé 7281" d="M230.478,112c.894-.268,2-.783,2.265-1.728.062-1.127-.806-.083-1.131.337-.281.479-1.586.769-1.132,1.391" fill="#35acdf"/>
    <path id="Tracé_7282" data-name="Tracé 7282" d="M255.325,146.538c-.28-.916.515-1.96,1.258-2.47,1.342-.942,3.939-.382,3.939.919-.023,2.429-3.752,3.414-5.14,1.67Z" fill="#35acdf"/>
    <path id="Tracé_7283" data-name="Tracé 7283" d="M255.812,147.619a5.391,5.391,0,0,0,5.284-2.356c.408-.448.8-2.344-.263-1.583-.958,1.186-1.875,2.6-3.47,3.016-.824.3-1.189.4-1.547.93" fill="#35acdf"/>
    <path id="Tracé_7284" data-name="Tracé 7284" d="M168.637,145.5c4.23-.963,6.283,2.619,9.517,3.933a11.152,11.152,0,0,1,2.4.95c1.674,1.416-2.147,2.67-3.288,2.579-4.517.228-6.162-4.632-8.628-7.471" fill="#e5e7eb"/>
    <path id="Tracé_7285" data-name="Tracé 7285" d="M168.542,145.8a4.758,4.758,0,0,0,.838,1.146c2.022,2.088,3.9,5.893,6.977,6.186.65.1,1.61-.167.755-.824a12.319,12.319,0,0,0-1.477-.924c-2.015-1.037-3.106-3.147-4.886-4.633a6.105,6.105,0,0,0-1.852-1.1c-.236-.1-.376.018-.357.038Z" fill="#35acdf"/>
    <path id="Tracé_7286" data-name="Tracé 7286" d="M166.387,163.235c-1.775,2.783-1.361,6.281,2.352,7.24.686.163,1.919.253,2.359-.226.069-.132-.051-.276-.327-.417-4.022-1.146-4.582-2.658-4.381-6.6" fill="#35acdf"/>
    <path id="Tracé_7287" data-name="Tracé 7287" d="M114.719,170.545c.175.15.569.391.693.344.417-.092-.224-.641-.385-.786l-.342.032a.312.312,0,0,0-.039.349" fill="#35acdf"/>
    <path id="Tracé_7288" data-name="Tracé 7288" d="M63.842,149.587c-3.162-.584-4.331-3.856-3.415-6.825.467-1.622,1.179-4.961,2.726-3.93,3.3,2.693.3,7.346.687,10.748" fill="#e5e7eb"/>
    <path id="Tracé_7289" data-name="Tracé 7289" d="M63.387,148.988c.758-1.151,1.1-2.483,1.825-3.806a5.351,5.351,0,0,0,.622-2.814,5.073,5.073,0,0,0-2.77-3.765c-.845-.389-1.035-.058-.6.736.642,1.168,1.664,2.5,1.467,3.946-.138,1.876-1.955,3.649-1.387,5.524.137.406.424.616.769.263Z" fill="#35acdf"/>
    <path id="Tracé_7290" data-name="Tracé 7290" d="M43.358,126.416c-1.425.185-2.712-1.5-2.778-2.848-.152-1.465,1.106-3.262,2.275-2.938,2.27.772,2.584,4.545.638,5.74Z" fill="#85dcff"/>
    <path id="Tracé_7291" data-name="Tracé 7291" d="M43.635,126.051c2.924-.738,1.324-4.857-.3-6.76-.255-.255-.8-.916-1.014-.507.209,1.645,2.492,4.616,1.28,6.508-.092.263-.373.673-.043.757Z" fill="#35acdf"/>
    <path id="Tracé_7292" data-name="Tracé 7292" d="M29.3,132.975c-2.745-.442-5.7.361-8.064-1.369-.932-.569-2.231-2.264-.53-2.679,3.349-.364,8.262-.056,8.589,4.053" fill="#e5e7eb"/>
    <path id="Tracé_7293" data-name="Tracé 7293" d="M19.736,129.835a6.549,6.549,0,0,0,1.823,2.252c1.9,1.364,4.477,1.491,6.835,1.476.58.031,2.7-.262,1.311-.886-1.454-.509-3.219-.256-4.746-.534a15.173,15.173,0,0,1-5.223-2.31" fill="#35acdf"/>
    <path id="Tracé_7294" data-name="Tracé 7294" d="M23.207,149.161c1.655-.964,5.575-.82,6.759.98.542,1.131-1.933,2.463-3.422,2.373-1.576.072-4.347-1.465-3.434-3.256Z" fill="#35acdf"/>
    <path id="Tracé_7295" data-name="Tracé 7295" d="M22.7,151.187c1.672,1.271,4.3,3.007,6.331,1.977.45-.217.871-.815.165-1a13.641,13.641,0,0,1-4.8-.854,2.973,2.973,0,0,0-1.7-.123" fill="#35acdf"/>
    <path id="Tracé_7296" data-name="Tracé 7296" d="M60.957,95.5c-2.272-3.286,1.985-7.769,5.186-8.734,1.788-.425,1.448,1.73.929,2.775-1,2.738-3.906,4.528-6.118,5.955" fill="#35acdf"/>
    <path id="Tracé_7297" data-name="Tracé 7297" d="M61.147,96.587c1.893-2.308,4.824-3.577,6.54-5.991,1.059-2.34-1.187-.513-1.813.252-1.345,1.625-5.285,3.248-4.727,5.742" fill="#35acdf"/>
    <path id="Tracé_7298" data-name="Tracé 7298" d="M20.362,21.035c-3.246-1.8-7.84-2.717-8.84-6.758-.248-.961-.081-2.41,1.2-2.058,3.485,1.672,8.249,4.28,7.646,8.817" fill="#e5e7eb"/>
    <path id="Tracé_7299" data-name="Tracé 7299" d="M11.519,13.674a3.726,3.726,0,0,0,.639,2.777c.3,1.354,9.875,7.859,5.818,3.26-1.522-1.421-3.672-2.269-4.835-3.964-.492-.506-.972-2.061-1.582-2.112Z" fill="#35acdf"/>
    <path id="Tracé_7300" data-name="Tracé 7300" d="M78.034,17.229c1.245,1.543.967,4.326-.281,5.909-2.116,2.344-5.755,2.588-4.036-1.577.428-1.718,1.441-3.931,3.189-4.523a1.166,1.166,0,0,1,1.025.114Z" fill="#e5e7eb"/>
    <path id="Tracé_7301" data-name="Tracé 7301" d="M73.786,24.957c3.511-1.3,4.981-4.213,5.144-7.769.015-.461.205-1.537-.3-1.636-1.532,1.4-.948,4.214-2.154,5.867-.753,1.248-2.149,2.214-2.691,3.539" fill="#35acdf"/>
    <path id="Tracé_7302" data-name="Tracé 7302" d="M81.524,56.586c-.543-1.019.392-2.335,1.074-3.121a9.03,9.03,0,0,1,4.139-2.226,3.218,3.218,0,0,1,1.613-.193c1.443.4.788,2.437.164,3.335-1,1.346-2.328,1.809-3.979,2.312-.911.208-2.17.672-2.938-.015Z" fill="#35acdf"/>
    <path id="Tracé_7303" data-name="Tracé 7303" d="M82.791,55.714c-.086.552.468.607.959.566a7.289,7.289,0,0,0,4.988-3.125c.227-.308.99-1.9.06-1.334-.673.5-1.261,1.323-1.925,1.88a7.989,7.989,0,0,1-4.079,2.013" fill="#35acdf"/>
    <path id="Tracé_7304" data-name="Tracé 7304" d="M113.585,117.429c-1.63,3.949-6.322,3.451-9.767,2.712-.675-.149-1.664-.352-1.915-1.008-.163-.563.378-1.1.86-1.469,3.2-2.295,7.356-.151,10.822-.238" fill="#35acdf"/>
    <path id="Tracé_7305" data-name="Tracé 7305" d="M101.514,120.187c2.644-.663,5.332-.006,7.958-.129.549-.148.427-.481.014-.743-1.875-1.012-6.6-.919-7.972.875" fill="#35acdf"/>
    <path id="Tracé_7306" data-name="Tracé 7306" d="M115.755,81.158c1.339-2.375,6.335-1.226,8.479-.636.622.208,1.558.506,1.536,1.242-1.5,3.007-6.311,2.226-8.691.835-.535-.3-1.25-.725-1.325-1.339Z" fill="#e5e7eb"/>
    <path id="Tracé_7307" data-name="Tracé 7307" d="M114.341,81.615c2.371,1.436,5.529,3.327,8.284,2.9.786-.133,1.337-.7.22-.983-2.631-.3-5.151-1.426-7.683-2.155-.321-.048-1.081-.211-.876.171Z" fill="#35acdf"/>
  </g>
</svg>
