<svg xmlns="http://www.w3.org/2000/svg" width="37.365" height="45.268" viewBox="0 0 37.365 45.268"><ellipse cx="3.414" cy="3.39" rx="3.414" ry="3.39" transform="translate(15.269 13.161)" fill="#61dafb"/><path d="M31.783,31.119c2.679,2.588,5.322,4.12,7.451,4.12a3.708,3.708,0,0,0,1.909-.474c1.909-1.094,2.606-3.828,1.945-7.729-.11-.693-.257-1.385-.44-2.114.734-.219,1.395-.437,2.055-.656,3.707-1.422,5.763-3.39,5.763-5.541,0-2.187-2.055-4.156-5.763-5.541a16.919,16.919,0,0,0-2.055-.656c.184-.729.33-1.422.44-2.114.624-3.974-.073-6.744-1.982-7.838A3.708,3.708,0,0,0,39.2,2.1c-2.092,0-4.772,1.531-7.451,4.12C29.1,3.631,26.46,2.1,24.332,2.1a3.708,3.708,0,0,0-1.909.474C20.514,3.668,19.817,6.4,20.478,10.3c.11.693.257,1.385.44,2.114-.734.219-1.395.437-2.055.656C15.155,14.5,13.1,16.464,13.1,18.615c0,2.187,2.055,4.156,5.763,5.541a16.919,16.919,0,0,0,2.055.656c-.184.729-.33,1.422-.44,2.114-.624,3.9.073,6.671,1.945,7.729a3.708,3.708,0,0,0,1.909.474c2.129.073,4.772-1.458,7.451-4.01ZM29.727,26.2c.661.036,1.358.036,2.055.036s1.395,0,2.055-.036c-.661.875-1.358,1.677-2.055,2.443C31.085,27.874,30.388,27.072,29.727,26.2Zm-4.551-3.755c.367.62.7,1.2,1.1,1.786-1.138-.146-2.2-.328-3.23-.547.33-.984.7-2.005,1.138-3.026C24.478,21.239,24.809,21.859,25.176,22.442Zm-2.129-8.786c1.028-.219,2.092-.4,3.23-.547-.367.583-.734,1.167-1.1,1.786s-.7,1.2-.991,1.823A24.265,24.265,0,0,1,23.047,13.657Zm2.019,4.994c.477-.984.991-1.969,1.578-2.953.551-.948,1.175-1.9,1.8-2.844,1.1-.073,2.2-.109,3.34-.109,1.175,0,2.276.036,3.34.109.661.948,1.248,1.9,1.8,2.844.587.984,1.1,1.969,1.578,2.953-.477.984-.991,1.969-1.578,2.953-.551.948-1.175,1.9-1.8,2.844-1.1.073-2.2.109-3.34.109-1.175,0-2.276-.036-3.34-.109-.661-.948-1.248-1.9-1.8-2.844C26.057,20.62,25.543,19.635,25.066,18.651Zm14.352-1.969-.991-1.823c-.367-.62-.7-1.2-1.1-1.786,1.138.146,2.2.328,3.23.547-.33,1.021-.7,2.042-1.138,3.062Zm0,3.937c.44,1.021.808,2.042,1.138,3.026-1.028.219-2.092.4-3.23.547.367-.583.734-1.167,1.1-1.786.33-.547.661-1.167.991-1.786Zm.844,12.65a2,2,0,0,1-1.064.255c-1.8,0-4.038-1.458-6.24-3.646a38.22,38.22,0,0,0,3.12-3.828A33.827,33.827,0,0,0,41,25.286a18.731,18.731,0,0,1,.4,1.969C41.913,30.353,41.509,32.577,40.261,33.27ZM42.17,14.058c4.111,1.167,6.57,2.953,6.57,4.593,0,1.422-1.688,2.844-4.661,3.974-.587.219-1.248.437-1.909.62a38.16,38.16,0,0,0-1.8-4.593,32.886,32.886,0,0,0,1.8-4.593ZM39.234,3.777a2.09,2.09,0,0,1,1.064.255c1.211.693,1.652,2.88,1.138,6.015-.11.62-.257,1.276-.4,1.969a47.934,47.934,0,0,0-4.918-.766,33.727,33.727,0,0,0-3.12-3.828C35.2,5.272,37.435,3.777,39.234,3.777Zm-5.4,7.328c-.661-.036-1.358-.036-2.055-.036s-1.395,0-2.055.036c.661-.875,1.358-1.677,2.055-2.443C32.48,9.428,33.177,10.266,33.838,11.1ZM23.3,4.032a2,2,0,0,1,1.064-.255c1.8,0,4.038,1.458,6.24,3.646a38.22,38.22,0,0,0-3.12,3.828,33.827,33.827,0,0,0-4.918.766,18.732,18.732,0,0,1-.4-1.969C21.652,6.949,22.056,4.761,23.3,4.032ZM21.4,23.244c-4.111-1.167-6.57-2.953-6.57-4.593,0-1.422,1.688-2.844,4.661-3.974.587-.219,1.248-.437,1.909-.62a38.159,38.159,0,0,0,1.8,4.593,34.74,34.74,0,0,0-1.8,4.593Zm.771,4.01c.11-.62.257-1.276.4-1.969a47.935,47.935,0,0,0,4.918.766,33.727,33.727,0,0,0,3.12,3.828c-2.2,2.151-4.441,3.646-6.24,3.646A2.09,2.09,0,0,1,23.3,33.27c-1.248-.693-1.652-2.916-1.138-6.015Zm-1.542,15.02a2.957,2.957,0,0,0,.4-3.172,2.585,2.585,0,0,0-2.5-1.641c-1.358-.036-2.753,0-4.111,0h-.257V46.9h1.1V43.332h1.725a.557.557,0,0,1,.514.255l2.2,3.39c.037.073.147.182.22.182h1.431c-.881-1.349-1.725-2.625-2.606-3.937A2.671,2.671,0,0,0,20.624,42.275ZM15.266,42.2V38.592h.4c.844,0,1.725-.036,2.569.036a1.726,1.726,0,0,1,1.688,1.786,1.819,1.819,0,0,1-1.8,1.786C17.248,42.238,16.367,42.2,15.266,42.2Zm14.2.474a3.314,3.314,0,0,0-4.735-2.406,3.446,3.446,0,0,0-2.055,3.317A3.522,3.522,0,0,0,23.854,46.5a3.917,3.917,0,0,0,3.45.766,3.373,3.373,0,0,0,1.8-.984c-.184-.255-.367-.51-.551-.729a2.987,2.987,0,0,1-3.414.583,2.705,2.705,0,0,1-1.285-2.114h5.689V43.55a2.234,2.234,0,0,0-.073-.875Zm-5.542.583A2.261,2.261,0,0,1,26.13,41a2.105,2.105,0,0,1,2.312,2.26ZM35.2,40.087a6.584,6.584,0,0,0-1.688-.109,3.5,3.5,0,0,0-2.276,1.13c.184.255.33.51.551.8a.972.972,0,0,1,.22-.182,2.671,2.671,0,0,1,2.129-.766c.661.036,1.285.255,1.468.911a7.675,7.675,0,0,1,.147,1.6.216.216,0,0,1-.184-.073,3.187,3.187,0,0,0-2.936-.62,2.175,2.175,0,0,0-1.688,2.005,2.224,2.224,0,0,0,1.431,2.37,3.339,3.339,0,0,0,1.982.109c.514-.109.734-.4,1.468-.8v.474h1.028c0-1.458.037-3.245,0-4.922A1.873,1.873,0,0,0,35.2,40.087Zm.514,4.593a.984.984,0,0,0,0,.328c0,.766-.184,1.021-.918,1.312a2.45,2.45,0,0,1-1.615.073,1.436,1.436,0,0,1-1.064-1.349,1.412,1.412,0,0,1,.991-1.422,2.4,2.4,0,0,1,2.312.4A.609.609,0,0,1,35.71,44.681Zm5.726-3.609a2.187,2.187,0,0,1,2.5.693l.11.073c.257-.219.477-.437.771-.693a1.522,1.522,0,0,1-.22-.292,3.609,3.609,0,0,0-4.441-.365A4.006,4.006,0,0,0,39.27,45.7a3.371,3.371,0,0,0,3.487,1.531,3.1,3.1,0,0,0,2.092-1.2c-.257-.219-.514-.437-.771-.693a.641.641,0,0,0-.147.182,2.258,2.258,0,0,1-3.524-.182,2.867,2.867,0,0,1-.477-2.3,2.139,2.139,0,0,1,1.5-1.969Zm7.635,4.958a.454.454,0,0,0-.11.073.934.934,0,0,1-.918.146c-.33-.146-.367-.437-.4-.729V41.363c0-.073,0,.073.037-.292h1.395V39.978H47.6V38.155H46.5v1.969h-.954c-.073,0-.184.073-.184.146a5.787,5.787,0,0,0,0,.8h1.175v4.666a1.442,1.442,0,0,0,.661,1.385,2.139,2.139,0,0,0,2.092-.146c.073-.036.11-.182.11-.219C49.291,46.54,49.181,46.285,49.071,46.029Z" transform="translate(-13.1 -2.1)" fill="#61dafb"/></svg>