<svg xmlns="http://www.w3.org/2000/svg" width="47" height="46" viewBox="0 0 47 46"><path d="M8.323,1.6H38.677A8.332,8.332,0,0,1,47,9.955v29.29A8.332,8.332,0,0,1,38.677,47.6H8.323A8.332,8.332,0,0,1,0,39.245V9.955A8.332,8.332,0,0,1,8.323,1.6Z" transform="translate(0 -1.6)" fill="#470137"/><path d="M36.381,30.989l-5.831,9.87,6.22,10.468a.351.351,0,0,1,.039.239c-.019.08-.1.02-.214.04H32.143c-.311,0-.525-.02-.661-.219-.408-.837-.836-1.655-1.244-2.492-.408-.817-.855-1.655-1.321-2.512s-.933-1.714-1.4-2.592h-.039c-.408.857-.855,1.715-1.3,2.572s-.885,1.7-1.322,2.552c-.447.837-.894,1.695-1.341,2.512-.078.2-.233.219-.447.219H18.79c-.078,0-.136.04-.136-.06a.283.283,0,0,1,.039-.219L24.738,41.2l-5.89-10.229c-.058-.08-.078-.16-.039-.2A.223.223,0,0,1,19,30.69h4.412a1.108,1.108,0,0,1,.272.04.552.552,0,0,1,.194.179c.37.857.8,1.714,1.244,2.572.466.857.913,1.695,1.4,2.532.466.837.894,1.675,1.3,2.532h.039c.408-.877.836-1.735,1.263-2.572s.875-1.675,1.322-2.512.875-1.695,1.3-2.512a.342.342,0,0,1,.117-.2.363.363,0,0,1,.253-.04h4.1a.175.175,0,0,1,.135.024.184.184,0,0,1,.079.116c.019.02-.02.1-.058.139Zm8.98,21.036a9.46,9.46,0,0,1-4.179-.9,6.84,6.84,0,0,1-2.935-2.712,8.8,8.8,0,0,1-1.069-4.546,8.353,8.353,0,0,1,1.069-4.207,8.169,8.169,0,0,1,3.091-3.091,9.739,9.739,0,0,1,4.918-1.156,3.4,3.4,0,0,1,.408.02c.175.02.369.02.6.04v-6.3c0-.14.058-.219.195-.219h3.946a.175.175,0,0,1,.195.139V48.116c0,.359.019.758.039,1.2.039.419.058.818.078,1.157a.324.324,0,0,1-.195.319,14.564,14.564,0,0,1-3.168.957,16.726,16.726,0,0,1-2.993.279Zm1.9-3.988V39.263a4.889,4.889,0,0,0-.525-.1q-.32-.035-.641-.04a4.691,4.691,0,0,0-2.2.519,4.393,4.393,0,0,0-1.652,1.475,4.509,4.509,0,0,0-.641,2.532A5.686,5.686,0,0,0,41.94,45.7a3.909,3.909,0,0,0,.875,1.416,3.341,3.341,0,0,0,1.322.8,4.97,4.97,0,0,0,1.613.259c.292,0,.564-.02.816-.04A1.664,1.664,0,0,0,47.266,48.036Z" transform="translate(-11.682 -17.488)" fill="#ff61f6"/></svg>