<svg xmlns="http://www.w3.org/2000/svg" width="119.709" height="143.56" viewBox="0 0 119.709 143.56"><g transform="translate(-646.936 -83.49)"><g transform="translate(647.046 196.545)"><path d="M653.065,434.474c.228-.2,6.12-.781,6.544-.879s8.106.1,8.3,0,1.888-1.237,1.888-1.237,4.753.456,4.916.456c.2,0,19.729,13.445,19.729,13.445l-2.7,6.023L678.2,457.361l-9.929,4.818L664.1,460.03l-9.995-7.488-3.581-5.73-1.367-5.4,1.53-4.688Z" transform="translate(-648.544 -431.837)" fill="#5c5262"/><path d="M650.806,441.059a4.243,4.243,0,0,1,6.12-.13,30.943,30.943,0,0,1,5.827,7.878s4.493,9.246,5.4,12.7c.912,3.483-.684,5.209-.684,5.209s-2.8-.977-2.9-1.107-8.692-6.251-8.692-6.251-4.623-5.534-4.851-5.7a75.195,75.195,0,0,1-2.084-8.171C649.048,445.323,650.806,441.059,650.806,441.059Z" transform="translate(-648.402 -436.761)" fill="#3e3742"/><g transform="translate(3.95 8.766)"><path d="M678.3,484.141c.984-.7,2.783.156,4.018,1.9s1.441,3.727.457,4.423-2.783-.156-4.018-1.9S677.32,484.836,678.3,484.141Z" transform="translate(-671.732 -475.364)" fill="#2d2830"/><path d="M663.263,471.855a1.375,1.375,0,1,1-2.084-.684A1.593,1.593,0,0,1,663.263,471.855Z" transform="translate(-660.284 -466.655)" fill="#2d2830"/><path d="M661.963,458.555a1.375,1.375,0,1,1-2.084-.684A1.593,1.593,0,0,1,661.963,458.555Z" transform="translate(-659.407 -457.685)" fill="#2d2830"/><path d="M675.863,462.955a1.375,1.375,0,1,1-2.084-.684C674.333,461.848,675.277,462.174,675.863,462.955Z" transform="translate(-668.782 -460.652)" fill="#2d2830"/></g><path d="M666.671,461.263h-.1c-3.321-.065-11.915-6.576-15.659-11.232-4.069-5.014-4.818-11.492-1.791-15.041,2.767-3.223,7.716-3.06,12.534-2.9.488.033,1.009.033,1.5.033,2.93.065,3.776-.553,4.037-.846a.86.86,0,0,0,.163-.293l1.237-.228a1.671,1.671,0,0,1-.423,1.335c-.781.912-2.474,1.335-5.014,1.27-.488,0-1.009-.033-1.5-.033-4.525-.163-9.181-.326-11.557,2.442-2.6,3.06-1.823,8.953,1.823,13.445,3.776,4.655,12.046,10.711,14.748,10.743,1.758.033,4.851-1.53,8.171-3.19,2.181-1.107,4.428-2.246,6.739-3.19a54.149,54.149,0,0,1,11.264-3.256l.163,1.237a51.094,51.094,0,0,0-10.971,3.19c-2.279.912-4.493,2.051-6.641,3.125C671.782,459.732,668.722,461.263,666.671,461.263Z" transform="translate(-647.272 -430.758)" fill="#1d1d1b"/><g transform="translate(4.293 2.456)"><path d="M660.556,439.558l-.1-1.237c6.544-.488,9.956,9.249,10.087,9.639C670.545,447.993,666.188,439.135,660.556,439.558Z" transform="translate(-660.458 -438.303)" fill="#1d1d1b"/></g><g transform="translate(18.292 20.738)"><path d="M704.89,504.094l-.781-.944c1.628-1.367-.651-8.692-.651-8.692C703.881,495.207,707.625,501.815,704.89,504.094Z" transform="translate(-703.458 -494.458)" fill="#1d1d1b"/></g></g><g transform="translate(720.747 196.545)"><path d="M915.038,434.474c-.228-.2-6.12-.781-6.544-.879s-8.106.1-8.3,0-1.888-1.237-1.888-1.237-4.753.456-4.916.456c-.2,0-19.729,13.445-19.729,13.445l2.7,6.023,13.543,5.079,9.929,4.818L904,460.03,914,452.542l3.581-5.73,1.367-5.4-1.53-4.688Z" transform="translate(-873.66 -431.837)" fill="#5c5262"/><path d="M970.729,441.059a4.243,4.243,0,0,0-6.12-.13,30.945,30.945,0,0,0-5.827,7.878s-4.493,9.246-5.4,12.7c-.912,3.483.684,5.209.684,5.209s2.8-.977,2.9-1.107,8.692-6.251,8.692-6.251,4.623-5.534,4.851-5.7a75.195,75.195,0,0,0,2.084-8.171C972.487,445.323,970.729,441.059,970.729,441.059Z" transform="translate(-927.235 -436.761)" fill="#3e3742"/><g transform="translate(30.274 8.766)"><path d="M967.729,486.119c-1.237,1.725-1.432,3.711-.456,4.395s2.767-.163,4-1.888,1.432-3.711.456-4.4C970.757,483.514,968.966,484.361,967.729,486.119Z" transform="translate(-966.653 -475.417)" fill="#2d2830"/><path d="M992.514,471.855a1.375,1.375,0,1,0,2.083-.684C994.012,470.748,993.1,471.074,992.514,471.855Z" transform="translate(-983.82 -466.655)" fill="#2d2830"/><path d="M993.814,458.555a1.375,1.375,0,1,0,2.084-.684A1.593,1.593,0,0,0,993.814,458.555Z" transform="translate(-984.697 -457.685)" fill="#2d2830"/><path d="M979.914,462.955a1.375,1.375,0,1,0,2.083-.684C981.444,461.848,980.5,462.174,979.914,462.955Z" transform="translate(-975.322 -460.652)" fill="#2d2830"/></g><g transform="translate(0.162)"><path d="M900.5,461.263h.1c3.321-.065,11.915-6.576,15.659-11.232,4.069-5.014,4.818-11.492,1.791-15.041-2.767-3.223-7.716-3.06-12.534-2.9-.488.033-1.009.033-1.5.033-2.93.065-3.776-.553-4.037-.846a.859.859,0,0,1-.163-.293l-1.237-.228a1.671,1.671,0,0,0,.423,1.335c.781.912,2.474,1.335,5.014,1.27.488,0,1.009-.033,1.5-.033,4.525-.163,9.181-.326,11.557,2.442,2.6,3.06,1.823,8.953-1.823,13.445-3.776,4.655-12.046,10.711-14.748,10.743-1.758.033-4.851-1.53-8.171-3.19-2.181-1.107-4.428-2.246-6.739-3.19a54.149,54.149,0,0,0-11.264-3.256l-.163,1.237a51.094,51.094,0,0,1,10.971,3.19c2.279.912,4.493,2.051,6.641,3.125C895.352,459.732,898.444,461.263,900.5,461.263Z" transform="translate(-874.158 -430.758)" fill="#1d1d1b"/></g><g transform="translate(31.539 2.456)"><path d="M980.508,439.558l.1-1.237c-6.544-.488-9.936,9.207-10.067,9.6C970.538,447.952,974.875,439.135,980.508,439.558Z" transform="translate(-970.539 -438.303)" fill="#1d1d1b"/></g><g transform="translate(25.168 20.738)"><path d="M951.975,504.094l.781-.944c-1.628-1.367.651-8.692.651-8.692C952.984,495.207,949.208,501.815,951.975,504.094Z" transform="translate(-950.969 -494.458)" fill="#1d1d1b"/></g></g><g transform="translate(667.081 155.037)"><path d="M788.683,347.638a16.568,16.568,0,0,1-.775,2.025,21.562,21.562,0,0,1-2.686,4.395,24.628,24.628,0,0,1-2.243,2.481,31.672,31.672,0,0,1-10.711,6.615l0,0c-.866.335-1.778.658-2.741.964l-.228.049-17.912,1.862-2.142.221-.052-.007-1.458-.16-19.032-2.08c-.143-.029-.28-.059-.42-.091h0q-1.074-.356-2.061-.742a31.731,31.731,0,0,1-10.763-6.635,24.65,24.65,0,0,1-2.259-2.507,21.634,21.634,0,0,1-2.653-4.333v0a18.027,18.027,0,0,1-.742-1.9v0c.007-.583.036-1.2.088-1.852a97.574,97.574,0,0,1,3.516-17.727.084.084,0,0,0,.01-.036c.2-.7.4-1.4.606-2.093a53.864,53.864,0,0,1,2.119-5.86l.01-.029a37.533,37.533,0,0,1,5.876-9.783c.371-.43.589-.638.589-.638l26.63-6.511,25.751,3.679A61.907,61.907,0,0,1,782.56,320.6c.687,1.7,1.338,3.523,1.908,5.447a103.1,103.1,0,0,1,4.135,19.895C788.647,346.534,788.674,347.1,788.683,347.638Z" transform="translate(-709.478 -303.258)" fill="#fff"/><path d="M792.257,459.244a24.632,24.632,0,0,1-2.243,2.481A31.672,31.672,0,0,1,779.3,468.34l0,0c-.866.335-1.778.658-2.741.964-.462.147-.938.29-1.423.426l-16.717,1.485-2.142.189-.052,0-1.458-.13-17.326-1.52c-.736-.208-1.442-.423-2.126-.651h0q-1.074-.356-2.061-.742a31.73,31.73,0,0,1-10.763-6.635,24.641,24.641,0,0,1-2.259-2.507q.967.552,2.061,1.087a10.74,10.74,0,0,0,1.045.423h0a106.773,106.773,0,0,0,65.8.026,11.071,11.071,0,0,0,1.123-.449Q791.324,459.783,792.257,459.244Z" transform="translate(-716.512 -408.444)" fill="#c7dbf3"/><path d="M791.615,341.947c.033,0-.423-1.66-.391-1.628-.521-2.116-1.107-4.265-1.758-6.381a63.538,63.538,0,0,0-9.376-18.98c-17.32,1.367-51.535,4.037-51.535,4.037s-2.442-1.465-4.135-.977c-1.823,2.474-3.288,8.855-5.4,15.887-.619,2.116-1.2,4.981-1.758,7.065C717.291,341,752.678,353.211,791.615,341.947Z" transform="translate(-714.509 -311.149)" fill="#5c5262"/><path d="M806.278,487.248c-.866.335-1.778.658-2.741.964-.462.147-.938.29-1.423.426-1.318.371-2.725.71-4.219,1.006-.007,0-.01,0-.013,0-5.854.863-11.717,1.208-13.833,1.312h-.006c-.524.026-.817.036-.82.036s-.3-.01-.817-.036h-.039c-2.136-.107-7.96-.453-13.787-1.312h0q-2.207-.439-4.157-.99c-.736-.208-1.442-.423-2.126-.651h0q-1.074-.357-2.061-.742c2.526.4,6.238.964,9.939,1.387.173.023.358.046.547.059a.152.152,0,0,0,.055.01,109.754,109.754,0,0,0,12.453.876,110.872,110.872,0,0,0,12.495-.879.019.019,0,0,1,.013,0c.189-.02.371-.042.547-.062C800.024,488.205,803.758,487.645,806.278,487.248Z" transform="translate(-743.49 -427.349)" fill="#1d1d1b"/><path d="M750.558,356.846s12.046,12.371,27.64,12.371c15.4,0,26.533-12.859,26.533-12.859Z" transform="translate(-736.968 -339.071)" fill="#3e3742"/><path d="M788.307,379.278c-.605-10.181-4.956-21.348-6.41-24.537-.137-.3-.244-.527-.316-.68,0,0,0-.007,0-.01-.039-.081-.065-.14-.081-.173.085.264,2.4,7.292,3.991,14.442.322,1.458.619,2.923.856,4.336.212,1.242.376,2.515.5,3.767a14.775,14.775,0,0,1-2.431,9.752,22.437,22.437,0,0,1-2.97,3.534c-.036.036-.068.072-.1.1-3.5,3.363-9.672,7.208-20.285,8.949a.02.02,0,0,0-.013,0,77.413,77.413,0,0,1-12.462.944h-.052a77.117,77.117,0,0,1-12.433-.941.152.152,0,0,1-.055-.01c-10.607-1.742-16.769-5.583-20.269-8.946-.042-.042-3.805-3.832-4.889-6.958a11.624,11.624,0,0,1-.756-4.688c.137-1.793.345-3.685.657-5.51.293-1.735.671-3.545,1.084-5.333,1.345-5.8,3.08-11.326,3.607-12.964l.01-.029c.085-.26.137-.417.147-.453-.094.2-.638,1.328-1.377,3.1,0,0,0,0,0,.007-2.018,4.828-5.512,14.429-5.434,23.144a10.513,10.513,0,0,0,.319,1.8v0a18.027,18.027,0,0,0,.742,1.9v0a21.632,21.632,0,0,0,2.653,4.333,24.644,24.644,0,0,0,2.259,2.507,31.73,31.73,0,0,0,10.763,6.635q.986.386,2.061.742h0c.684.228,1.39.443,2.126.651q1.948.547,4.157.99h0a74.841,74.841,0,0,0,13.787,1.312h.039c.264,0,.531,0,.8,0h.052c.264,0,.527,0,.788,0h.006a75.029,75.029,0,0,0,13.833-1.312s.006,0,.013,0c1.494-.3,2.9-.635,4.219-1.006.485-.137.96-.28,1.423-.426.964-.306,1.875-.628,2.741-.964l0,0a31.67,31.67,0,0,0,10.711-6.615,24.638,24.638,0,0,0,2.243-2.481,21.572,21.572,0,0,0,2.686-4.4,16.573,16.573,0,0,0,.775-2.025A11.066,11.066,0,0,0,788.307,379.278Z" transform="translate(-708.815 -337.398)" fill="#1d1d1b"/></g><g transform="translate(656.364 84.485)"><g transform="translate(0.364 0.33)"><path d="M691.613,87.558c-7.455,0-11.46,5.469-12.566,7.26-2.116,3.451-2.474,9.636-1.563,13.641,1.27,5.534,5.241,11,9.148,12.566l21.715-22.984c-1.107-1.432-7.585-9.441-14.715-10.353A14.313,14.313,0,0,0,691.613,87.558Z" transform="translate(-677.013 -87.558)" fill="#5c5262"/></g><path d="M717.1,87.707a15.374,15.374,0,0,0-5.339.26c.065.1,14.324,2.474,14.1,16.408l5.958-6.283C730.705,96.627,724.194,88.619,717.1,87.707Z" transform="translate(-700.082 -87.247)" fill="#3e3742"/><g transform="translate(7.538 10.509)"><path d="M702.86,119.194h.391l1.237.033-1.107.553a6.721,6.721,0,0,0-1.856,1.335,8.711,8.711,0,0,0-2.474,6.576c.1,3.874,3.19,7.065,5.014,8.627.26.228.521.423.716.586l9.474-11.687c-.163-.293-.358-.553-.553-.846a12.818,12.818,0,0,0-7.162-5.241h-.033a8.639,8.639,0,0,0-5.046.163A6.3,6.3,0,0,1,702.86,119.194Z" transform="translate(-699.048 -118.825)" fill="#3e3742"/></g><path d="M713.12,123.489a12.986,12.986,0,0,0-7.39-5.372,9.5,9.5,0,0,0-7.488,1.237,14,14,0,0,1,4.011-.523,6.657,6.657,0,0,0-1.83,1.3,9.054,9.054,0,0,0-2.572,6.8c.1,4,3.256,7.26,5.144,8.855.391.326.749.586.977.781.228-.358.423-.716.651-1.074a11.239,11.239,0,0,1-.977-.781c-1.725-1.5-4.428-4.395-4.525-7.781a7.784,7.784,0,0,1,2.181-5.893c1.157-1.125,2.966-2.084,4.4-1.693a11.463,11.463,0,0,1,6.479,4.948,11.214,11.214,0,0,1,.651,1.042l.033-.033a10.831,10.831,0,0,1,.911-.814A7.678,7.678,0,0,0,713.12,123.489Z" transform="translate(-690.701 -107.63)" fill="#1d1d1b"/><g transform="translate(0)"><path d="M685.91,120.667c-4.037-1.5-8.237-7.13-9.539-12.859-.911-4.069-.586-10.353,1.6-13.869,1.237-1.986,5.958-8.4,14.91-7.26,7.781.977,14.78,10.288,15.073,10.678l-1.009.749c-.065-.1-7-9.278-14.227-10.19a13.963,13.963,0,0,0-13.706,6.674c-2.018,3.256-2.311,9.116-1.432,12.957,1.335,5.893,5.567,10.808,8.757,11.98Z" transform="translate(-675.895 -86.545)" fill="#1d1d1b"/></g></g><g transform="translate(724.881 84.485)"><g transform="translate(0 0.33)"><path d="M901.073,87.688c-7.13.912-13.608,8.92-14.715,10.353l21.715,22.984c3.907-1.563,7.878-7.032,9.148-12.566.911-4,.553-10.19-1.563-13.641-1.107-1.791-5.111-7.26-12.566-7.26A14.315,14.315,0,0,0,901.073,87.688Z" transform="translate(-886.358 -87.558)" fill="#5c5262"/><g transform="translate(8.985 10.147)"><path d="M926.752,119.191a8.639,8.639,0,0,0-5.046-.163h-.033a12.819,12.819,0,0,0-7.162,5.241c-.2.293-.391.553-.553.846l9.474,11.687c.2-.163.456-.358.716-.586,1.823-1.563,4.916-4.753,5.014-8.627a8.712,8.712,0,0,0-2.474-6.576,7.468,7.468,0,0,0-1.856-1.335l-1.107-.553,1.237-.033h.391C925.841,119.126,926.329,119.126,926.752,119.191Z" transform="translate(-913.958 -118.725)" fill="#3e3742"/></g></g><path d="M902.373,87.707a15.374,15.374,0,0,1,5.339.26c-.065.1-14.324,2.474-14.1,16.408l-5.958-6.316C888.765,96.627,895.243,88.619,902.373,87.707Z" transform="translate(-887.235 -87.247)" fill="#3e3742"/><path d="M927.306,120.136a6.653,6.653,0,0,0-1.83-1.3,14,14,0,0,1,4.011.523A9.5,9.5,0,0,0,922,118.117a12.986,12.986,0,0,0-7.39,5.372c-.2.293-.423.651-.651,1.009a10.843,10.843,0,0,1,.912.814l.032.033a11.225,11.225,0,0,1,.651-1.042c1.921-2.865,4.213-4.508,6.479-4.948a5.509,5.509,0,0,1,4.395,1.693,7.784,7.784,0,0,1,2.181,5.893c-.1,3.386-2.8,6.283-4.525,7.781a11.239,11.239,0,0,1-.977.781c.228.358.423.716.651,1.074.228-.2.586-.456.977-.781,1.888-1.6,5.046-4.851,5.144-8.855A9.053,9.053,0,0,0,927.306,120.136Z" transform="translate(-904.973 -107.63)" fill="#1d1d1b"/><g transform="translate(0)"><path d="M908.4,120.667c4.037-1.5,8.237-7.13,9.539-12.859.912-4.069.586-10.353-1.6-13.869-1.237-1.986-5.958-8.4-14.91-7.26-7.781.977-14.78,10.288-15.073,10.678l1.009.749c.065-.1,7-9.278,14.227-10.19A13.963,13.963,0,0,1,915.3,94.59c2.018,3.256,2.311,9.116,1.432,12.957-1.335,5.893-5.567,10.808-8.758,11.98Z" transform="translate(-886.358 -86.545)" fill="#1d1d1b"/></g></g><g transform="translate(659.058 83.49)"><g transform="translate(0 0.636)"><path d="M718.806,178.426c2.116.326,14.585,2.084,25,.033h0c17.515-2.214,39.555-19.436,33.988-37.992a40.984,40.984,0,0,1-2.018-7.488c-2.344-11.785-7.813-22.952-16.864-30.83-5.893-5.241-16.734-9.148-23.082-10.06,1.237-3.028,1.725-6.8-2.865-6.641-4.3.391-6.479,4.428-7.553,6.967-21.226,4.037-33.858,18.915-38.35,40.564a38.51,38.51,0,0,1-2.018,7.488C679.544,158.7,701.1,176.082,718.806,178.426Z" transform="translate(-684.171 -85.442)" fill="#fff"/></g><path d="M758.76,327.815h0c-13.055,2.018-28.714.293-31.384-.033a66.223,66.223,0,0,1-25.719-8.66c6.772,8.92,20.868,16.343,31.286,17.71,2.116.326,15.757,1.693,24.384-.619a49.9,49.9,0,0,0,11.753-4.33c6.023-3.158,12.339-8.3,15.757-12.827A66.585,66.585,0,0,1,758.76,327.815Z" transform="translate(-695.965 -242.368)" fill="#c7dbf3"/><g transform="translate(11.799 32.089)"><path d="M734.622,182.058a13.414,13.414,0,0,0-9.05,3.874,16.7,16.7,0,0,0-5.079,10.581c-.749,8.562,3.842,15.236,10.906,15.855,7.585.651,15.4-6.218,16.115-14.129h0c.716-8.269-4.623-15.5-11.948-16.148C735.24,182.091,734.915,182.058,734.622,182.058Z" transform="translate(-720.413 -182.058)" fill="#5c5262"/></g><g transform="translate(10.556 30.842)"><path d="M729.9,211.085c-.391,0-.781-.033-1.172-.065-7.781-.684-12.859-7.911-12.046-17.189a18.232,18.232,0,0,1,5.469-11.362,14.292,14.292,0,0,1,10.939-4.2c8.009.716,13.869,8.562,13.087,17.482h0C745.428,204.085,737.842,211.085,729.9,211.085Zm2.149-31.611a13.414,13.414,0,0,0-9.05,3.874,16.7,16.7,0,0,0-5.079,10.581c-.749,8.562,3.842,15.236,10.906,15.855,7.585.651,15.4-6.218,16.115-14.129h0c.716-8.269-4.623-15.5-11.948-16.148C732.666,179.506,732.34,179.473,732.047,179.473Z" transform="translate(-716.596 -178.226)" fill="#1d1d1b"/></g><g transform="translate(56.253 32.089)"><path d="M868.972,182.091c-7.325.651-12.664,7.878-11.948,16.148h0c.684,7.944,8.53,14.813,16.115,14.129,7.065-.619,11.655-7.292,10.906-15.855a17.03,17.03,0,0,0-5.079-10.581,13.205,13.205,0,0,0-9.05-3.874C869.591,182.058,869.266,182.091,868.972,182.091Z" transform="translate(-856.96 -182.058)" fill="#5c5262"/></g><g transform="translate(55.01 30.874)"><path d="M853.213,195.851h0c-.781-8.953,5.079-16.8,13.087-17.482a14.293,14.293,0,0,1,10.939,4.2,18.232,18.232,0,0,1,5.469,11.362c.814,9.278-4.232,16.506-12.046,17.189-.391.033-.781.065-1.172.065C861.515,211.152,853.929,204.153,853.213,195.851ZM866.4,179.573c-7.325.651-12.664,7.878-11.948,16.148h0c.684,7.944,8.53,14.813,16.115,14.129,7.065-.619,11.655-7.292,10.906-15.855a17.031,17.031,0,0,0-5.079-10.581,13.205,13.205,0,0,0-9.05-3.874C867.017,179.541,866.691,179.573,866.4,179.573Z" transform="translate(-853.143 -178.326)" fill="#1d1d1b"/></g><path d="M833.855,113.123c-.13.033,7.683-1.042,7.944-3.483a3.014,3.014,0,0,0-1.66-3.223l-2.767-.358-1.237,1.693,1.563.846C837.631,108.565,838.38,112.113,833.855,113.123Z" transform="translate(-785.123 -98.711)" fill="#c7dbf3"/><path d="M819.578,92.145c1.3-2.1,1.91-4.617,1.3-6.353-.326-.944-1.3-2.507-4.167-2.279-4.362.358-6.8,4.362-7.944,7.032-.228.521-.391.977-.521,1.367-.2.553-.26.912-.293.977a8.192,8.192,0,0,1,.521-1.042,12.969,12.969,0,0,1,.684-1.2c1.432-2.311,4.069-5.6,7.651-5.893,1.563-.13,2.539.358,2.9,1.432.781,2.214-2.865,8.888-2.865,8.888a8.872,8.872,0,0,0,2.027-1.907c.63.337.969.7.969,1-.033.944-3.874,4.1-3.874,4.1.846-.326,5.046-1.953,5.111-4.069C821.1,93.4,820.6,92.726,819.578,92.145Z" transform="translate(-767.658 -83.49)" fill="#1d1d1b"/><g transform="translate(37.532 52.078)"><g transform="translate(3.842)"><path d="M822.848,243.458H812.137a.877.877,0,0,0-.749,1.335c1.172,1.953,3.614,5.372,6.12,5.274h0c2.507.1,4.916-3.321,6.12-5.274A.9.9,0,0,0,822.848,243.458Z" transform="translate(-811.258 -243.458)" fill="#1d1d1b"/><path d="M821.953,244.658c2.427,0,4.4.306,4.4.684s-1.968.684-4.4.684-4.4-.306-4.4-.684S819.526,244.658,821.953,244.658Z" transform="translate(-815.507 -244.267)" fill="#353535"/></g><g transform="translate(3.874 22.887)"><path d="M819.027,319.916c-2.9-.13-5.469-3.158-5.469-3.158.065.163,1.856,4.265,5.437,4.4h.033c3.581-.163,5.372-4.232,5.437-4.4C824.5,316.758,821.925,319.786,819.027,319.916Z" transform="translate(-812.842 -315.781)" fill="#c7dbf3"/><path d="M817.544,316.916c-3.288-.13-6.186-3.158-6.186-3.158.1.163,2.116,4.265,6.186,4.4h.033c4.069-.163,6.088-4.232,6.186-4.4C823.729,313.758,820.832,316.786,817.544,316.916Z" transform="translate(-811.358 -313.758)" fill="#1d1d1b"/></g><g transform="translate(0 6.381)"><path d="M812.358,270.681a10.378,10.378,0,0,1,5.86-2.637c1.758-.1,3.223.912,5.632,2.116,0,0-.684,9.343-4.721,10.32s-6.251-6.12-6.251-6.12Z" transform="translate(-808.158 -266.417)" fill="#e14a67"/><path d="M819.438,263.334a7.083,7.083,0,0,1-5.982,2.1c-2.8-.553-3.223-1.888-3.321-2.279v-.1h-1.3v.1c-.065.391-.521,1.758-3.321,2.279-3.386.651-6.055-2.116-6.055-2.116a6.108,6.108,0,0,0,3.827,3.275c-.035,1.477.062,7.234,2.717,9.975a4.773,4.773,0,0,0,3.516,1.5,4.827,4.827,0,0,0,3.646-1.563c2.652-2.8,2.669-8.567,2.62-9.956A6.234,6.234,0,0,0,819.438,263.334Zm-7.154,12.323a3.6,3.6,0,0,1-2.735,1.172,3.492,3.492,0,0,1-2.637-1.107c-2.235-2.318-2.389-7.417-2.383-8.958.036,0,.069,0,.1,0a6.648,6.648,0,0,0,1.107-.1,6.729,6.729,0,0,0,2.958-1.222l.819,6.724.834-6.612a6.9,6.9,0,0,0,2.813,1.11,6.644,6.644,0,0,0,1.107.1c.1,0,.19-.008.284-.014C814.594,268.277,814.494,273.337,812.284,275.657Z" transform="translate(-799.457 -263.058)" fill="#1d1d1b"/><path d="M860.833,263.874c.007-.009.011-.016.008-.016Z" transform="translate(-840.852 -263.598)" fill="#1d1d1b"/></g></g></g><g transform="translate(646.936 122.673)"><path d="M657.018,212.33s8.2-4.948,8.367-5.014,7.976-1.758,7.976-1.758l12.013,1.335,3.842,2.735,2.214,2.93v4.688l-4.851,5.73-7.651,5.014-10.711,3.972-6.641,2.051c-.033,0,1.335,3.646,1.335,3.646l5.209,7.944,7.488,6.12-3.874,10.515-5.925-4.721s-6.186-5.307-6.283-5.469c-.1-.13-8.562-10.711-8.562-10.711l-2.084-6.023-.521-8.367,2.8-8.009Z" transform="translate(-647.895 -205.001)" fill="#5c5262"/><path d="M650.576,228.838l-.293-.1-1.725,4.916.521,8.367,2.084,6.023s8.464,10.581,8.562,10.711,6.283,5.469,6.283,5.469l6.39,5.068,3.41-10.862-7.488-6.12-5.209-7.944s-1.367-3.646-1.335-3.646,6.641-2.051,6.641-2.051l10.711-3.972,7.651-5.014,4.851-5.73v-4.688l-2.214-2.93-1.237-.879h0C688.113,215.425,684.011,239.484,650.576,228.838Z" transform="translate(-648.03 -211.678)" fill="#3e3742"/><g transform="translate(0)"><path d="M689.786,218.5c-4.981,7.813-21.422,12.534-28.519,14.227-.456.1-.879.2-1.237.293-1.107.26-1.823.391-2.018.423.13-.033.846-.2,1.986-.553.358-.1.781-.228,1.2-.358,6.9-2.051,22.854-7.455,27.509-14.748a7.046,7.046,0,0,0,1.074-5.73c-.879-3.614-5.372-6.218-11.753-6.837a32.093,32.093,0,0,0-13.706,1.758,13.731,13.731,0,0,0-1.465.586,22.83,22.83,0,0,0-12.143,11.3c-5.73,12.5-3.794,24.026,20.948,41.476l-.42,1.327c-21.975-15.5-28.635-28.056-21.668-43.325,2.767-6.088,7.944-10.092,13.706-12.306.488-.2.977-.358,1.465-.521a33.552,33.552,0,0,1,13.348-1.53c6.9.651,11.818,3.646,12.827,7.781A8.094,8.094,0,0,1,689.786,218.5Z" transform="translate(-646.936 -203.848)" fill="#1d1d1b"/></g></g><g transform="translate(721.975 122.706)"><path d="M914.069,212.33s-8.2-4.948-8.367-5.014-7.976-1.758-7.976-1.758l-12.013,1.335-3.842,2.735-2.214,2.93v4.688l4.851,5.73,7.651,5.014,10.711,3.972,6.641,2.051c.033,0-1.335,3.646-1.335,3.646l-5.209,7.944-7.488,6.12,3.874,10.515,5.925-4.721s6.186-5.307,6.283-5.469c.1-.13,8.562-10.711,8.562-10.711l2.083-6.023.521-8.367-2.8-8.009Z" transform="translate(-878.933 -205.034)" fill="#5c5262"/><path d="M920.68,228.838l.293-.1,1.725,4.916-.521,8.367-2.084,6.023s-8.464,10.581-8.562,10.711-6.283,5.469-6.283,5.469l-5.925,4.721-3.874-10.515,7.488-6.12,5.209-7.944s1.367-3.646,1.335-3.646-6.641-2.051-6.641-2.051L892.129,234.7l-7.651-5.014-4.818-5.73v-4.688l2.214-2.93,1.237-.879h0C883.11,215.425,887.212,239.484,920.68,228.838Z" transform="translate(-878.935 -211.711)" fill="#3e3742"/><g transform="translate(0)"><path d="M897.809,261.469l-.363-1.294c24.71-17.417,26.19-28.682,20.493-41.216a22.416,22.416,0,0,0-12.078-11.264c-.488-.228-1.009-.423-1.53-.619a32.093,32.093,0,0,0-13.706-1.758c-6.348.619-10.874,3.223-11.753,6.837a7.046,7.046,0,0,0,1.074,5.73c4.721,7.39,21,12.827,27.77,14.813.423.13.814.228,1.172.358,1.042.293,1.693.456,1.791.488-.2-.033-.846-.163-1.823-.391a10.254,10.254,0,0,1-1.172-.293c-6.967-1.66-23.7-6.381-28.779-14.292a8.437,8.437,0,0,1-1.237-6.706c1.009-4.135,5.925-7.13,12.827-7.781a33.725,33.725,0,0,1,13.283,1.5c.521.163,1.009.358,1.53.553,5.762,2.214,10.939,6.218,13.706,12.306C926.047,233.707,919.783,245.973,897.809,261.469Z" transform="translate(-877.432 -203.947)" fill="#1d1d1b"/></g></g><g transform="translate(659.965 90.186)"><path d="M881.639,138.209c.163.488.358,1.009.521,1.5.521.2,1.042.391,1.53.619-.163-.521-.358-1.042-.521-1.563-6.055-17.84-17.124-31.286-38.416-34.7l-.2,1.237C864.873,108.616,875.518,120.922,881.639,138.209Z" transform="translate(-793.25 -104.058)" fill="#1d1d1b"/><path d="M779.286,292.123c-.033.065-.033.1-.065.163-4.094,12.049-18.6,21.449-30.7,25.161a58.8,58.8,0,0,1-39.425-4c-5.839-2.842-11.818-7.1-15.4-11.329a27.4,27.4,0,0,1-5.469-9.9c-.033-.065-.065-.1-.065-.163-.423.13-.846.26-1.2.358,0,.033.033.065.033.1a29.147,29.147,0,0,0,5.762,10.418c6.2,7.274,15,12,22.856,14.259a57.687,57.687,0,0,0,18.185,2.872A60.1,60.1,0,0,0,749.382,318c12.576-2.722,26.814-13.419,31.043-25.421,0-.033.033-.065.033-.1C780.1,292.384,779.709,292.253,779.286,292.123Z" transform="translate(-686.958 -230.854)" fill="#1d1d1b"/><path d="M697.979,138.916a57.726,57.726,0,0,1,3.418-8.367c.423-.846.912-1.725,1.4-2.572.228-.358.423-.716.651-1.074a58.024,58.024,0,0,1,6.153-8.139c.651-.716,1.367-1.4,2.084-2.051a10.834,10.834,0,0,1,.912-.814c7.52-6.348,17.059-8.79,20.217-9.474.065,0,.13-.033.2-.033a12.955,12.955,0,0,1,.684-1.2l.032-.13s-.13.033-.358.065a53.755,53.755,0,0,0-12.306,4.069c-.391.163-.781.358-1.172.553a41.4,41.4,0,0,0-7.976,5.144c-.326.26-.619.521-.944.814a24.978,24.978,0,0,0-2.311,2.246,58.843,58.843,0,0,0-6.186,8.2c-.228.358-.456.716-.651,1.074-.553.912-1.074,1.856-1.53,2.767-.293.586-.586,1.172-.846,1.758-.2.391-.358.749-.521,1.139a62.659,62.659,0,0,0-2.409,6.544c-.163.521-.326,1.009-.456,1.53a13.731,13.731,0,0,1,1.465-.586C697.653,139.892,697.816,139.4,697.979,138.916Z" transform="translate(-693.095 -104.732)" fill="#1d1d1b"/></g></g></svg>