<svg xmlns="http://www.w3.org/2000/svg" width="227.472" height="284.386" viewBox="0 0 227.472 284.386"><g transform="translate(-678.733 -332.482)"><g transform="translate(678.733 332.482)"><g transform="translate(0 115.889)"><path d="M140.065,311.621l10.859,1.745,14.543,6.011,16.676,4.4,13.315,1.357h6.076c.452,0,5.43,11.118,5.43,11.118s-5.171,12.41-5.494,12.669-9.114,6.011-9.114,6.011l-17.84-1.357s-13.186-2.844-13.509-2.909-12.733-6.916-12.733-6.916l-10.342-9.954L133.924,320.8s1.875-7.627,1.939-7.886C135.863,312.655,140.065,311.621,140.065,311.621Z" transform="translate(-133.05 -281.964)" fill="#5c5262"/><path d="M158.46,350.659a51.661,51.661,0,0,1-17.84-12.41c-10.342-10.73-8.791-23.657-5.882-26.566,3.814-3.749,13.832-.646,21.653,2.585,11.182,4.718,26.243,8.661,35.1,9.243a34.722,34.722,0,0,0,16.095-2.973l1.034,2.068a37.412,37.412,0,0,1-17.258,3.167c-9.049-.646-24.5-4.653-35.809-9.437-14.479-6.076-18.292-3.878-19.132-3.1-2.133,2.068-3.361,13.7,5.947,23.334,10.342,10.73,22.688,16.676,49.964,16.095l.323,2.262C186.642,355.959,164.342,352.986,158.46,350.659Z" transform="translate(-132.571 -281.379)" fill="#1d1d1b"/><g transform="translate(5.475 0)"><path d="M151.072,350.975h0a.836.836,0,0,0,.811-.887L150.7,333.317l-5.713-65.764a1.866,1.866,0,0,0-.736-1.369,1.961,1.961,0,0,0-2.776.292,2.152,2.152,0,0,0-.43,1.471l7.056,65.561,2.03,16.733a.864.864,0,0,0,.938.735Z" transform="translate(-141.042 -265.738)" fill="#1d1d1b"/></g><g transform="translate(16.136 0.176)"><path d="M158.5,351.477h0a.831.831,0,0,0,.9-.773l.8-16.771L162.231,268a1.953,1.953,0,0,0-3.322-1.445,1.671,1.671,0,0,0-.583,1.369l-.79,65.879.078,16.859a.84.84,0,0,0,.888.81Z" transform="translate(-157.536 -266.012)" fill="#1d1d1b"/></g><path d="M161,332.755c-.129-.129-5.43-1.034-5.559-1.034s-8.726.517-8.726.517l-1.293,3.49s4.525,4.783,5.042,4.913,6.011,2.909,6.011,2.909,2.327-2.973,2.392-3.038C158.869,340.383,161,332.755,161,332.755Z" transform="translate(-137.116 -289.072)" fill="#5c5262"/><path d="M151.937,342.213a14.3,14.3,0,0,1-5.3-3.62c-1.616-1.81-2.521-3.943-2.327-5.43.194-1.164,1.228-3.878,7.5-3.426a25.145,25.145,0,0,0,7.627-.517,9.566,9.566,0,0,1-7.821,2.844c-3.555-.258-4.977.582-5.106,1.422a6.132,6.132,0,0,0,1.616,4.072c1.357,1.551,10.471,5.817,10.471,5.817A17.055,17.055,0,0,1,151.937,342.213Z" transform="translate(-136.713 -288.188)" fill="#1d1d1b"/></g><g transform="translate(6.922 221.107)"><path d="M152.325,433.9c.452-.323,11.311-1.422,12.087-1.616s14.931.194,15.254,0,3.49-2.262,3.49-2.262,8.726.84,9.049.84,36.326,24.821,36.326,24.821L223.555,466.8l-24.95,9.308-18.292,8.855-7.692-3.943L154.2,467.188l-6.593-10.536-2.521-9.954,2.779-8.661Z" transform="translate(-143.918 -429.052)" fill="#5c5262"/><path d="M148.343,439.3s5.171-5.688,11.311-.259,10.794,14.543,10.794,14.543,8.274,17,9.954,23.4-1.293,9.566-1.293,9.566-5.171-1.81-5.365-2.069-16.03-11.57-16.03-11.57-8.467-10.213-8.92-10.536-4.007-14.673-3.814-15.061C145.111,447.116,148.343,439.3,148.343,439.3Z" transform="translate(-143.879 -431.41)" fill="#3e3742"/><g transform="translate(7.404 16.073)"><path d="M180.13,481.763c2.262,3.232,2.65,6.852.84,8.144s-5.106-.258-7.369-3.49-2.65-6.851-.84-8.144S177.868,478.531,180.13,481.763Z" transform="translate(-160.706 -462.027)" fill="#2d2830"/><path d="M160.522,467.426c1.034,1.487.97,3.3-.065,4.072-1.1.776-2.844.194-3.878-1.293s-.97-3.3.065-4.072C157.742,465.357,159.488,465.939,160.522,467.426Z" transform="translate(-155.124 -457.774)" fill="#2d2830"/><path d="M159.422,455.026c1.034,1.486.97,3.3-.065,4.072-1.1.776-2.844.194-3.878-1.293s-.969-3.3.065-4.072C156.642,452.957,158.387,453.539,159.422,455.026Z" transform="translate(-154.735 -453.389)" fill="#2d2830"/><path d="M172.222,459.141c1.034,1.487.969,3.3-.065,4.072-1.1.776-2.844.194-3.878-1.293s-.969-3.3.065-4.072C169.442,457.137,171.188,457.654,172.222,459.141Z" transform="translate(-159.261 -454.854)" fill="#2d2830"/></g><path d="M227.182,464.589a97.339,97.339,0,0,0-20.748,6.011c-4.266,1.745-8.4,3.878-12.41,5.882-4.908,2.429-9.524,4.769-12.83,5.58,1.578-5.242-3.391-14.237-4.105-15.446a56.371,56.371,0,0,1,2.191,11.4,3.177,3.177,0,0,1-4.579,2.959c-6.674-3.258-17.354-11.647-22.884-18.458-6.722-8.209-8.144-19.132-3.361-24.756a9.565,9.565,0,0,1,.659-.7,5.826,5.826,0,0,1,5.38-1.484c8.858,2.108,15.386,15.079,15.328,15.079-.221-.607-4.865-13.658-13.731-16.909,4.074-.819,8.892-.654,13.629-.507.9,0,1.874.065,2.779.065,4.719.13,7.821-.646,9.243-2.327a3.257,3.257,0,0,0,.776-2.456l-2.262.452a.8.8,0,0,1-.259.517c-.452.517-2,1.681-7.433,1.551-.9,0-1.874-.065-2.779-.065-8.855-.323-17.969-.646-23.075,5.3-5.623,6.593-4.2,18.487,3.3,27.729,6.916,8.532,22.752,20.555,28.893,20.684h.194c3.749,0,9.437-2.844,15.965-6.2,3.943-2,8.015-4.072,12.216-5.753a93.515,93.515,0,0,1,20.231-5.882Z" transform="translate(-143.28 -428.522)" fill="#1d1d1b"/></g><g transform="translate(142.857 221.107)"><g transform="translate(0 0.97)"><path d="M429.793,433.9c-.452-.323-11.311-1.422-12.087-1.616s-14.931.194-15.254,0-3.49-2.262-3.49-2.262-8.726.84-9.049.84-36.326,24.821-36.326,24.821l4.977,11.117,25.014,9.372,18.292,8.855,7.692-3.943,18.422-13.833,6.593-10.535,2.521-9.954-2.779-8.662Z" transform="translate(-353.586 -430.021)" fill="#5c5262"/><path d="M459.764,439.3s-5.171-5.688-11.311-.259-10.794,14.543-10.794,14.543-8.274,17-9.954,23.4S429,486.545,429,486.545s5.171-1.81,5.365-2.069,16.03-11.57,16.03-11.57,8.467-10.213,8.92-10.536,4.008-14.673,3.814-15.061C462.932,447.116,459.764,439.3,459.764,439.3Z" transform="translate(-379.615 -432.379)" fill="#3e3742"/><g transform="translate(55.804 15.179)"><path d="M441.9,481.763c-2.262,3.232-2.65,6.852-.84,8.144s5.106-.258,7.369-3.49,2.65-6.851.84-8.144S444.164,478.531,441.9,481.763Z" transform="translate(-439.92 -462.102)" fill="#2d2830"/><path d="M464.279,467.426c-1.034,1.487-.969,3.3.065,4.072,1.1.776,2.843.194,3.878-1.293s.97-3.3-.065-4.072C466.994,465.357,465.313,465.939,464.279,467.426Z" transform="translate(-448.271 -457.849)" fill="#2d2830"/><path d="M465.519,455.1c1.031-1.457,2.741-2.019,3.819-1.256s1.116,2.563.085,4.02-2.741,2.02-3.819,1.256S464.488,456.56,465.519,455.1Z" transform="translate(-448.708 -453.505)" fill="#2d2830"/><path d="M452.579,459.141c-1.034,1.487-.97,3.3.065,4.072,1.1.776,2.844.194,3.878-1.293s.97-3.3-.065-4.072C455.358,457.137,453.613,457.654,452.579,459.141Z" transform="translate(-444.133 -454.929)" fill="#2d2830"/></g></g><path d="M434.982,436.277c-5.106-5.947-14.22-5.624-23.075-5.3-.9,0-1.874.064-2.779.064-5.43.13-6.981-1.034-7.433-1.551a.8.8,0,0,1-.259-.517l-2.262-.452a3.258,3.258,0,0,0,.776,2.456c1.422,1.681,4.525,2.456,9.243,2.327.9,0,1.874-.065,2.779-.065,4.721-.147,9.524-.311,13.59.5-8.882,3.235-13.5,16.346-13.72,16.953,0,0,6.133-12.358,14.633-14.937a6.423,6.423,0,0,1,6.671,1.9l.091.106c4.783,5.623,3.361,16.547-3.361,24.756-5.651,6.959-16.679,15.567-23.315,18.662a2.984,2.984,0,0,1-4.219-2.818c.121-4.851,2.24-11.7,2.24-11.7-.713,1.207-5.736,10.134-4.16,15.378-3.3-.827-7.883-3.15-12.754-5.56-4.008-2-8.144-4.137-12.41-5.882a97.373,97.373,0,0,0-20.749-6.011l-.323,2.262a93.513,93.513,0,0,1,20.231,5.882c4.2,1.68,8.273,3.749,12.216,5.753,6.528,3.361,12.152,6.205,15.965,6.205h.194c6.14-.129,21.976-12.152,28.893-20.684C439.183,454.763,440.605,442.87,434.982,436.277Z" transform="translate(-353.797 -428.521)" fill="#1d1d1b"/></g><g transform="translate(43.883 144.512)"><path d="M338.972,352.035a117.644,117.644,0,0,0-17.452-35.227l-47.443-6.787-49.124,12.023s-9.631,9.243-15.836,30.056-10.019,42.66-6.4,48.93c0,0,7.627,15.642,33.417,21.007l37.877,4.137,36.972-3.878c25.855-5.365,34.322-21.265,34.322-21.265C348.99,394.7,345.177,372.849,338.972,352.035Z" transform="translate(-200.763 -310.021)" fill="#fff"/><path d="M337.337,454.95c-4.525,2.2-33.611,10.342-62.633,10.342-29.086,0-58.109-8.144-62.633-10.342a58.852,58.852,0,0,1-8.984-5.365c.129.259.194.453.323.711,0,0,8.532,16.547,34.387,21.847l36.908,3.232,37.231-3.3C337.789,466.714,346,450.232,346,450.232a2.4,2.4,0,0,0,.323-.711A56.852,56.852,0,0,1,337.337,454.95Z" transform="translate(-201.391 -359.353)" fill="#c7dbf3"/><path d="M345.452,370.691c.065,0-.776-3.038-.711-3.038-.969-3.878-2.068-7.821-3.232-11.764a118.276,118.276,0,0,0-17.258-34.969c-31.931,2.521-94.952,7.433-94.952,7.433s-4.525-2.715-7.627-1.745c-3.361,4.525-6.076,16.289-9.954,29.28-1.163,3.943-2.262,9.179-3.232,13.057C208.486,368.946,273.7,391.44,345.452,370.691Z" transform="translate(-203.3 -313.876)" fill="#5c5262"/><g transform="translate(0 30.444)"><path d="M202.482,418.785c-7.886-23.593,9.825-60.112,10.6-61.664,0,0-6.335,19.068-8.985,34.646A155.705,155.705,0,0,0,202.482,418.785Z" transform="translate(-200.463 -357.121)" fill="#1d1d1b"/></g><g transform="translate(133.943 30.444)"><path d="M418.286,418.785c7.886-23.593-9.825-60.112-10.6-61.664,0,0,6.334,19.068,8.984,34.646A155.714,155.714,0,0,1,418.286,418.785Z" transform="translate(-407.686 -357.121)" fill="#1d1d1b"/></g><path d="M335.624,479.421s-12.087,2.133-24.174,3.555a214.821,214.821,0,0,1-24.045,1.745,213.619,213.619,0,0,1-24.045-1.745c-12.087-1.422-24.174-3.555-24.174-3.555,13.832,6.593,48.219,7.886,48.219,7.886C287.47,487.307,321.792,486.014,335.624,479.421Z" transform="translate(-214.157 -369.926)" fill="#1d1d1b"/></g><g transform="translate(24.482)"><g transform="translate(0 2.006)"><g transform="translate(0.688 0.628)"><path d="M198.254,90.521c-13.768.065-21.072,10.213-23.075,13.509-3.878,6.4-4.46,17.775-2.78,25.144,2.392,10.213,9.76,20.231,17,23.075l39.881-42.531c-2.068-2.65-14.091-17.387-27.212-18.939A26.379,26.379,0,0,0,198.254,90.521Z" transform="translate(-171.511 -90.521)" fill="#5c5262"/></g><g transform="translate(13.907 19.36)"><path d="M198.894,120.29h.711l2.327.065-2.068,1.034A14.765,14.765,0,0,0,191.978,136c.194,7.11,5.946,12.992,9.308,15.836.517.453.97.776,1.357,1.1l17.323-21.718c-.323-.517-.646-1.034-1.034-1.551a23.593,23.593,0,0,0-13.251-9.631h-.065a16.38,16.38,0,0,0-9.308.323C197.084,120.29,197.989,120.29,198.894,120.29Z" transform="translate(-191.962 -119.503)" fill="#3e3742"/></g><path d="M218.97,128.93a23.824,23.824,0,0,0-13.638-9.825,17.352,17.352,0,0,0-13.832,2.327,24.22,24.22,0,0,1,7.692-1.034c.04,0,.083.006.124.008-.041.02-.083.037-.124.057a15.14,15.14,0,0,0-3.555,2.585,16.618,16.618,0,0,0-4.654,12.539c.259,7.369,6.076,13.38,9.566,16.289.711.582,1.357,1.1,1.81,1.422.388-.646.776-1.357,1.164-2a18.386,18.386,0,0,1-1.81-1.422c-3.232-2.779-8.274-8.144-8.467-14.349a14.053,14.053,0,0,1,3.943-10.859c2.187-2.125,5.623-3.539,8.08-3.3,4.233.418,8.4,3.878,12.023,9.114.388.582.84,1.228,1.228,1.939l.065-.065c.582-.517,1.1-1.034,1.68-1.487C219.81,130.223,219.422,129.576,218.97,128.93Z" transform="translate(-177.706 -99.797)" fill="#1d1d1b"/><path d="M189.088,152.552c-7.5-2.715-15.254-13.057-17.711-23.657-1.745-7.5-1.163-19.068,2.844-25.6,2.262-3.684,10.924-15.578,27.406-13.509,14.35,1.745,27.341,18.874,27.859,19.585l-1.81,1.357c-.129-.194-12.992-17.064-26.307-18.68-15.19-1.874-23.14,9.049-25.208,12.475-3.684,6.011-4.2,16.87-2.521,23.851,2.521,10.859,10.407,19.843,16.224,21.977Z" transform="translate(-170.447 -89.55)" fill="#1d1d1b"/></g><g transform="translate(126.197 1.457)"><g transform="translate(0 0.53)"><path d="M392.7,89.844c-13.121,1.745-25.014,16.547-27.018,19.2l40.269,42.143c7.175-2.909,14.479-12.992,16.741-23.269,1.616-7.369.97-18.809-2.973-25.144-2.068-3.3-9.437-13.315-23.2-13.251C395.29,89.585,394,89.65,392.7,89.844Z" transform="translate(-365.686 -89.521)" fill="#5c5262"/><g transform="translate(16.612 18.748)"><path d="M414.978,119.363a15.888,15.888,0,0,0-9.308-.259h-.065a23.39,23.39,0,0,0-13.186,9.76c-.388.517-.711,1.034-1.034,1.551l17.581,21.459c.388-.323.84-.646,1.357-1.1,3.361-2.909,9.049-8.791,9.178-15.9a16.028,16.028,0,0,0-4.589-12.087,15.858,15.858,0,0,0-3.426-2.456L409.42,119.3l2.327-.065h.711C413.3,119.233,414.138,119.3,414.978,119.363Z" transform="translate(-391.386 -118.525)" fill="#3e3742"/></g></g><path d="M416.048,122.033a14.01,14.01,0,0,0-3.62-2.521,23.146,23.146,0,0,1,7.691.969,17.289,17.289,0,0,0-13.832-2.2,23.984,23.984,0,0,0-13.573,9.954,10.447,10.447,0,0,0-1.228,1.874,18.431,18.431,0,0,1,1.681,1.487l.065.065a14.153,14.153,0,0,1,1.228-1.939c3.555-5.236,7.594-8.193,12.14-9.245,4-.4,5.618,1.018,7.833,3.169a14.227,14.227,0,0,1,4.072,10.794c-.13,6.205-5.106,11.635-8.274,14.414-.711.646-1.357,1.1-1.81,1.487.388.646.84,1.357,1.229,2,.452-.323,1.034-.84,1.809-1.422,3.426-2.973,9.243-8.984,9.373-16.353A16.706,16.706,0,0,0,416.048,122.033Z" transform="translate(-374.81 -98.945)" fill="#1d1d1b"/><g transform="translate(0.065)"><path d="M406.572,151.541c7.433-2.779,15.125-13.251,17.452-23.786,1.68-7.5.97-19.068-3.038-25.532-2.262-3.684-11.053-15.448-27.536-13.25-14.349,1.874-27.147,19.132-27.664,19.843l1.874,1.357c.129-.194,12.8-17.193,26.178-18.939,15.19-2,23.2,8.855,25.338,12.216,3.749,5.947,4.33,16.806,2.779,23.851-2.391,10.859-10.212,19.973-16.03,22.17Z" transform="translate(-365.786 -88.701)" fill="#1d1d1b"/></g></g><path d="M213.311,90.789a26.246,26.246,0,0,0-9.825.517c.129.194,26.437,4.46,26.113,30.121l10.924-11.635C238.455,107.143,226.432,92.405,213.311,90.789Z" transform="translate(-182.13 -87.897)" fill="#3e3742"/><path d="M393.9,89.879a26.254,26.254,0,0,1,9.824.452c-.129.194-26.372,4.718-25.79,30.379l-11.053-11.57C368.955,106.426,380.848,91.624,393.9,89.879Z" transform="translate(-239.914 -87.568)" fill="#3e3742"/><g transform="translate(5.561 1.007)"><path d="M243.129,259.432c3.943.582,26.954,3.684,46.086-.129h0c32.254-4.266,72.717-36.132,62.31-70.325-1.358-2.715-2.779-8.985-3.749-13.768-4.4-21.653-14.608-42.273-31.349-56.687-10.923-9.631-30.9-16.676-42.66-18.292,2.262-5.623,3.1-12.54-5.365-12.216-7.886.776-11.893,8.209-13.832,12.863-39.105,7.627-62.245,35.163-70.325,75.108-.9,4.783-2.327,11.118-3.62,13.832C170.606,223.494,210.422,255.3,243.129,259.432Z" transform="translate(-179.051 -88.004)" fill="#fff"/></g><path d="M348.47,304.421c-14.608,8.726-32.125,14.672-48.025,16.353-24.045,3.878-52.938.776-57.85.194-15.9-1.551-33.094-7.3-47.508-15.707,12.6,16.354,34.71,26.76,53.519,31.543.088.022.183.043.277.065h-.277s24.89,4.741,45.622.249C313.061,334.007,336.257,320.579,348.47,304.421Z" transform="translate(-179.16 -163.529)" fill="#c7dbf3"/><g transform="translate(24.705 56.578)"><g transform="translate(0 0.405)"><g transform="translate(2.274 2.272)"><path d="M238.234,178.121a24.117,24.117,0,0,0-16.612,7.239,31.261,31.261,0,0,0-9.308,19.585c-1.293,15.771,7.175,28.052,20.231,29.087,13.962,1.163,28.311-11.57,29.539-26.178h0c1.293-15.254-8.661-28.5-22.171-29.668A14.058,14.058,0,0,0,238.234,178.121Z" transform="translate(-212.185 -178.121)" fill="#5c5262"/></g><path d="M233.306,235.181c-.711,0-1.422,0-2.133-.065-14.349-1.164-23.786-14.479-22.364-31.607a33.326,33.326,0,0,1,9.954-21.007c5.752-5.559,13.121-8.4,20.167-7.821,14.737,1.228,25.661,15.642,24.239,32.125h0C261.876,222.124,247.914,235.116,233.306,235.181Zm3.684-58.3a24.117,24.117,0,0,0-16.612,7.239,31.262,31.262,0,0,0-9.308,19.585c-1.293,15.771,7.175,28.052,20.232,29.087,13.961,1.163,28.311-11.57,29.539-26.178h0c1.293-15.254-8.661-28.5-22.17-29.668A14.044,14.044,0,0,0,236.99,176.878Z" transform="translate(-208.667 -174.606)" fill="#1d1d1b"/><g transform="translate(22.438 18.078)"><path d="M268.14,217.277c-.646,7.562-7.886,13.509-14.608,12.927s-10.73-6.851-10.083-14.414,6.981-13.7,13.7-13.186C263.874,203.186,268.786,209.779,268.14,217.277Z" transform="translate(-243.381 -202.574)" fill="#1d1d1b"/></g><g transform="translate(33.408 22.944)"><path d="M270.134,215.156a5.707,5.707,0,0,1-4.848,6.011c-2.65.259-4.654-1.939-4.912-4.977-.259-2.973,1.81-5.817,4.46-6.076A5.21,5.21,0,0,1,270.134,215.156Z" transform="translate(-260.352 -210.103)" fill="#fff"/></g><g transform="translate(16.286 24.83)"><path d="M246.288,219.42c-5.171,2.392-12.8.194-12.41-6.4,1.745,4.008,6.334,4.008,8.661.646Z" transform="translate(-233.864 -213.021)" fill="#1d1d1b"/></g></g><g transform="translate(81.888)"><g transform="translate(2.338 2.328)"><path d="M360.958,177.671c-13.444,1.228-23.269,14.673-21.847,29.862h0c1.357,14.608,15.836,27.212,29.8,25.919,13.057-1.228,21.395-13.509,19.973-29.281a31.17,31.17,0,0,0-9.5-19.456,24.638,24.638,0,0,0-16.676-7.11A7.912,7.912,0,0,0,360.958,177.671Z" transform="translate(-338.974 -177.58)" fill="#5c5262"/></g><path d="M335.505,206.454h0c-1.551-16.482,9.243-30.961,23.98-32.383,7.045-.646,14.414,2.133,20.231,7.627a33.242,33.242,0,0,1,10.148,20.942c1.616,17.064-7.692,30.444-22.041,31.8-.711.065-1.422.129-2.133.129C350.953,234.571,336.927,221.773,335.505,206.454ZM359.679,176.4c-13.444,1.228-23.269,14.673-21.847,29.862h0c1.357,14.608,15.836,27.212,29.8,25.919,13.057-1.228,21.395-13.509,19.973-29.281a31.17,31.17,0,0,0-9.5-19.456,24.638,24.638,0,0,0-16.677-7.11A7.886,7.886,0,0,0,359.679,176.4Z" transform="translate(-335.357 -173.979)" fill="#1d1d1b"/><g transform="translate(7.383 18.217)"><path d="M346.848,216.937c.711,7.5,8.015,13.38,14.737,12.8,6.722-.646,10.665-6.981,9.954-14.479s-7.11-13.638-13.832-13.057C350.985,202.846,346.137,209.439,346.848,216.937Z" transform="translate(-346.779 -202.162)" fill="#1d1d1b"/></g><g transform="translate(11.377 23.147)"><path d="M352.976,214.787a5.8,5.8,0,0,0,4.912,6.011c2.65.194,4.654-2,4.848-4.977.259-2.973-1.874-5.817-4.524-6.011C355.562,209.551,353.235,211.814,352.976,214.787Z" transform="translate(-352.958 -209.79)" fill="#fff"/></g><g transform="translate(25.939 24.719)"><path d="M375.486,218.749c5.236,2.327,12.8.065,12.346-6.528-1.745,4.008-6.334,4.072-8.661.711Z" transform="translate(-375.486 -212.221)" fill="#1d1d1b"/></g></g></g><path d="M316.984,120.278c-.259.065,14.156-2,14.608-6.464a5.5,5.5,0,0,0-3.1-5.947l-5.106-.646-2.262,3.1,2.844,1.551S325.387,118.4,316.984,120.278Z" transform="translate(-222.266 -93.793)" fill="#c7dbf3"/><path d="M314.359,102.241c2.382-3.87,3.5-8.466,2.378-11.609-.582-1.745-2.391-4.589-7.692-4.137-8.079.646-12.539,8.08-14.608,12.992q-.582,1.454-.97,2.521c-.388,1.034-.517,1.681-.582,1.81a21.3,21.3,0,0,1,.97-1.939c.323-.646.776-1.422,1.293-2.262,2.65-4.266,7.5-10.342,14.091-10.924,2.844-.259,4.589.646,5.3,2.586C315.961,95.35,309.3,107.7,309.3,107.7a16.553,16.553,0,0,0,3.736-3.545c1.142.612,1.758,1.27,1.758,1.8,0,1.745-7.11,7.627-7.11,7.627,1.551-.582,9.308-3.62,9.437-7.627C317.125,104.554,316.217,103.3,314.359,102.241Z" transform="translate(-213.745 -86.447)" fill="#1d1d1b"/><g transform="translate(101.053 12.264)"><path d="M338.679,267.143c16.805-1.616,40.527-11.247,55.652-29.216,15.319-18.163,13.315-38.33,10.923-43.177-1.034-2.068-2.262-6.722-3.684-13.509A120.511,120.511,0,0,0,393.944,157c-.323-.711-.646-1.422-.969-2.068-.517-1.1-1.034-2.2-1.616-3.232-.84-1.681-1.81-3.426-2.844-5.106-.388-.646-.775-1.357-1.228-2a105.4,105.4,0,0,0-11.505-15.061,51.409,51.409,0,0,0-4.266-4.137c-.582-.517-1.163-1.034-1.745-1.487a78.589,78.589,0,0,0-14.737-9.437c-.711-.388-1.422-.711-2.133-1.034a103.814,103.814,0,0,0-21.136-7.11c-1.422-.323-4.589-.9-4.654-.9l-.323,2.262c.064,0,3.3.646,4.783.97,6.205,1.357,23.334,5.882,36.908,17.193a18.448,18.448,0,0,1,1.681,1.487,43.113,43.113,0,0,1,3.878,3.814,103.939,103.939,0,0,1,11.376,15c.388.646.84,1.357,1.228,2,.905,1.551,1.81,3.167,2.586,4.718a112.715,112.715,0,0,1,10.018,28.957c1.422,7.11,2.715,11.829,3.878,14.091,2.585,5.236,3.167,24.368-10.6,40.721-6.593,7.821-17.581,15.707-28.311,21.007A150.963,150.963,0,0,1,338.679,267.143Z" transform="translate(-326.786 -105.421)" fill="#1d1d1b"/></g><g transform="translate(5.103 12.717)"><path d="M254.642,106.509c-.517.84-.969,1.616-1.293,2.262-.129,0-.258.065-.388.065-5.817,1.293-23.4,5.882-37.166,17.646-.582.452-1.1.97-1.681,1.487-1.293,1.228-2.586,2.456-3.813,3.814a107.39,107.39,0,0,0-11.247,15.06c-.388.646-.776,1.358-1.163,2-.9,1.616-1.745,3.167-2.521,4.718a113.2,113.2,0,0,0-9.7,29.087c-1.357,7.11-2.65,11.829-3.684,14.091-2.521,5.236-2.973,24.368,10.988,40.592,6.658,7.757,17.71,15.513,28.5,20.748a145.84,145.84,0,0,0,25.726,9.437c-16.806-1.422-40.657-10.859-55.976-28.7-15.513-18.034-13.7-38.2-11.312-43.113.97-2.068,2.2-6.722,3.555-13.574a116.849,116.849,0,0,1,7.433-24.3,20.22,20.22,0,0,1,.97-2.068c.517-1.1,1.034-2.2,1.551-3.232.84-1.681,1.81-3.426,2.78-5.106.388-.646.776-1.357,1.164-2a109.451,109.451,0,0,1,11.376-15.19c1.357-1.487,2.779-2.909,4.2-4.2l1.745-1.551a73.967,73.967,0,0,1,14.673-9.566c.711-.388,1.422-.711,2.133-1.034a103.747,103.747,0,0,1,22.623-7.627c.388-.065.646-.129.646-.129Z" transform="translate(-178.341 -106.121)" fill="#1d1d1b"/></g><g transform="translate(178.668 127.133)"><path d="M450.94,295.514a9.348,9.348,0,0,0,2.842-3.645,8.572,8.572,0,0,0,.633-4.584,7.667,7.667,0,0,0-1.733-4.15,15.743,15.743,0,0,1-.975,7.849,13.17,13.17,0,0,1-2.027,3.261,7.242,7.242,0,0,1-.657.761l-.657.762a16.9,16.9,0,0,0-1.5,1.6c.7-.182,1.395-.427,2.089-.673A10.224,10.224,0,0,0,450.94,295.514Z" transform="translate(-446.865 -283.135)" fill="#1d1d1b"/></g></g><g transform="translate(28.921 116.136)"><g transform="translate(5.61)"><g transform="translate(10.235 40.129)"><circle cx="31.478" cy="31.478" r="31.478" transform="translate(0 53.079) rotate(-57.472)" fill="#d98741"/><circle cx="29.733" cy="29.733" r="29.733" transform="translate(13.755 13.74)" fill="#ffdb5e"/><circle cx="25.209" cy="25.209" r="25.209" transform="translate(18.284 18.26)" fill="#d98741"/><circle cx="23.528" cy="23.528" r="23.528" transform="translate(19.946 19.919)" fill="#ffdb5e"/><circle cx="18.68" cy="18.68" r="18.68" transform="translate(24.8 24.799)" fill="#d98741"/><circle cx="17.387" cy="17.387" r="17.387" transform="translate(26.097 26.1)" fill="#ffdb5e"/><circle cx="12.281" cy="12.281" r="12.281" transform="translate(31.2 31.187)" fill="#d98741"/><circle cx="10.859" cy="10.859" r="10.859" transform="translate(32.614 32.588)" fill="#ffdb5e"/></g><g transform="translate(0 57.334)"><circle cx="25.144" cy="25.144" r="25.144" transform="translate(3.938 3.942)" fill="#d98741"/><circle cx="23.722" cy="23.722" r="23.722" transform="translate(0 45.811) rotate(-74.941)" fill="#ffdb5e"/><circle cx="20.167" cy="20.167" r="20.167" transform="translate(8.915 8.919)" fill="#d98741"/><circle cx="18.809" cy="18.809" r="18.809" transform="translate(10.275 10.263)" fill="#ffdb5e"/><circle cx="14.931" cy="14.931" r="14.931" transform="translate(14.15 14.155)" fill="#d98741"/><circle cx="13.897" cy="13.897" r="13.897" transform="translate(15.185 15.189)" fill="#ffdb5e"/><circle cx="9.825" cy="9.825" r="9.825" transform="translate(15.279 30.741) rotate(-51.872)" fill="#d98741"/><circle cx="8.661" cy="8.661" r="8.661" transform="translate(20.43 20.408)" fill="#ffdb5e"/></g><g transform="translate(79.304 55.071)"><circle cx="27.406" cy="27.406" r="27.406" fill="#d98741"/><circle cx="25.855" cy="25.855" r="25.855" transform="translate(1.551 1.551)" fill="#ffdb5e"/><circle cx="21.977" cy="21.977" r="21.977" transform="translate(5.425 5.424)" fill="#d98741"/><circle cx="20.489" cy="20.489" r="20.489" transform="translate(6.91 6.892)" fill="#ffdb5e"/><circle cx="16.289" cy="16.289" r="16.289" transform="translate(11.118 11.118)" fill="#d98741"/><circle cx="15.125" cy="15.125" r="15.125" transform="translate(12.281 12.281)" fill="#ffdb5e"/><circle cx="10.73" cy="10.73" r="10.73" transform="translate(16.676 16.676)" fill="#d98741"/><circle cx="9.437" cy="9.437" r="9.437" transform="translate(17.969 17.969)" fill="#ffdb5e"/></g><g transform="translate(106.265 63.091)"><circle cx="21.913" cy="21.913" r="21.913" fill="#d98741"/><circle cx="20.684" cy="20.684" r="20.684" transform="translate(1.228 1.228)" fill="#ffdb5e"/><circle cx="17.581" cy="17.581" r="17.581" transform="translate(4.324 4.325)" fill="#d98741"/><circle cx="16.353" cy="16.353" r="16.353" transform="translate(5.552 5.553)" fill="#ffdb5e"/><circle cx="12.992" cy="12.992" r="12.992" transform="translate(8.913 8.914)" fill="#d98741"/><circle cx="12.086" cy="12.086" r="12.086" transform="translate(9.825 9.793)" fill="#ffdb5e"/><circle cx="8.532" cy="8.532" r="8.532" transform="translate(13.373 13.374)" fill="#d98741"/><circle cx="7.563" cy="7.563" r="7.563" transform="translate(14.349 14.317)" fill="#ffdb5e"/></g><g transform="translate(66.765)"><path d="M321.969,355.385H289.586v-87.2l8.661,1.293,7.433-3.361,8.726,3.167,7.563-1.1Z" transform="translate(-289.392 -266.121)" fill="#ffdb5e"/><path d="M289.686,384.379s5.559-12.734,15.771-10.083,13.768,3.167,16.547-7.175l.323,18.68s-2.973,4.266-10.665,2.456c-15.771-3.749-21.46,11.182-21.46,11.182Z" transform="translate(-289.427 -301.838)" fill="#f9eac0"/><path d="M289.686,305.379s5.559-12.733,15.771-10.083,13.768,3.167,16.547-7.175l.323,18.68s-2.973,4.266-10.665,2.456c-15.771-3.749-21.46,11.182-21.46,11.182Z" transform="translate(-289.427 -273.901)" fill="#f9eac0"/><rect width="1.681" height="87.518" transform="translate(0 1.681)" fill="#d98741"/><rect width="1.681" height="86.937" transform="translate(8.015 2.327)" fill="#d98741"/><rect width="1.681" height="89.07" transform="translate(16.03 0.194)" fill="#d98741"/><rect width="1.681" height="86.549" transform="translate(24.045 2.65)" fill="#d98741"/><path d="M340.567,271.63V356.3h-1.681V268.721h1.163c.065.388.13.84.194,1.228C340.373,270.531,340.438,271.112,340.567,271.63Z" transform="translate(-306.826 -267.041)" fill="#d98741"/><rect width="0.84" height="81.249" transform="translate(1.616 2.327)" fill="#f9eac0"/><rect width="0.84" height="81.249" transform="translate(9.631 2.327)" fill="#f9eac0"/><rect width="0.84" height="82.347" transform="translate(17.711 1.228)" fill="#f9eac0"/><rect width="0.84" height="81.249" transform="translate(25.725 2.327)" fill="#f9eac0"/></g></g><g transform="translate(0 80.344)"><path d="M264.357,477.765a85.641,85.641,0,0,0,85.192-76.918,7.932,7.932,0,0,0-7.886-8.726H187.051a7.932,7.932,0,0,0-7.886,8.726A85.641,85.641,0,0,0,264.357,477.765Z" transform="translate(-177.956 -391.022)" fill="#aeb350"/><path d="M329.2,448.769a85.851,85.851,0,0,0,21.072-48.025c1.1-12.475-17.581-7.95-24.691-8.726C302.439,473.784,214.985,496.6,180.986,408.5,193.4,477.274,283.953,501.642,329.2,448.769Z" transform="translate(-178.613 -390.919)" fill="#999941"/><path d="M348.457,394.254H182.986a7.728,7.728,0,0,1,5.43-2.133H343.027A8.022,8.022,0,0,1,348.457,394.254Z" transform="translate(-179.32 -391.022)" fill="#d3d385"/><path d="M246.395,394.254c0,1.681-6.852,3.1-15.254,3.1s-15.254-1.357-15.254-3.1c0-.84,1.616-1.616,4.331-2.133h21.847C244.779,392.638,246.395,393.414,246.395,394.254Z" transform="translate(-190.955 -391.022)" fill="#d3d385"/><path d="M273.4,402.806c0,1.422-2.263,2.586-5.106,2.586s-5.106-1.164-5.106-2.586,2.262-2.585,5.106-2.585C271.072,400.221,273.4,401.385,273.4,402.806Z" transform="translate(-207.682 -393.887)" fill="#d3d385"/><path d="M263.716,478.327a86.542,86.542,0,0,1-86.355-77.952,8.966,8.966,0,0,1,2.327-6.981,9.26,9.26,0,0,1,6.722-2.974H341.086a9.094,9.094,0,0,1,9.049,9.954A86.6,86.6,0,0,1,263.716,478.327ZM186.41,392.683a6.87,6.87,0,0,0-6.787,7.5,84.537,84.537,0,0,0,168.186,0,6.87,6.87,0,0,0-6.787-7.5Z" transform="translate(-177.315 -390.421)" fill="#1d1d1b"/></g></g><g transform="translate(96.383 101.722)"><g transform="translate(9.527 0)"><path d="M317.859,243.821l-9.89.065h-.065l-9.889.065a1.616,1.616,0,0,0-1.357,2.456c2.2,3.62,6.722,9.889,11.311,9.631h0c4.589.194,9.049-6.141,11.182-9.76A1.536,1.536,0,0,0,317.859,243.821Z" transform="translate(-296.425 -243.821)" fill="#1d1d1b"/><path d="M318.645,246.249c0,.711-3.62,1.293-8.08,1.293s-8.08-.517-8.08-1.228,3.62-1.293,8.08-1.293S318.645,245.6,318.645,246.249Z" transform="translate(-298.568 -244.245)" fill="#353535"/></g><path d="M324.152,275.008A14.1,14.1,0,0,1,320.339,271c-.129-.258-.323-.517-.452-.775a18.915,18.915,0,0,1-1.228-2.585,13.693,13.693,0,0,1-.9-3.555,5.652,5.652,0,0,1-.129-1.034,9.614,9.614,0,0,1-5.882,2,11.753,11.753,0,0,1-2.068-.194c-3.814-.711-5.753-2.2-6.852-3.62-1.034,1.422-3.038,2.909-6.787,3.685a11.744,11.744,0,0,1-2.068.194,9.918,9.918,0,0,1-5.817-1.874c0,.129-.064.259-.064.388a17.386,17.386,0,0,1-2.133,6.141,14.281,14.281,0,0,1-4.266,4.718,42.659,42.659,0,0,0,2.65-5.494,25.473,25.473,0,0,0,1.487-5.688c.129-.646.194-1.293.258-1.939.065-.323.065-.711.129-1.1.065-.969.129-1.939.129-2.909,0-2-.129-4.007-.323-6.14a17.574,17.574,0,0,1,2.133,6.011,19.5,19.5,0,0,1,.259,4.331,11.039,11.039,0,0,0,7.239,1.1c5.106-1.034,5.947-3.49,6.076-4.266V258.2h2.391v.194c.129.711.97,3.232,6.141,4.2a11.627,11.627,0,0,0,7.433-1.293,23.565,23.565,0,0,1,.258-3.684,18.6,18.6,0,0,1,2.133-6.011c-.194,2.133-.323,4.137-.323,6.141,0,.776,0,1.487.065,2.2,0,.323.064.711.064,1.034.065.453.065.97.129,1.422.065.388.129.84.194,1.228a15.366,15.366,0,0,0,.323,1.681,38.876,38.876,0,0,0,3.62,9.7Z" transform="translate(-281.686 -246.438)" fill="#1d1d1b"/></g><g transform="translate(171.75 154.013)"><path d="M398.286,334.331l6.141,12.54S410.5,361.479,411.278,364c0,0-2.973,8.08-2.973,8.273s-1.357,8.985-1.357,8.985,3.426,6.27,3.426,6.4c0,.065,8.4,5.494,8.4,5.494s10.277-2.133,10.407-2.133c.065,0,5.236-7.175,5.236-7.175l4.589-8.985S441.334,364,441.4,363.805c.065-.129-.388-8.726-.388-8.855s-5.817-10.342-5.817-10.342l-7.433-6.593s-17-8.855-17.193-8.985c-.13-.129-2.779-.646-2.973-.711-.194-.129-8.015,5.365-8.015,5.365Z" transform="translate(-398.286 -325.993)" fill="#5c5262"/><g transform="translate(7.498 0)"><path d="M425.528,392.784a14.831,14.831,0,0,1-7.886-2.456c-4.524-2.908-7.045-6.657-7.5-11.247-1.228-11.7,11.635-24.433,12.152-24.95,0,0-10.988,14.091-9.889,24.691.388,3.814,2.585,7.045,6.464,9.5,6.4,4.072,11.57,1.487,14.867-1.357,8.79-7.756,13.638-26.436,9.243-35.615-7.433-15.513-32.836-24.368-33.094-24.433l.711-2.2c1.1.388,26.566,9.243,34.451,25.6,4.848,10.148-.194,29.862-9.76,38.33A14.532,14.532,0,0,1,425.528,392.784Z" transform="translate(-409.886 -324.721)" fill="#1d1d1b"/></g></g></g></g></svg>