<svg xmlns="http://www.w3.org/2000/svg" width="52.197" height="51.988" viewBox="0 0 52.197 51.988"><g transform="translate(-2.835 -4.094)"><path d="M47.127,37.019c.27-2.245.189-2.575,1.861-2.211l.425.038a9.673,9.673,0,0,0,3.956-.666c2.127-.987,3.389-2.636,1.291-2.2-4.785.987-5.114-.633-5.114-.633C54.6,23.846,56.712,14.33,54.889,12,49.916,5.646,41.308,8.65,41.164,8.728l-.046.009A17.008,17.008,0,0,0,37.925,8.4,7.888,7.888,0,0,0,32.87,9.918S17.514,3.591,18.229,17.874c.152,3.038,4.355,22.991,9.368,16.964,1.832-2.2,3.6-4.067,3.6-4.067a4.648,4.648,0,0,0,3.036.775l.085-.073a3.321,3.321,0,0,0,.035.858c-1.292,1.443-.912,1.7-3.494,2.228-2.612.538-1.077,1.5-.076,1.747a5.306,5.306,0,0,0,5.924-1.924l-.076.3c.507.405.472,2.913.544,4.7a16.929,16.929,0,0,0,.557,4.45c.365.986.8,3.525,4.19,2.8,2.836-.608,5-1.483,5.2-9.62" transform="translate(-8.811 -2.211)"/><path d="M38.61,46.2a4.324,4.324,0,0,1-3.072-1.141,5.892,5.892,0,0,1-1.464-2.585l-.092-.272a17.522,17.522,0,0,1-.658-4.955q-.019-.5-.032-1c-.007-.256-.016-.578-.029-.916a6.467,6.467,0,0,1-1.705.539,8.208,8.208,0,0,1-3.382-.175,3.944,3.944,0,0,1-2.2-1.313,3.533,3.533,0,0,1-3.573.843c-1.324-.442-2.509-1.682-3.623-3.793A34.074,34.074,0,0,1,16.5,25.605a54.851,54.851,0,0,1-2.122-9.86c-.223-4.449.975-7.631,3.559-9.455C22.01,3.41,28.187,5.1,30.438,5.872a9.789,9.789,0,0,1,5.3-1.324,19.36,19.36,0,0,1,3.064.282A17.625,17.625,0,0,1,44.025,4.1a12.337,12.337,0,0,1,9.949,4.679c1.682,2.149.85,6.661.2,9.159A40.944,40.944,0,0,1,49.725,28.44a11.659,11.659,0,0,0,2.392-.285c2.156-.445,2.787.711,2.958,1.228.686,2.077-2.295,3.646-3.224,4.077a11.286,11.286,0,0,1-4.724.817l-.07,0-.418-.037-.041.348-.04.341c-.107,4.124-.7,6.735-1.908,8.461a6.832,6.832,0,0,1-4.592,2.649,6.89,6.89,0,0,1-1.449.163ZM35.452,31.19c.969.775,1.054,2.234,1.129,4.961.009.34.018.662.03.963a17.8,17.8,0,0,0,.456,3.944c.047.127.09.257.134.393.372,1.14.559,1.711,2.168,1.367,1.351-.289,2.046-.549,2.589-1.323.79-1.126,1.232-3.388,1.313-6.728l1.644.04-1.633-.2.048-.407c.157-1.343.269-2.314,1.167-2.956a2.788,2.788,0,0,1,2.2-.347,2.457,2.457,0,0,1-.97-1.441l-.137-.675.385-.572a37.457,37.457,0,0,0,5.021-11.1c1-3.867.694-5.92.39-6.309C47.352,5.652,40.361,7.778,39.631,8.02l-.124.067-.619.116-.317-.066a15.529,15.529,0,0,0-2.884-.3,6.243,6.243,0,0,0-4.034,1.179l-.75.569-.871-.359c-1.86-.76-7.323-2.289-10.206-.247-1.6,1.133-2.329,3.354-2.167,6.6a53.1,53.1,0,0,0,1.983,9.065c1.66,5.439,3.169,7.245,3.8,7.455.11.037.4-.185.679-.525,1.846-2.22,3.6-4.071,3.675-4.149l.952-1,1.151.765a3.043,3.043,0,0,0,1.5.516l2.745-2.341-.4,4.058a1.668,1.668,0,0,0,.023.445l.119.769-.518.579-.06.067,1.508.7Z" transform="translate(-6.601 0)"/><path d="M54.661,31.976c-4.786.987-5.115-.633-5.115-.633C54.6,23.846,56.711,14.328,54.888,12,49.915,5.645,41.307,8.65,41.163,8.728l-.047.008A17.085,17.085,0,0,0,37.924,8.4,7.887,7.887,0,0,0,32.87,9.917S17.513,3.591,18.228,17.873c.152,3.038,4.355,22.991,9.368,16.964,1.832-2.2,3.6-4.067,3.6-4.067a4.647,4.647,0,0,0,3.036.775l.086-.073a3.357,3.357,0,0,0,.034.858c-1.291,1.443-.912,1.7-3.494,2.228-2.613.538-1.078,1.5-.076,1.747a5.306,5.306,0,0,0,5.924-1.924l-.076.3c.506.405.861,2.637.8,4.659a12.819,12.819,0,0,0,.3,4.5c.4,1.084.8,3.525,4.19,2.8,2.836-.608,4.305-2.183,4.51-4.81.145-1.868.473-1.592.494-3.262l.264-.791c.3-2.532.048-3.349,1.8-2.968l.425.037a9.668,9.668,0,0,0,3.957-.666C55.5,33.192,56.758,31.543,54.661,31.976Z" transform="translate(-8.811 -2.211)" fill="#336791"/><path d="M40.209,46.579a4.281,4.281,0,0,1-4.092-3.156c-.536-1.342-.652-6.553-.533-10.826a.549.549,0,0,1,1.1.031c-.138,4.929.058,9.395.455,10.388.62,1.55,1.56,2.905,4.219,2.336,2.524-.541,3.469-1.5,3.89-3.938.323-1.873.962-7.2,1.04-8.251a.548.548,0,0,1,1.094.082c-.082,1.094-.718,6.411-1.053,8.356-.5,2.882-1.782,4.19-4.741,4.824A6.6,6.6,0,0,1,40.209,46.579ZM24.869,35.636a2.28,2.28,0,0,1-.727-.12c-1.838-.613-3.588-3.606-5.2-8.9a53.664,53.664,0,0,1-2.076-9.6c-.2-4.049.841-6.915,3.1-8.515,4.47-3.167,11.99-.151,12.308-.021A.548.548,0,1,1,31.857,9.5h0c-.073-.03-7.284-2.919-11.261-.1-1.932,1.37-2.819,3.915-2.637,7.565a53.258,53.258,0,0,0,2.03,9.33c1.441,4.722,3.082,7.7,4.5,8.175.222.075.9.3,1.869-.864,1.823-2.193,3.5-3.943,3.514-3.961a.549.549,0,0,1,.792.759c-.017.017-1.666,1.741-3.463,3.9a3.06,3.06,0,0,1-2.332,1.324ZM48.73,31.016a.548.548,0,0,1-.454-.855c5.108-7.58,6.9-16.738,5.365-18.7a10.056,10.056,0,0,0-8.112-3.834,15.221,15.221,0,0,0-4.917.711l-.083.034a.55.55,0,0,1-.469-.988l.148-.061-.007,0,.008,0a15.917,15.917,0,0,1,5.179-.8A11.279,11.279,0,0,1,54.5,10.785c1.016,1.3,1.019,4.291.006,8.21a39.741,39.741,0,0,1-5.326,11.78A.547.547,0,0,1,48.73,31.016Zm.261,3.509a4.431,4.431,0,0,1-2.122-.4,1.1,1.1,0,0,1-.585-.888c-.131-2.306,1.141-2.707,1.79-2.89-.09-.137-.219-.3-.352-.463a8.174,8.174,0,0,1-1.3-2.089c-.062-.151-.259-.5-.486-.91-1.23-2.206-3.789-6.8-2.145-9.146.761-1.088,2.276-1.516,4.508-1.277-.657-2-3.784-8.26-11.2-8.381a7.168,7.168,0,0,0-5.438,2.037c-3.079,3.11-2.968,8.737-2.966,8.793a.548.548,0,1,1-1.1.029c-.007-.25-.122-6.155,3.283-9.594a8.225,8.225,0,0,1,6.235-2.363,12.557,12.557,0,0,1,9.531,4.5A12.635,12.635,0,0,1,49.53,16.9a.611.611,0,0,1-.461.738l-.2,0c-2.191-.351-3.6-.108-4.178.723-1.251,1.787,1.17,6.129,2.2,7.983.264.473.454.815.541,1.026a7.124,7.124,0,0,0,1.138,1.822,3.1,3.1,0,0,1,.681,1.129c.045.079.684,1.024,4.475.241.95-.2,1.52-.028,1.694.5.343,1.036-1.58,2.245-2.644,2.739A9.947,9.947,0,0,1,48.991,34.525Zm-1.613-1.382a3.4,3.4,0,0,0,1.968.277,8.719,8.719,0,0,0,2.978-.614,6.276,6.276,0,0,0,1.805-1.2l-.172.032c-2.424.5-4.138.434-5.1-.2a2.058,2.058,0,0,1-.186-.138,2.683,2.683,0,0,1-.268.087c-.543.152-1.1.31-1.03,1.754ZM31.719,36.206a7.757,7.757,0,0,1-1.883-.244c-.67-.168-1.8-.672-1.784-1.5.019-.931,1.372-1.21,1.882-1.315,1.84-.379,1.96-.531,2.535-1.261.168-.213.376-.478.661-.8a1.847,1.847,0,0,1,1.372-.712,2.053,2.053,0,0,1,.8.192A2.358,2.358,0,0,1,36.583,32.1a1.968,1.968,0,0,1-.244,1.72,5.473,5.473,0,0,1-4.62,2.382Zm-2.482-1.7a2.578,2.578,0,0,0,.865.391,6.706,6.706,0,0,0,1.617.211,4.364,4.364,0,0,0,3.728-1.923.929.929,0,0,0,.082-.782,1.305,1.305,0,0,0-.644-.824,1.068,1.068,0,0,0-.383-.108c-.061,0-.244,0-.555.347-.262.293-.45.532-.617.743-.716.909-1.044,1.218-3.175,1.657a3.451,3.451,0,0,0-.919.288Zm4.217-2.529a.549.549,0,0,1-.541-.465,2.573,2.573,0,0,1-.027-.275,5.361,5.361,0,0,1-3.767-1.693,6.129,6.129,0,0,1-1.615-5.13,24.2,24.2,0,0,0,.123-4.89q-.022-.3-.027-.608c0-.173,0-.634,1.542-1.413a8.574,8.574,0,0,1,2.842-.885,3.053,3.053,0,0,1,3.686,2.49c1.057,4.89.084,7.053-.627,8.632-.133.294-.258.572-.358.841l-.088.238a5.889,5.889,0,0,0-.6,2.527.549.549,0,0,1-.459.626l-.084.006ZM28.7,19.069l.022.392a25.2,25.2,0,0,1-.132,5.107,5.04,5.04,0,0,0,1.321,4.219,4.263,4.263,0,0,0,3.073,1.356h.023a15.08,15.08,0,0,1,.564-1.707l.088-.236c.113-.3.245-.6.385-.909.684-1.521,1.536-3.414.555-7.951a1.84,1.84,0,0,0-1.44-1.59C31.567,17.4,29.2,18.6,28.7,19.069Zm3.309-.233c-.027.194.355.711.854.78a.919.919,0,0,0,.951-.529c.027-.194-.355-.407-.854-.477S32.035,18.643,32.008,18.837Zm.969.972-.14-.01A1.317,1.317,0,0,1,32,19.277a.714.714,0,0,1-.174-.466c.035-.253.343-.4.825-.4a2.482,2.482,0,0,1,.333.023,2.03,2.03,0,0,1,.688.213c.313.175.336.37.322.471a1.069,1.069,0,0,1-1.018.694Zm-.787-.939a.964.964,0,0,0,.7.567l.089.006a.79.79,0,0,0,.653-.372,1.1,1.1,0,0,0-.7-.278,2.014,2.014,0,0,0-.282-.02.787.787,0,0,0-.462.1Zm14.986-.428c.027.194-.355.712-.854.781a.921.921,0,0,1-.952-.529c-.026-.194.356-.407.854-.477S47.149,18.248,47.176,18.441Zm-.969.88a.986.986,0,0,1-.928-.615c-.039-.291.439-.512.932-.58a2.287,2.287,0,0,1,.32-.023c.425,0,.707.125.735.326a.742.742,0,0,1-.254.512,1.2,1.2,0,0,1-.678.371l-.128.009Zm.324-1.036a2.193,2.193,0,0,0-.294.021c-.5.069-.791.268-.777.375a.849.849,0,0,0,.747.457l.1-.007a1.019,1.019,0,0,0,.57-.316.632.632,0,0,0,.205-.362c-.009-.067-.192-.168-.553-.168Zm1.363,11.287a.548.548,0,0,1-.455-.853c1.167-1.744.954-3.523.747-5.242a14.791,14.791,0,0,1-.155-2.218,15.433,15.433,0,0,1,.211-1.962,10.024,10.024,0,0,0,.169-2.168.549.549,0,0,1,1.1-.059,11.051,11.051,0,0,1-.18,2.394,14.544,14.544,0,0,0-.2,1.831,13.843,13.843,0,0,0,.148,2.052c.22,1.829.469,3.9-.925,5.983a.549.549,0,0,1-.456.244Z" transform="translate(-8.029 -1.395)" fill="#fff"/><path d="M2.835,102.99a11.192,11.192,0,0,1,1.853-.144,3.073,3.073,0,0,1,2.1.621,2.011,2.011,0,0,1,.655,1.565,2.2,2.2,0,0,1-.577,1.6,3.1,3.1,0,0,1-2.285.821,3.317,3.317,0,0,1-.776-.067v3H2.835V102.99ZM3.8,106.6a3.236,3.236,0,0,0,.8.078c1.164,0,1.875-.566,1.875-1.6,0-.987-.7-1.464-1.764-1.464a4.05,4.05,0,0,0-.91.078Zm9.485,1.054a2.625,2.625,0,0,1-2.674,2.852,2.553,2.553,0,0,1-2.574-2.763,2.622,2.622,0,0,1,2.663-2.851A2.543,2.543,0,0,1,13.286,107.649Zm-4.26.055c0,1.176.677,2.063,1.631,2.063.932,0,1.63-.876,1.63-2.086,0-.91-.454-2.063-1.609-2.063s-1.653,1.065-1.653,2.086Zm5.358,1.675a2.559,2.559,0,0,0,1.287.388c.71,0,1.043-.355,1.043-.8,0-.466-.277-.721-1-.987-.965-.344-1.42-.876-1.42-1.52a1.656,1.656,0,0,1,1.853-1.575,2.682,2.682,0,0,1,1.321.333l-.244.71a2.09,2.09,0,0,0-1.1-.311c-.577,0-.9.333-.9.732,0,.444.322.643,1.021.91.932.355,1.409.821,1.409,1.62,0,.943-.732,1.609-2.008,1.609a3.062,3.062,0,0,1-1.509-.366Zm5.7-5.914v1.542h1.4v.743h-1.4v2.9c0,.666.188,1.043.732,1.043a2.172,2.172,0,0,0,.566-.067l.044.732a2.387,2.387,0,0,1-.865.133,1.354,1.354,0,0,1-1.054-.41,1.991,1.991,0,0,1-.377-1.4v-2.929H18.3v-.743h.832v-1.287Zm7.056,1.542c-.023.388-.044.821-.044,1.476V109.6a3.089,3.089,0,0,1-.765,2.452,2.846,2.846,0,0,1-1.953.643,3.468,3.468,0,0,1-1.787-.444l.244-.743a3.028,3.028,0,0,0,1.575.422c1,0,1.731-.521,1.731-1.875v-.6h-.022a1.917,1.917,0,0,1-1.708.9,2.4,2.4,0,0,1-2.285-2.619,2.577,2.577,0,0,1,2.418-2.851,1.786,1.786,0,0,1,1.676.932h.022l.044-.81h.854Zm-1.01,2.119a1.39,1.39,0,0,0-.055-.444,1.406,1.406,0,0,0-1.365-1.032c-.932,0-1.6.788-1.6,2.03,0,1.054.533,1.93,1.586,1.93a1.427,1.427,0,0,0,1.353-1,1.7,1.7,0,0,0,.078-.521v-.965Zm2.518-.444c0-.632-.011-1.176-.044-1.675h.855l.033,1.054h.044a1.611,1.611,0,0,1,1.487-1.176,1.052,1.052,0,0,1,.277.033v.921a1.463,1.463,0,0,0-.332-.033,1.369,1.369,0,0,0-1.309,1.254,2.748,2.748,0,0,0-.044.455v2.862h-.965v-3.694Zm4.061,1.187a1.72,1.72,0,0,0,1.841,1.864,3.529,3.529,0,0,0,1.487-.277l.166.7a4.349,4.349,0,0,1-1.786.333,2.493,2.493,0,0,1-2.64-2.707,2.607,2.607,0,0,1,2.518-2.9,2.275,2.275,0,0,1,2.219,2.529,3.682,3.682,0,0,1-.033.455H32.711Zm2.862-.7a1.39,1.39,0,0,0-1.353-1.586,1.619,1.619,0,0,0-1.5,1.586Z" transform="translate(0 -56.615)"/><path d="M84.042,109.113a3.42,3.42,0,0,0,1.731.488c.987,0,1.564-.521,1.564-1.276,0-.7-.4-1.1-1.409-1.487-1.22-.433-1.975-1.065-1.975-2.119a2.153,2.153,0,0,1,2.418-2.03,3.4,3.4,0,0,1,1.653.366l-.266.788a2.978,2.978,0,0,0-1.42-.355c-1.021,0-1.409.61-1.409,1.12,0,.7.454,1.043,1.487,1.442,1.265.489,1.908,1.1,1.908,2.2,0,1.154-.854,2.152-2.618,2.152a3.867,3.867,0,0,1-1.909-.477Zm11.771,2.274q-1.447-.38-2.862-.865a1.433,1.433,0,0,0-.455-.111,3.44,3.44,0,0,1-3.295-3.783c0-2.4,1.464-3.938,3.484-3.938s3.351,1.575,3.351,3.783a3.478,3.478,0,0,1-2.13,3.583v.044c.743.189,1.553.366,2.186.477Zm-.8-4.87c0-1.5-.776-3.04-2.363-3.04-1.631,0-2.43,1.509-2.418,3.129-.011,1.586.865,3.018,2.374,3.018C94.15,109.624,95.014,108.226,95.014,106.517Zm2.274-3.705h.966v6.667h3.2v.81H97.288Z" transform="translate(-46.417 -56.526)" fill="#336791"/></g></svg>