<svg xmlns="http://www.w3.org/2000/svg" width="45.576" height="45.267" viewBox="0 0 45.576 45.267"><path d="M22.67,47H59.011V73.679H22.67Z" transform="translate(-14.951 -30.49)" fill="#fff"/><path d="M1.5,24.044V46.678H47.076V1.41H1.5Zm36.727-1.811a5.682,5.682,0,0,1,2.851,1.63,7.457,7.457,0,0,1,1.094,1.449c0,.058-1.969,1.38-3.168,2.119-.044.029-.219-.159-.412-.445a2.588,2.588,0,0,0-2.14-1.278c-1.382-.094-2.272.627-2.264,1.811a1.649,1.649,0,0,0,.2.847c.3.627.868,1,2.64,1.76,3.263,1.394,4.66,2.314,5.527,3.621a6.533,6.533,0,0,1,.529,5.519c-.729,1.883-2.516,3.161-5.043,3.585a14.067,14.067,0,0,1-3.471-.036,8.4,8.4,0,0,1-4.638-2.4,7.953,7.953,0,0,1-1.185-1.746,3.408,3.408,0,0,1,.419-.264l1.688-.927,1.309-.753.273.4a6.1,6.1,0,0,0,1.728,1.644,4.249,4.249,0,0,0,4.434-.225,1.957,1.957,0,0,0,.252-2.506c-.365-.5-1.094-.927-3.132-1.811a11.3,11.3,0,0,1-4.291-2.622,5.956,5.956,0,0,1-1.251-2.263,8.993,8.993,0,0,1-.08-2.9,5.528,5.528,0,0,1,4.674-4.3,11.621,11.621,0,0,1,3.46.094Zm-10.7,1.9v1.854H21.612V42.727h-4.2V25.981H11.483V24.17a17.7,17.7,0,0,1,.044-1.872c.029-.033,3.646-.033,8.021-.033h7.959Z" transform="translate(-1.5 -1.41)" fill="#007acc"/></svg>